DirigibleOne-Regular.ufo
<glyph name="exclam" format="2">
  <advance width="288"/>
  <unicode hex="0021"/>
  <outline>
    <contour>
      <point x="30.13266" y="26.26936"/>
      <point x="99.13332" y="-44.7313"/>
      <point x="145.13332" y="-44.7313" type="curve" smooth="yes"/>
      <point x="191.13333" y="-44.7313"/>
      <point x="258.59888" y="26.26757"/>
      <point x="258.59888" y="70.26757" type="curve" smooth="yes"/>
      <point x="258.59888" y="104.83298"/>
      <point x="215.00351" y="156.15617"/>
      <point x="174.00739" y="174.96065" type="curve"/>
      <point x="192.95966" y="191.11661"/>
      <point x="210.88019" y="217.93927"/>
      <point x="212.19078" y="237.59808" type="curve" smooth="yes"/>
      <point x="243.82156" y="640.36346" type="line" smooth="yes"/>
      <point x="247.82156" y="689.36346"/>
      <point x="193.29816" y="755.77661"/>
      <point x="145.29816" y="755.77661" type="curve" smooth="yes"/>
      <point x="96.29816" y="755.77661"/>
      <point x="40.16049" y="689.59204"/>
      <point x="44.16049" y="640.59204" type="curve" smooth="yes"/>
      <point x="75.83879" y="237.22156" type="line" smooth="yes"/>
      <point x="77.1504" y="217.54753"/>
      <point x="95.95363" y="190.86049"/>
      <point x="115.79343" y="174.82004" type="curve"/>
      <point x="74.49634" y="155.90184"/>
      <point x="30.13266" y="104.74889"/>
      <point x="30.13266" y="70.26936" type="curve" smooth="yes"/>
    </contour>
  </outline>
</glyph>
<glyph name="numbersign" format="2">
  <advance width="640"/>
  <unicode hex="0023"/>
  <outline>
    <contour>
      <point x="74.27693" y="5.55416"/>
      <point x="109.8653" y="-49.27935"/>
      <point x="140.8653" y="-49.27935" type="curve" smooth="yes"/>
      <point x="167.8653" y="-49.27935"/>
      <point x="214.61052" y="-9.9263"/>
      <point x="220.61052" y="19.0737" type="curve" smooth="yes"/>
      <point x="242.74849" y="132.22329" type="line"/>
      <point x="244.01576" y="138.70048"/>
      <point x="250.45263" y="144"/>
      <point x="257.05263" y="144" type="curve" smooth="yes"/>
      <point x="301.79355" y="144" type="line"/>
      <point x="308.39355" y="144"/>
      <point x="312.72663" y="138.70645"/>
      <point x="311.42262" y="132.23655" type="curve" smooth="yes"/>
      <point x="292.1687" y="36.7075" type="line" smooth="yes"/>
      <point x="286.1687" y="4.7075"/>
      <point x="324.8653" y="-49.27935"/>
      <point x="352.8653" y="-49.27935" type="curve" smooth="yes"/>
      <point x="379.8653" y="-49.27935"/>
      <point x="426.49817" y="-10.02262"/>
      <point x="432.49817" y="18.97738" type="curve" smooth="yes"/>
      <point x="455.77245" y="132.24558" type="line"/>
      <point x="457.10086" y="138.71051"/>
      <point x="463.58774" y="144"/>
      <point x="470.18774" y="144" type="curve" smooth="yes"/>
      <point x="523.30197" y="144" type="line" smooth="yes"/>
      <point x="553.30194" y="144"/>
      <point x="603.20197" y="186"/>
      <point x="603.20197" y="212" type="curve" smooth="yes"/>
      <point x="603.20197" y="238"/>
      <point x="553.30194" y="280"/>
      <point x="523.30197" y="280" type="curve" smooth="yes"/>
      <point x="494.84277" y="280" type="line"/>
      <point x="488.24277" y="280"/>
      <point x="483.88839" y="285.2978"/>
      <point x="485.16637" y="291.77289" type="curve" smooth="yes"/>
      <point x="510.71654" y="421.22711" type="line"/>
      <point x="511.99451" y="427.7022"/>
      <point x="518.44013" y="433"/>
      <point x="525.04013" y="433" type="curve" smooth="yes"/>
      <point x="544.49652" y="433" type="line" smooth="yes"/>
      <point x="574.49652" y="433"/>
      <point x="624.20526" y="476.53317"/>
      <point x="624.20526" y="502.53317" type="curve" smooth="yes"/>
      <point x="624.20526" y="528.5332"/>
      <point x="574.10419" y="569"/>
      <point x="544.10419" y="569" type="curve" smooth="yes"/>
      <point x="541.01439" y="569" type="line"/>
      <point x="539.88147" y="569"/>
      <point x="539.13632" y="569.90894"/>
      <point x="539.3585" y="571.01986" type="curve" smooth="yes"/>
      <point x="558.77423" y="668.09845" type="line" smooth="yes"/>
      <point x="564.77423" y="700.09845"/>
      <point x="527.62268" y="754.29065"/>
      <point x="499.62268" y="754.29065" type="curve" smooth="yes"/>
      <point x="472.62268" y="754.29065"/>
      <point x="424.46997" y="715.12238"/>
      <point x="418.46997" y="686.12238" type="curve" smooth="yes"/>
      <point x="397.39889" y="580.76697" type="line"/>
      <point x="396.10453" y="574.29514"/>
      <point x="389.6455" y="569"/>
      <point x="383.0455" y="569" type="curve" smooth="yes"/>
      <point x="338.09918" y="569" type="line"/>
      <point x="331.49918" y="569"/>
      <point x="327.14979" y="574.29681"/>
      <point x="328.43387" y="580.77069" type="curve" smooth="yes"/>
      <point x="345.75937" y="668.12006" type="line" smooth="yes"/>
      <point x="351.75937" y="700.12006"/>
      <point x="314.62268" y="754.29065"/>
      <point x="286.62268" y="754.29065" type="curve" smooth="yes"/>
      <point x="259.6227" y="754.29065"/>
      <point x="211.48662" y="715.13635"/>
      <point x="205.48662" y="686.13635" type="curve" smooth="yes"/>
      <point x="184.26046" y="580.7637" type="line"/>
      <point x="182.95714" y="574.29367"/>
      <point x="176.49079" y="569"/>
      <point x="169.89079" y="569" type="curve" smooth="yes"/>
      <point x="116.89579" y="569" type="line" smooth="yes"/>
      <point x="86.89579" y="569"/>
      <point x="36.79474" y="528.5332"/>
      <point x="36.79474" y="502.53317" type="curve" smooth="yes"/>
      <point x="36.79474" y="476.53317"/>
      <point x="86.50351" y="433"/>
      <point x="116.50351" y="433" type="curve" smooth="yes"/>
      <point x="144.95985" y="433" type="line"/>
      <point x="151.55985" y="433"/>
      <point x="155.91424" y="427.7022"/>
      <point x="154.63626" y="421.22711" type="curve" smooth="yes"/>
      <point x="129.08609" y="291.77289" type="line"/>
      <point x="127.80811" y="285.2978"/>
      <point x="121.36249" y="280"/>
      <point x="114.76249" y="280" type="curve" smooth="yes"/>
      <point x="95.69804" y="280" type="line" smooth="yes"/>
      <point x="65.69803" y="280"/>
      <point x="15.79803" y="238"/>
      <point x="15.79803" y="212" type="curve" smooth="yes"/>
      <point x="15.79803" y="186"/>
      <point x="65.69803" y="144"/>
      <point x="95.69804" y="144" type="curve" smooth="yes"/>
      <point x="98.68008" y="144" type="line"/>
      <point x="99.77349" y="144"/>
      <point x="100.5013" y="143.12108"/>
      <point x="100.29743" y="142.04683" type="curve" smooth="yes"/>
      <point x="80.27693" y="36.55416" type="line" smooth="yes"/>
    </contour>
    <contour>
      <point x="283.0265" y="280" type="line"/>
      <point x="276.4265" y="280"/>
      <point x="272.06602" y="285.299"/>
      <point x="273.33654" y="291.77556" type="curve" smooth="yes"/>
      <point x="298.73083" y="421.22444" type="line"/>
      <point x="300.00135" y="427.701"/>
      <point x="306.44086" y="433"/>
      <point x="313.04086" y="433" type="curve" smooth="yes"/>
      <point x="356.97348" y="433" type="line"/>
      <point x="363.57348" y="433"/>
      <point x="367.93396" y="427.701"/>
      <point x="366.66344" y="421.22444" type="curve" smooth="yes"/>
      <point x="341.26917" y="291.77556" type="line"/>
      <point x="339.99865" y="285.299"/>
      <point x="333.55914" y="280"/>
      <point x="326.95914" y="280" type="curve" smooth="yes"/>
    </contour>
  </outline>
</glyph>
<glyph name="dollar" format="2">
  <advance width="640"/>
  <unicode hex="0024"/>
  <outline>
    <contour>
      <point x="252" y="-112.59798"/>
      <point x="301" y="-162.59798"/>
      <point x="330" y="-162.59798" type="curve" smooth="yes"/>
      <point x="359" y="-162.59798"/>
      <point x="408" y="-112.59798"/>
      <point x="408" y="-84.59798" type="curve" smooth="yes"/>
      <point x="408" y="-25.35994" type="line"/>
      <point x="408" y="-18.75994"/>
      <point x="411.83994" y="-9.56325"/>
      <point x="416.53319" y="-4.92284" type="curve" smooth="yes"/>
      <point x="530.77335" y="4.84635"/>
      <point x="626.71039" y="91.54297"/>
      <point x="626.71039" y="202.88757" type="curve" smooth="yes"/>
      <point x="626.71039" y="300.88757"/>
      <point x="543.01263" y="386.58536"/>
      <point x="415.01263" y="414.58536" type="curve" smooth="yes"/>
      <point x="305.21304" y="438.76141" type="line" smooth="yes"/>
      <point x="264.70424" y="447.89017"/>
      <point x="248.88536" y="451.26794"/>
      <point x="242.76945" y="460.84323" type="curve" smooth="yes"/>
      <point x="238.16599" y="468.05057"/>
      <point x="239.05989" y="478.76923"/>
      <point x="239.05989" y="498.09464" type="curve" smooth="yes"/>
      <point x="239.05989" y="559.09467"/>
      <point x="253.13631" y="572.58276"/>
      <point x="338.13629" y="572.58276" type="curve" smooth="yes"/>
      <point x="404.13629" y="572.58276"/>
      <point x="455.73068" y="555.17487"/>
      <point x="494.73068" y="533.17487" type="curve" smooth="yes"/>
      <point x="564.73071" y="494.1749"/>
      <point x="635.93732" y="622.48248"/>
      <point x="585.93732" y="661.48248" type="curve" smooth="yes"/>
      <point x="541.8653" y="695.85864"/>
      <point x="461.65567" y="722.20074"/>
      <point x="408" y="727.92236" type="curve"/>
      <point x="408" y="789.59796" type="line" smooth="yes"/>
      <point x="408" y="817.59796"/>
      <point x="358" y="867.59796"/>
      <point x="330" y="867.59796" type="curve" smooth="yes"/>
      <point x="301" y="867.59796"/>
      <point x="252" y="817.59796"/>
      <point x="252" y="789.59796" type="curve" smooth="yes"/>
      <point x="252" y="730.65973" type="line"/>
      <point x="252" y="724.05973"/>
      <point x="248.17282" y="714.85017"/>
      <point x="243.49516" y="710.19405" type="curve" smooth="yes"/>
      <point x="123.30374" y="702.32446"/>
      <point x="28.83294" y="608.80481"/>
      <point x="28.83294" y="496.5202" type="curve" smooth="yes"/>
      <point x="28.83294" y="394.5202"/>
      <point x="113.65842" y="306.4603"/>
      <point x="234.65842" y="280.4603" type="curve" smooth="yes"/>
      <point x="342.31024" y="257.1019" type="line" smooth="yes"/>
      <point x="387.68878" y="247.2117"/>
      <point x="404.26413" y="243.60979"/>
      <point x="410.19131" y="233.66286" type="curve" smooth="yes"/>
      <point x="414.45224" y="226.51225"/>
      <point x="413.21039" y="216.08267"/>
      <point x="413.21039" y="197.68083" type="curve" smooth="yes"/>
      <point x="413.21042" y="196.73586" type="line" smooth="yes"/>
      <point x="413.21384" y="143.54565"/>
      <point x="413.2146" y="132.11267"/>
      <point x="313.8006" y="132.11267" type="curve" smooth="yes"/>
      <point x="228.80058" y="132.11267"/>
      <point x="157.40346" y="158.66934"/>
      <point x="120.40346" y="179.66934" type="curve" smooth="yes"/>
      <point x="51.40346" y="218.66934"/>
      <point x="-10.34522" y="66.07432"/>
      <point x="50.65478" y="31.07432" type="curve" smooth="yes"/>
      <point x="95.49432" y="5.45172"/>
      <point x="170.93918" y="-20.88344"/>
      <point x="252" y="-26.15579" type="curve"/>
      <point x="252" y="-84.59798" type="line" smooth="yes"/>
    </contour>
  </outline>
</glyph>
<glyph name="percent" format="2">
  <advance width="985"/>
  <unicode hex="0025"/>
  <outline>
    <contour>
      <point x="529.6835" y="72.04137"/>
      <point x="632" y="-54.02809"/>
      <point x="744" y="-54.02809" type="curve" smooth="yes"/>
      <point x="856" y="-54.02809"/>
      <point x="958.31653" y="72.04137"/>
      <point x="958.31653" y="206.04137" type="curve" smooth="yes"/>
      <point x="958.31653" y="339.04138"/>
      <point x="856" y="464.9068"/>
      <point x="744" y="464.9068" type="curve" smooth="yes"/>
      <point x="692.93555" y="464.9068"/>
      <point x="643.88403" y="438.74258"/>
      <point x="605.62494" y="397.66705" type="curve"/>
      <point x="756.2619" y="659.34265" type="line" smooth="yes"/>
      <point x="789.2619" y="717.34265"/>
      <point x="659.69305" y="794.18091"/>
      <point x="625.69305" y="734.18091" type="curve" smooth="yes"/>
      <point x="450.0635" y="429.56592" type="line"/>
      <point x="446.76688" y="423.84821"/>
      <point x="444.87818" y="424.5092"/>
      <point x="445.86639" y="431.0348" type="curve" smooth="yes"/>
      <point x="451.96323" y="445.09854"/>
      <point x="456.3165" y="472.40125"/>
      <point x="456.3165" y="500.04138" type="curve" smooth="yes"/>
      <point x="456.3165" y="633.04138"/>
      <point x="354" y="758.9068"/>
      <point x="242" y="758.9068" type="curve" smooth="yes"/>
      <point x="130" y="758.9068"/>
      <point x="27.6835" y="633.04138"/>
      <point x="27.6835" y="500.04138" type="curve" smooth="yes"/>
      <point x="27.6835" y="366.04138"/>
      <point x="130" y="239.97191"/>
      <point x="242" y="239.97191" type="curve" smooth="yes"/>
      <point x="292.20239" y="239.97191"/>
      <point x="340.45923" y="265.30118"/>
      <point x="378.42822" y="305.32047" type="curve"/>
      <point x="228.84911" y="45.88782" type="line" smooth="yes"/>
      <point x="194.84911" y="-13.11218"/>
      <point x="325.1954" y="-89.41245"/>
      <point x="359.1954" y="-30.41245" type="curve" smooth="yes"/>
      <point x="536.36406" y="277.35212" type="line"/>
      <point x="539.65682" y="283.07206"/>
      <point x="541.52363" y="282.41576"/>
      <point x="540.51252" y="275.89367" type="curve" smooth="yes"/>
      <point x="534.19153" y="261.56152"/>
      <point x="529.6835" y="233.95862"/>
      <point x="529.6835" y="206.04137" type="curve" smooth="yes"/>
    </contour>
    <contour>
      <point x="273.77194" y="421.45544"/>
      <point x="263" y="421"/>
      <point x="242" y="421" type="curve" smooth="yes"/>
      <point x="221" y="421"/>
      <point x="210.16066" y="421.25012"/>
      <point x="204.41966" y="425.483" type="curve" smooth="yes"/>
      <point x="196.95296" y="430.98825"/>
      <point x="196" y="449"/>
      <point x="196" y="500" type="curve" smooth="yes"/>
      <point x="196" y="551"/>
      <point x="196.95528" y="568.20099"/>
      <point x="204.40096" y="573.73291" type="curve" smooth="yes"/>
      <point x="210.13681" y="577.99451"/>
      <point x="221" y="578"/>
      <point x="242" y="578" type="curve" smooth="yes"/>
      <point x="263" y="578"/>
      <point x="273.7963" y="577.78937"/>
      <point x="279.54654" y="573.45197" type="curve" smooth="yes"/>
      <point x="287.05121" y="567.7912"/>
      <point x="288" y="550"/>
      <point x="288" y="500" type="curve" smooth="yes"/>
      <point x="288" y="449"/>
      <point x="287.05359" y="431.39697"/>
      <point x="279.52737" y="425.76349" type="curve" smooth="yes"/>
    </contour>
    <contour>
      <point x="775.77191" y="127.45545"/>
      <point x="765" y="127"/>
      <point x="744" y="127" type="curve" smooth="yes"/>
      <point x="723" y="127"/>
      <point x="712.16064" y="127.25012"/>
      <point x="706.41968" y="131.483" type="curve" smooth="yes"/>
      <point x="698.95294" y="136.98827"/>
      <point x="698" y="155"/>
      <point x="698" y="206" type="curve" smooth="yes"/>
      <point x="698" y="257"/>
      <point x="698.95526" y="274.20099"/>
      <point x="706.40094" y="279.73294" type="curve" smooth="yes"/>
      <point x="712.13678" y="283.99454"/>
      <point x="723" y="284"/>
      <point x="744" y="284" type="curve" smooth="yes"/>
      <point x="765" y="284"/>
      <point x="775.79633" y="283.78937"/>
      <point x="781.54651" y="279.45197" type="curve" smooth="yes"/>
      <point x="789.05121" y="273.79123"/>
      <point x="790" y="256"/>
      <point x="790" y="206" type="curve" smooth="yes"/>
      <point x="790" y="155"/>
      <point x="789.05359" y="137.39699"/>
      <point x="781.5274" y="131.7635" type="curve" smooth="yes"/>
    </contour>
  </outline>
</glyph>
<glyph name="ampersand" format="2">
  <advance width="766"/>
  <unicode hex="0026"/>
  <outline>
    <contour>
      <point x="39" y="174" type="curve" smooth="yes"/>
      <point x="39" y="60"/>
      <point x="166" y="-42"/>
      <point x="317" y="-42" type="curve" smooth="yes"/>
      <point x="397" y="-42"/>
      <point x="470" y="-11"/>
      <point x="528" y="43" type="curve"/>
      <point x="566" y="3" type="line" smooth="yes"/>
      <point x="588" y="-20"/>
      <point x="634" y="-47"/>
      <point x="664" y="-47" type="curve" smooth="yes"/>
      <point x="713" y="-47"/>
      <point x="756" y="42"/>
      <point x="718" y="80" type="curve" smooth="yes"/>
      <point x="643" y="156" type="line" smooth="yes"/>
      <point x="639" y="161"/>
      <point x="631" y="165"/>
      <point x="638" y="176" type="curve" smooth="yes"/>
      <point x="669" y="225"/>
      <point x="697" y="296"/>
      <point x="706" y="381" type="curve" smooth="yes"/>
      <point x="710" y="417"/>
      <point x="662" y="471"/>
      <point x="627" y="471" type="curve" smooth="yes"/>
      <point x="595" y="471"/>
      <point x="551" y="429"/>
      <point x="546" y="396" type="curve" smooth="yes"/>
      <point x="538" y="339"/>
      <point x="535" y="327"/>
      <point x="515" y="286" type="curve"/>
      <point x="438" y="368" type="line" smooth="yes"/>
      <point x="434" y="372"/>
      <point x="427" y="381"/>
      <point x="437" y="386" type="curve" smooth="yes"/>
      <point x="526" y="430"/>
      <point x="563" y="494"/>
      <point x="563" y="566" type="curve" smooth="yes"/>
      <point x="563" y="660"/>
      <point x="457" y="752"/>
      <point x="348" y="752" type="curve" smooth="yes"/>
      <point x="230" y="752"/>
      <point x="119" y="654"/>
      <point x="119" y="554" type="curve" smooth="yes"/>
      <point x="119" y="503"/>
      <point x="142" y="456"/>
      <point x="193" y="403" type="curve"/>
      <point x="107" y="353"/>
      <point x="39" y="262"/>
    </contour>
    <contour>
      <point x="382" y="124" type="curve" smooth="yes"/>
      <point x="372" y="120"/>
      <point x="361" y="121"/>
      <point x="333" y="121" type="curve" smooth="yes"/>
      <point x="251" y="121"/>
      <point x="239" y="137"/>
      <point x="239" y="188" type="curve" smooth="yes"/>
      <point x="239" y="213"/>
      <point x="238" y="211"/>
      <point x="241" y="240" type="curve" smooth="yes"/>
      <point x="244" y="266"/>
      <point x="285" y="291"/>
      <point x="298" y="278" type="curve" smooth="yes"/>
      <point x="408" y="164" type="line" smooth="yes"/>
      <point x="413" y="159"/>
      <point x="413" y="152"/>
      <point x="408" y="147" type="curve" smooth="yes"/>
      <point x="398" y="137"/>
      <point x="391" y="128"/>
    </contour>
    <contour>
      <point x="300" y="544" type="curve" smooth="yes"/>
      <point x="300" y="585"/>
      <point x="307" y="589"/>
      <point x="347" y="590" type="curve" smooth="yes"/>
      <point x="397" y="590"/>
      <point x="394" y="579"/>
      <point x="394" y="540" type="curve" smooth="yes"/>
      <point x="394" y="499"/>
      <point x="388" y="494"/>
      <point x="347" y="494" type="curve" smooth="yes"/>
      <point x="308" y="494"/>
      <point x="300" y="505"/>
    </contour>
  </outline>
</glyph>
<glyph name="quotesingle" format="2">
  <advance width="283"/>
  <unicode hex="0027"/>
  <outline>
    <contour>
      <point x="71.14641" y="412.40347"/>
      <point x="118.21626" y="366.75769"/>
      <point x="142.21626" y="366.75769" type="curve" smooth="yes"/>
      <point x="167.21625" y="366.75769"/>
      <point x="211.8708" y="412.57114"/>
      <point x="214.8708" y="442.57114" type="curve" smooth="yes"/>
      <point x="236.11357" y="649.40857" type="line" smooth="yes"/>
      <point x="240.11357" y="691.40857"/>
      <point x="182.15909" y="754.9267"/>
      <point x="142.15909" y="754.9267" type="curve" smooth="yes"/>
      <point x="101.15909" y="754.9267"/>
      <point x="42.87345" y="690.53497"/>
      <point x="46.87345" y="649.53497" type="curve" smooth="yes"/>
      <point x="68.14641" y="442.40347" type="line" smooth="yes"/>
    </contour>
  </outline>
</glyph>
<glyph name="parenleft" format="2">
  <advance width="398"/>
  <unicode hex="0028"/>
  <outline>
    <contour>
      <point x="90.96316" y="115"/>
      <point x="136.7534" y="-75.92857"/>
      <point x="219.7534" y="-205.92857" type="curve" smooth="yes"/>
      <point x="249.7534" y="-252.92857"/>
      <point x="381.11124" y="-200.02505"/>
      <point x="355.11124" y="-125.02505" type="curve" smooth="yes"/>
      <point x="310.11124" y="4.97495"/>
      <point x="282.48621" y="133"/>
      <point x="282.48621" y="263" type="curve" smooth="yes"/>
      <point x="282.48621" y="393"/>
      <point x="307.11124" y="522.02502"/>
      <point x="355.11124" y="651.02502" type="curve" smooth="yes"/>
      <point x="381.11124" y="726.02502"/>
      <point x="249.7534" y="778.92859"/>
      <point x="219.7534" y="731.92859" type="curve" smooth="yes"/>
      <point x="137.7534" y="600.92859"/>
      <point x="90.96316" y="411"/>
      <point x="90.96316" y="263" type="curve" smooth="yes"/>
    </contour>
  </outline>
</glyph>
<glyph name="parenright" format="2">
  <advance width="398"/>
  <unicode hex="0029"/>
  <outline>
    <contour>
      <point x="14.88878" y="-199.02505"/>
      <point x="149.2466" y="-252.92857"/>
      <point x="178.2466" y="-205.92857" type="curve" smooth="yes"/>
      <point x="259.2466" y="-75.92857"/>
      <point x="307.03683" y="115"/>
      <point x="307.03683" y="263" type="curve" smooth="yes"/>
      <point x="307.03683" y="411"/>
      <point x="259.2466" y="601.92859"/>
      <point x="178.2466" y="731.92859" type="curve" smooth="yes"/>
      <point x="149.2466" y="778.92859"/>
      <point x="16.88878" y="726.02502"/>
      <point x="42.88878" y="651.02502" type="curve" smooth="yes"/>
      <point x="87.88878" y="521.02502"/>
      <point x="115.51379" y="393"/>
      <point x="115.51379" y="263" type="curve" smooth="yes"/>
      <point x="115.51379" y="133"/>
      <point x="91.88878" y="3.97495"/>
      <point x="42.88878" y="-125.02505" type="curve" smooth="yes"/>
    </contour>
  </outline>
</glyph>
<glyph name="asterisk" format="2">
  <advance width="493"/>
  <unicode hex="002A"/>
  <outline>
    <contour>
      <point x="88.54114" y="403.09918"/>
      <point x="100.40301" y="333.35739"/>
      <point x="124.40301" y="318.35739" type="curve" smooth="yes"/>
      <point x="148.403" y="304.35739"/>
      <point x="214.62537" y="334.35382"/>
      <point x="227.62537" y="362.35382" type="curve" smooth="yes"/>
      <point x="240.91531" y="389.78199" type="line"/>
      <point x="243.79321" y="395.72149"/>
      <point x="248.46169" y="395.70193"/>
      <point x="251.2897" y="389.73851" type="curve" smooth="yes"/>
      <point x="264.38652" y="362.12131" type="line" smooth="yes"/>
      <point x="277.38654" y="334.12131"/>
      <point x="344.14127" y="304.8815"/>
      <point x="369.14127" y="319.8815" type="curve" smooth="yes"/>
      <point x="393.14127" y="333.8815"/>
      <point x="403.34607" y="403.27188"/>
      <point x="386.34607" y="428.27188" type="curve" smooth="yes"/>
      <point x="371.26346" y="451.36715" type="line"/>
      <point x="367.65465" y="456.89314"/>
      <point x="370.09491" y="461.13784"/>
      <point x="376.68625" y="460.79981" type="curve" smooth="yes"/>
      <point x="402.22516" y="459.49011" type="line" smooth="yes"/>
      <point x="433.22516" y="457.49011"/>
      <point x="489.02542" y="501.27072"/>
      <point x="489.02542" y="529.27069" type="curve" smooth="yes"/>
      <point x="489.02542" y="556.27069"/>
      <point x="432.92587" y="599.58411"/>
      <point x="401.92587" y="597.58411" type="curve" smooth="yes"/>
      <point x="377.0419" y="596.09533" type="line"/>
      <point x="370.45369" y="595.70116"/>
      <point x="368.03722" y="599.88598"/>
      <point x="371.67199" y="605.39493" type="curve" smooth="yes"/>
      <point x="386.31567" y="627.58929" type="line" smooth="yes"/>
      <point x="403.31567" y="653.58929"/>
      <point x="393.22446" y="723.68231"/>
      <point x="369.22446" y="738.68231" type="curve" smooth="yes"/>
      <point x="345.22446" y="752.68231"/>
      <point x="277.35092" y="722.70306"/>
      <point x="264.35092" y="694.70306" type="curve" smooth="yes"/>
      <point x="251.68544" y="668.27077" type="line"/>
      <point x="248.83345" y="662.31878"/>
      <point x="244.16655" y="662.31878"/>
      <point x="241.31456" y="668.27077" type="curve" smooth="yes"/>
      <point x="228.68941" y="694.6189" type="line" smooth="yes"/>
      <point x="215.68941" y="722.6189"/>
      <point x="148.403" y="752.64258"/>
      <point x="125.40301" y="738.64258" type="curve" smooth="yes"/>
      <point x="101.40301" y="724.64258"/>
      <point x="89.55383" y="654.97461"/>
      <point x="106.55383" y="628.97461" type="curve" smooth="yes"/>
      <point x="121.77116" y="605.4353" type="line"/>
      <point x="125.35429" y="599.89263"/>
      <point x="122.89559" y="595.68023"/>
      <point x="116.30737" y="596.0744" type="curve" smooth="yes"/>
      <point x="91.07414" y="597.58411" type="line" smooth="yes"/>
      <point x="60.07414" y="599.58411"/>
      <point x="3.97458" y="556.27069"/>
      <point x="3.97458" y="529.27069" type="curve" smooth="yes"/>
      <point x="3.97458" y="501.27072"/>
      <point x="59.77483" y="457.49011"/>
      <point x="90.77483" y="459.49011" type="curve" smooth="yes"/>
      <point x="115.27911" y="460.74675" type="line"/>
      <point x="121.87045" y="461.08477"/>
      <point x="124.3107" y="456.84007"/>
      <point x="120.70189" y="451.31408" type="curve" smooth="yes"/>
      <point x="105.54114" y="428.09918" type="line" smooth="yes"/>
    </contour>
  </outline>
</glyph>
<glyph name="plus" format="2">
  <advance width="640"/>
  <unicode hex="002B"/>
  <outline>
    <contour>
      <point x="246" y="37.57799"/>
      <point x="290" y="-8.03071"/>
      <point x="320" y="-8.03071" type="curve" smooth="yes"/>
      <point x="350" y="-8.03071"/>
      <point x="394" y="37.57799"/>
      <point x="394" y="67.57799" type="curve" smooth="yes"/>
      <point x="394" y="203" type="line"/>
      <point x="394" y="209.6"/>
      <point x="399.4" y="215"/>
      <point x="406" y="215" type="curve" smooth="yes"/>
      <point x="538.41412" y="215" type="line" smooth="yes"/>
      <point x="567.41412" y="215"/>
      <point x="612.05048" y="259"/>
      <point x="612.05048" y="287" type="curve" smooth="yes"/>
      <point x="612.05048" y="315"/>
      <point x="567.41412" y="359"/>
      <point x="538.41412" y="359" type="curve" smooth="yes"/>
      <point x="406" y="359" type="line"/>
      <point x="399.4" y="359"/>
      <point x="394" y="364.4"/>
      <point x="394" y="371" type="curve" smooth="yes"/>
      <point x="394" y="501.59799" type="line" smooth="yes"/>
      <point x="394" y="530.59796"/>
      <point x="350" y="575.59796"/>
      <point x="320" y="575.59796" type="curve" smooth="yes"/>
      <point x="290" y="575.59796"/>
      <point x="246" y="530.59796"/>
      <point x="246" y="501.59799" type="curve" smooth="yes"/>
      <point x="246" y="371" type="line"/>
      <point x="246" y="364.4"/>
      <point x="240.6" y="359"/>
      <point x="234" y="359" type="curve" smooth="yes"/>
      <point x="101.58588" y="359" type="line" smooth="yes"/>
      <point x="73.58588" y="359"/>
      <point x="27.94952" y="315"/>
      <point x="27.94952" y="287" type="curve" smooth="yes"/>
      <point x="27.94952" y="259"/>
      <point x="73.58588" y="215"/>
      <point x="101.58588" y="215" type="curve" smooth="yes"/>
      <point x="234" y="215" type="line"/>
      <point x="240.6" y="215"/>
      <point x="246" y="209.6"/>
      <point x="246" y="203" type="curve" smooth="yes"/>
      <point x="246" y="67.57799" type="line" smooth="yes"/>
    </contour>
  </outline>
</glyph>
<glyph name="comma" format="2">
  <advance width="288"/>
  <unicode hex="002C"/>
  <outline>
    <contour>
      <point x="36.92319" y="-119.99985"/>
      <point x="139.04578" y="-195.94266"/>
      <point x="174.04578" y="-152.94266" type="curve" smooth="yes"/>
      <point x="221.04578" y="-94.94266"/>
      <point x="250.79269" y="9.44972"/>
      <point x="250.79269" y="57.44972" type="curve" smooth="yes"/>
      <point x="250.79269" y="115.44972"/>
      <point x="192.13359" y="184.4361"/>
      <point x="146.13359" y="184.4361" type="curve" smooth="yes"/>
      <point x="100.13359" y="184.4361"/>
      <point x="31.03631" y="113.89418"/>
      <point x="31.03631" y="70.89418" type="curve" smooth="yes"/>
      <point x="31.03631" y="28.83193"/>
      <point x="63.50778" y="-5.95028"/>
      <point x="105.42702" y="-9.55181" type="curve"/>
      <point x="100.76786" y="-29.18736"/>
      <point x="90.06409" y="-53.51332"/>
      <point x="73.92319" y="-73.99985" type="curve" smooth="yes"/>
    </contour>
  </outline>
</glyph>
<glyph name="hyphen" format="2">
  <advance width="474"/>
  <unicode hex="002D"/>
  <outline>
    <contour>
      <point x="40.00408" y="240"/>
      <point x="90.56408" y="190"/>
      <point x="119.56408" y="190" type="curve" smooth="yes"/>
      <point x="355.59799" y="190" type="line" smooth="yes"/>
      <point x="383.59799" y="190"/>
      <point x="433.59799" y="240"/>
      <point x="433.59799" y="268" type="curve" smooth="yes"/>
      <point x="433.59799" y="297"/>
      <point x="383.59799" y="346"/>
      <point x="355.59799" y="346" type="curve" smooth="yes"/>
      <point x="119.56408" y="346" type="line" smooth="yes"/>
      <point x="90.56408" y="346"/>
      <point x="40.00408" y="297"/>
      <point x="40.00408" y="268" type="curve" smooth="yes"/>
    </contour>
  </outline>
</glyph>
<glyph name="period" format="2">
  <advance width="288"/>
  <unicode hex="002E"/>
  <outline>
    <contour>
      <point x="30.13266" y="26.26936"/>
      <point x="99.13332" y="-44.7313"/>
      <point x="145.13332" y="-44.7313" type="curve" smooth="yes"/>
      <point x="191.13333" y="-44.7313"/>
      <point x="258.59888" y="26.26757"/>
      <point x="258.59888" y="70.26757" type="curve" smooth="yes"/>
      <point x="258.59888" y="113.26757"/>
      <point x="191.13153" y="182.20158"/>
      <point x="145.13152" y="182.20158" type="curve" smooth="yes"/>
      <point x="99.13152" y="182.20158"/>
      <point x="30.13266" y="113.26936"/>
      <point x="30.13266" y="70.26936" type="curve" smooth="yes"/>
    </contour>
  </outline>
</glyph>
<glyph name="slash" format="2">
  <advance width="353"/>
  <unicode hex="002F"/>
  <outline>
    <contour>
      <point x="-42.34468" y="-84.39801"/>
      <point x="106.1815" y="-126.91141"/>
      <point x="126.1815" y="-63.91141" type="curve" smooth="yes"/>
      <point x="374.41864" y="707.66553" type="line" smooth="yes"/>
      <point x="395.41864" y="772.66553"/>
      <point x="247.74702" y="815.65283"/>
      <point x="226.74702" y="751.65283" type="curve" smooth="yes"/>
      <point x="-21.34468" y="-18.39801" type="line" smooth="yes"/>
    </contour>
  </outline>
</glyph>
<glyph name="zero" format="2">
  <advance width="640"/>
  <unicode hex="0030"/>
  <outline>
    <contour>
      <point x="28.677" y="120.06701"/>
      <point x="153.03139" y="-58.59056"/>
      <point x="320.0314" y="-58.59056" type="curve" smooth="yes"/>
      <point x="487.0314" y="-58.59056"/>
      <point x="611.32312" y="120.11169"/>
      <point x="611.32312" y="355.11169" type="curve" smooth="yes"/>
      <point x="611.32312" y="590.11169"/>
      <point x="487.96838" y="763.23505"/>
      <point x="319.96838" y="763.23505" type="curve" smooth="yes"/>
      <point x="152.96838" y="763.23505"/>
      <point x="28.677" y="590.06702"/>
      <point x="28.677" y="354.06702" type="curve" smooth="yes"/>
    </contour>
    <contour>
      <point x="421.48541" y="175.87524"/>
      <point x="410" y="156.4827"/>
      <point x="320" y="156.4827" type="curve" smooth="yes"/>
      <point x="230" y="156.4827"/>
      <point x="218.51459" y="175.87524"/>
      <point x="218.51459" y="354.87524" type="curve" smooth="yes"/>
      <point x="218.51459" y="532.87524"/>
      <point x="230" y="549.45251"/>
      <point x="320" y="549.45251" type="curve" smooth="yes"/>
      <point x="411" y="549.45251"/>
      <point x="421.48541" y="533.87524"/>
      <point x="421.48541" y="354.87524" type="curve" smooth="yes"/>
    </contour>
  </outline>
</glyph>
<glyph name="one" format="2">
  <advance width="640"/>
  <unicode hex="0031"/>
  <outline>
    <contour>
      <point x="80.64618" y="20.38047"/>
      <point x="129.55221" y="-28"/>
      <point x="164.55222" y="-28" type="curve" smooth="yes"/>
      <point x="529.44778" y="-28" type="line" smooth="yes"/>
      <point x="564.44781" y="-28"/>
      <point x="613.35382" y="19.38047"/>
      <point x="613.35382" y="54.38047" type="curve" smooth="yes"/>
      <point x="613.35382" y="88.38047"/>
      <point x="564.14087" y="134"/>
      <point x="529.14087" y="134" type="curve" smooth="yes"/>
      <point x="456" y="134" type="line"/>
      <point x="449.4" y="134"/>
      <point x="444" y="139.4"/>
      <point x="444" y="146" type="curve" smooth="yes"/>
      <point x="444" y="675.59796" type="line" smooth="yes"/>
      <point x="444" y="709.59796"/>
      <point x="402.03024" y="745.56775"/>
      <point x="374.03024" y="745.56775" type="curve" smooth="yes"/>
      <point x="351.03024" y="745.56775"/>
      <point x="304.74951" y="725.30621"/>
      <point x="277.74951" y="709.30621" type="curve" smooth="yes"/>
      <point x="114.51244" y="611.12738" type="line" smooth="yes"/>
      <point x="50.51243" y="573.12738"/>
      <point x="129.50159" y="430.91183"/>
      <point x="192.50159" y="468.91183" type="curve" smooth="yes"/>
      <point x="249.73481" y="503.56325" type="line"/>
      <point x="255.38067" y="506.98149"/>
      <point x="260" y="504.37823"/>
      <point x="260" y="497.77823" type="curve" smooth="yes"/>
      <point x="260" y="146" type="line"/>
      <point x="260" y="139.4"/>
      <point x="254.6" y="134"/>
      <point x="248" y="134" type="curve" smooth="yes"/>
      <point x="164.85915" y="134" type="line" smooth="yes"/>
      <point x="129.85915" y="134"/>
      <point x="80.64618" y="88.38047"/>
      <point x="80.64618" y="54.38047" type="curve" smooth="yes"/>
    </contour>
  </outline>
</glyph>
<glyph name="two" format="2">
  <advance width="640"/>
  <unicode hex="0032"/>
  <outline>
    <contour>
      <point x="57.3196" y="14.0846"/>
      <point x="98.95399" y="-28"/>
      <point x="141.95399" y="-28" type="curve" smooth="yes"/>
      <point x="532.44781" y="-28" type="line" smooth="yes"/>
      <point x="568.44781" y="-28"/>
      <point x="616.35382" y="19.38047"/>
      <point x="616.35382" y="54.38047" type="curve" smooth="yes"/>
      <point x="616.35382" y="88.38047"/>
      <point x="568.14087" y="134"/>
      <point x="532.14087" y="134" type="curve" smooth="yes"/>
      <point x="337.26767" y="134" type="line"/>
      <point x="330.66767" y="134"/>
      <point x="329.00569" y="137.89708"/>
      <point x="333.57437" y="142.66018" type="curve" smooth="yes"/>
      <point x="438.11389" y="251.64819" type="line" smooth="yes"/>
      <point x="525.11389" y="342.64819"/>
      <point x="575.966" y="440.16431"/>
      <point x="575.966" y="525.16431" type="curve" smooth="yes"/>
      <point x="575.966" y="651.16431"/>
      <point x="464.59006" y="746.05347"/>
      <point x="313.59006" y="746.05347" type="curve" smooth="yes"/>
      <point x="241.59004" y="746.05347"/>
      <point x="118.32251" y="711.09375"/>
      <point x="61.32251" y="673.09375" type="curve" smooth="yes"/>
      <point x="2.32251" y="633.09375"/>
      <point x="81.61535" y="491.61044"/>
      <point x="140.61535" y="531.61041" type="curve" smooth="yes"/>
      <point x="186.61536" y="562.61041"/>
      <point x="238.75894" y="575.80042"/>
      <point x="284.75894" y="575.80042" type="curve" smooth="yes"/>
      <point x="364.75894" y="575.80042"/>
      <point x="378.80377" y="564.81201"/>
      <point x="378.80377" y="497.81204" type="curve" smooth="yes"/>
      <point x="378.80377" y="444.81204"/>
      <point x="365.90378" y="418.30856"/>
      <point x="304.90378" y="354.30856" type="curve" smooth="yes"/>
      <point x="103.96088" y="140.36935" type="line" smooth="yes"/>
      <point x="80.96089" y="116.36935"/>
      <point x="57.3196" y="74.08459"/>
      <point x="57.3196" y="51.0846" type="curve" smooth="yes"/>
    </contour>
  </outline>
</glyph>
<glyph name="three" format="2">
  <advance width="640"/>
  <unicode hex="0033"/>
  <outline>
    <contour>
      <point x="107.91848" y="-9.88786"/>
      <point x="240.45659" y="-40.64905"/>
      <point x="312.4566" y="-40.64905" type="curve" smooth="yes"/>
      <point x="470.4566" y="-40.64905"/>
      <point x="599.68237" y="63.00518"/>
      <point x="599.68237" y="188.00517" type="curve" smooth="yes"/>
      <point x="599.68237" y="275.25049"/>
      <point x="548.05237" y="344.76904"/>
      <point x="465.98383" y="366.96869" type="curve"/>
      <point x="533.52155" y="392.69571"/>
      <point x="577.51453" y="457.88153"/>
      <point x="577.51453" y="533.72528" type="curve" smooth="yes"/>
      <point x="577.51453" y="650.72528"/>
      <point x="460.31302" y="745.87482"/>
      <point x="314.31302" y="745.87482" type="curve" smooth="yes"/>
      <point x="240.313" y="745.87482"/>
      <point x="121.50063" y="712.38318"/>
      <point x="64.50062" y="675.38318" type="curve" smooth="yes"/>
      <point x="1.50062" y="634.38318"/>
      <point x="81.1953" y="496.97888"/>
      <point x="142.1953" y="533.97888" type="curve" smooth="yes"/>
      <point x="194.1953" y="564.97888"/>
      <point x="240.87401" y="576.15723"/>
      <point x="290.87402" y="576.15723" type="curve" smooth="yes"/>
      <point x="367.87402" y="576.15723"/>
      <point x="371.87198" y="573.17566"/>
      <point x="371.87198" y="512.17566" type="curve" smooth="yes"/>
      <point x="371.87198" y="446.17563"/>
      <point x="358.68518" y="437"/>
      <point x="283.68518" y="437" type="curve" smooth="yes"/>
      <point x="230.9938" y="437" type="line" smooth="yes"/>
      <point x="193.9938" y="437"/>
      <point x="143.8806" y="389"/>
      <point x="143.8806" y="356" type="curve" smooth="yes"/>
      <point x="143.8806" y="323"/>
      <point x="193.9938" y="275"/>
      <point x="230.9938" y="275" type="curve" smooth="yes"/>
      <point x="296.6098" y="275" type="line" smooth="yes"/>
      <point x="381.6098" y="275"/>
      <point x="391.12045" y="270.5759"/>
      <point x="391.12045" y="203.5759" type="curve" smooth="yes"/>
      <point x="391.12045" y="134.5759"/>
      <point x="383.63412" y="128.60144"/>
      <point x="295.63412" y="128.60144" type="curve" smooth="yes"/>
      <point x="242.63412" y="128.60144"/>
      <point x="186.12695" y="141.56192"/>
      <point x="131.12695" y="171.56192" type="curve" smooth="yes"/>
      <point x="61.12696" y="209.56192"/>
      <point x="-15.08152" y="72.11214"/>
      <point x="50.91848" y="28.11214" type="curve" smooth="yes"/>
    </contour>
  </outline>
</glyph>
<glyph name="four" format="2">
  <advance width="640"/>
  <unicode hex="0034"/>
  <outline>
    <contour>
      <point x="341" y="3.40202"/>
      <point x="393" y="-47.59798"/>
      <point x="433" y="-47.59798" type="curve" smooth="yes"/>
      <point x="473" y="-47.59798"/>
      <point x="525" y="3.40202"/>
      <point x="525" y="44.40202" type="curve" smooth="yes"/>
      <point x="525" y="94" type="line"/>
      <point x="525" y="100.6"/>
      <point x="530.4" y="106"/>
      <point x="537" y="106" type="curve" smooth="yes"/>
      <point x="556.86633" y="106" type="line" smooth="yes"/>
      <point x="594.86633" y="106"/>
      <point x="645.50787" y="152"/>
      <point x="645.50787" y="187" type="curve" smooth="yes"/>
      <point x="645.50787" y="222"/>
      <point x="594.86633" y="268"/>
      <point x="556.86633" y="268" type="curve" smooth="yes"/>
      <point x="537" y="268" type="line"/>
      <point x="530.4" y="268"/>
      <point x="525" y="273.4"/>
      <point x="525" y="280" type="curve" smooth="yes"/>
      <point x="525" y="660.07251" type="line" smooth="yes"/>
      <point x="525" y="704.07251"/>
      <point x="476.80579" y="748.81305"/>
      <point x="441.80579" y="748.81305" type="curve" smooth="yes"/>
      <point x="411.80579" y="748.81305"/>
      <point x="366.311" y="718.76624"/>
      <point x="347.311" y="690.76624" type="curve" smooth="yes"/>
      <point x="68.53358" y="286.84421" type="line" smooth="yes"/>
      <point x="39.53358" y="244.84421"/>
      <point x="19.38963" y="200.47549"/>
      <point x="19.38963" y="178.47549" type="curve" smooth="yes"/>
      <point x="19.38963" y="142.47549"/>
      <point x="71.37706" y="106"/>
      <point x="112.37706" y="106" type="curve" smooth="yes"/>
      <point x="329" y="106" type="line"/>
      <point x="335.6" y="106"/>
      <point x="341" y="100.6"/>
      <point x="341" y="94" type="curve" smooth="yes"/>
      <point x="341" y="44.40202" type="line" smooth="yes"/>
    </contour>
    <contour>
      <point x="341.24056" y="279.99759" type="line"/>
      <point x="341.10825" y="273.39891"/>
      <point x="335.6" y="268"/>
      <point x="329" y="268" type="curve" smooth="yes"/>
      <point x="250.18214" y="268" type="line"/>
      <point x="243.58214" y="268"/>
      <point x="241.14981" y="272.51143"/>
      <point x="244.77695" y="278.0254" type="curve" smooth="yes"/>
      <point x="337.63774" y="419.19201" type="line"/>
      <point x="341.26488" y="424.70598"/>
      <point x="344.12429" y="423.81849"/>
      <point x="343.99198" y="417.21982" type="curve" smooth="yes"/>
    </contour>
  </outline>
</glyph>
<glyph name="five" format="2">
  <advance width="640"/>
  <unicode hex="0035"/>
  <outline>
    <contour>
      <point x="136.53376" y="-9.71367"/>
      <point x="262.47185" y="-41.06042"/>
      <point x="333.47186" y="-41.06042" type="curve" smooth="yes"/>
      <point x="491.47186" y="-41.06042"/>
      <point x="622.35718" y="82.87034"/>
      <point x="622.35718" y="221.87035" type="curve" smooth="yes"/>
      <point x="622.35718" y="355.87033"/>
      <point x="502.07449" y="479.7373"/>
      <point x="369.07449" y="479.7373" type="curve" smooth="yes"/>
      <point x="319.40985" y="479.7373"/>
      <point x="293.40472" y="471.94687"/>
      <point x="259" y="446.15652" type="curve"/>
      <point x="259" y="559" type="line"/>
      <point x="259" y="565.6"/>
      <point x="264.4" y="571"/>
      <point x="271" y="571" type="curve" smooth="yes"/>
      <point x="502.1492" y="571" type="line" smooth="yes"/>
      <point x="538.14917" y="571"/>
      <point x="587.73407" y="618"/>
      <point x="587.73407" y="652" type="curve" smooth="yes"/>
      <point x="587.73407" y="686"/>
      <point x="538.14917" y="733"/>
      <point x="502.1492" y="733" type="curve" smooth="yes"/>
      <point x="150.40202" y="733" type="line" smooth="yes"/>
      <point x="114.40202" y="733"/>
      <point x="78" y="696.59796"/>
      <point x="78" y="660.59796" type="curve" smooth="yes"/>
      <point x="78" y="310.07266" type="line" smooth="yes"/>
      <point x="78" y="279.07266"/>
      <point x="117.04448" y="239.89265"/>
      <point x="151.04448" y="239.89265" type="curve" smooth="yes"/>
      <point x="172.04448" y="239.89265"/>
      <point x="208.64638" y="259.09726"/>
      <point x="220.64638" y="270.09726" type="curve" smooth="yes"/>
      <point x="258.64638" y="305.09726"/>
      <point x="281.26187" y="310.3446"/>
      <point x="324.26187" y="310.3446" type="curve" smooth="yes"/>
      <point x="403.26187" y="310.3446"/>
      <point x="417.10477" y="292.96381"/>
      <point x="417.10477" y="218.96379" type="curve" smooth="yes"/>
      <point x="417.10477" y="145.96379"/>
      <point x="400.70624" y="129.05467"/>
      <point x="316.70624" y="129.05467" type="curve" smooth="yes"/>
      <point x="258.70625" y="129.05467"/>
      <point x="202.99661" y="145.90413"/>
      <point x="153.99661" y="173.90413" type="curve" smooth="yes"/>
      <point x="87.9966" y="211.90413"/>
      <point x="11.53376" y="70.28633"/>
      <point x="75.53376" y="29.28633" type="curve" smooth="yes"/>
    </contour>
  </outline>
</glyph>
<glyph name="six" format="2">
  <advance width="640"/>
  <unicode hex="0036"/>
  <outline>
    <contour>
      <point x="36.22473" y="118.27547"/>
      <point x="168.56831" y="-52.31671"/>
      <point x="343.56833" y="-52.31671" type="curve" smooth="yes"/>
      <point x="480.56833" y="-52.31671"/>
      <point x="617.72266" y="88.36752"/>
      <point x="617.72266" y="225.36752" type="curve" smooth="yes"/>
      <point x="617.72266" y="356.36752"/>
      <point x="495.38144" y="488.50208"/>
      <point x="374.38144" y="488.50208" type="curve" smooth="yes"/>
      <point x="293.16547" y="488.50208"/>
      <point x="250.92383" y="461.28995"/>
      <point x="222.79465" y="389.5058" type="curve"/>
      <point x="229.3309" y="524.34491"/>
      <point x="276.70554" y="574.66296"/>
      <point x="383.95633" y="574.66296" type="curve" smooth="yes"/>
      <point x="423.95633" y="574.66296"/>
      <point x="465.08716" y="565.04437"/>
      <point x="510.08716" y="538.04437" type="curve" smooth="yes"/>
      <point x="574.08716" y="500.04434"/>
      <point x="644.10022" y="642.31183"/>
      <point x="592.10022" y="677.31183" type="curve" smooth="yes"/>
      <point x="539.10022" y="713.31183"/>
      <point x="423.13766" y="747.34595"/>
      <point x="365.13766" y="747.34595" type="curve" smooth="yes"/>
      <point x="175.13768" y="747.34595"/>
      <point x="36.22473" y="579.27545"/>
      <point x="36.22473" y="340.27548" type="curve" smooth="yes"/>
    </contour>
    <contour>
      <point x="421.67944" y="144.07381"/>
      <point x="411" y="132.92795"/>
      <point x="339" y="132.92795" type="curve" smooth="yes"/>
      <point x="267" y="132.92795"/>
      <point x="256.32054" y="144.07381"/>
      <point x="256.32054" y="221.07381" type="curve" smooth="yes"/>
      <point x="256.32054" y="298.07382"/>
      <point x="267" y="309.90298"/>
      <point x="339" y="309.90298" type="curve" smooth="yes"/>
      <point x="411" y="309.90298"/>
      <point x="421.67944" y="298.07382"/>
      <point x="421.67944" y="221.07381" type="curve" smooth="yes"/>
    </contour>
  </outline>
</glyph>
<glyph name="seven" format="2">
  <advance width="640"/>
  <unicode hex="0037"/>
  <outline>
    <contour>
      <point x="89.01806" y="27.49174"/>
      <point x="134.65398" y="-46.25605"/>
      <point x="181.65399" y="-46.25605" type="curve" smooth="yes"/>
      <point x="217.65399" y="-46.25605"/>
      <point x="271.03189" y="-15.203"/>
      <point x="286.03189" y="13.797" type="curve" smooth="yes"/>
      <point x="575.06696" y="566.42389" type="line" smooth="yes"/>
      <point x="588.06696" y="591.42389"/>
      <point x="602.92627" y="630.13245"/>
      <point x="602.92627" y="660.13245" type="curve" smooth="yes"/>
      <point x="602.92627" y="694.13245"/>
      <point x="556.61292" y="733"/>
      <point x="520.61292" y="733" type="curve" smooth="yes"/>
      <point x="111.6991" y="733" type="line" smooth="yes"/>
      <point x="75.6991" y="733"/>
      <point x="26.46583" y="685.81079"/>
      <point x="26.46583" y="650.81079" type="curve" smooth="yes"/>
      <point x="26.46583" y="616.81079"/>
      <point x="75.85081" y="570"/>
      <point x="111.85081" y="570" type="curve" smooth="yes"/>
      <point x="365.00659" y="570" type="line"/>
      <point x="371.60659" y="570"/>
      <point x="374.47152" y="565.23204"/>
      <point x="371.37309" y="559.40454" type="curve" smooth="yes"/>
      <point x="113.01806" y="73.49174" type="line" smooth="yes"/>
    </contour>
  </outline>
</glyph>
<glyph name="eight" format="2">
  <advance width="640"/>
  <unicode hex="0038"/>
  <outline>
    <contour>
      <point x="19.64501" y="58.05292"/>
      <point x="156" y="-45.2257"/>
      <point x="320" y="-45.2257" type="curve" smooth="yes"/>
      <point x="484" y="-45.2257"/>
      <point x="620.24799" y="57.97123"/>
      <point x="620.24799" y="183.97124" type="curve" smooth="yes"/>
      <point x="620.24799" y="268.08356"/>
      <point x="568.39636" y="338.3576"/>
      <point x="496.23318" y="362.88123" type="curve"/>
      <point x="558.87524" y="389.40741"/>
      <point x="602.20087" y="456.67822"/>
      <point x="602.20087" y="531.58356" type="curve" smooth="yes"/>
      <point x="602.20087" y="650.58356"/>
      <point x="469.96487" y="750.46045"/>
      <point x="319.96487" y="750.46045" type="curve" smooth="yes"/>
      <point x="170.96486" y="750.46045"/>
      <point x="38.77591" y="650.50183"/>
      <point x="38.77591" y="531.50183" type="curve" smooth="yes"/>
      <point x="38.77591" y="457.5022"/>
      <point x="81.9736" y="391.23987"/>
      <point x="145.11636" y="363.13873" type="curve"/>
      <point x="72.78961" y="339.11359"/>
      <point x="19.64501" y="268.84439"/>
      <point x="19.64501" y="184.05292" type="curve" smooth="yes"/>
    </contour>
    <contour>
      <point x="416.67657" y="126.89721"/>
      <point x="414" y="125.20667"/>
      <point x="320" y="125.20667" type="curve" smooth="yes"/>
      <point x="227" y="125.20667"/>
      <point x="223.32341" y="126.89721"/>
      <point x="223.32341" y="198.8972" type="curve" smooth="yes"/>
      <point x="223.32341" y="270.89722"/>
      <point x="227" y="271.91168"/>
      <point x="320" y="271.91168" type="curve" smooth="yes"/>
      <point x="414" y="271.91168"/>
      <point x="416.67657" y="270.89722"/>
      <point x="416.67657" y="198.8972" type="curve" smooth="yes"/>
    </contour>
    <contour>
      <point x="402.01343" y="446.79236"/>
      <point x="399.07159" y="443.50748"/>
      <point x="320.07159" y="443.50748" type="curve" smooth="yes"/>
      <point x="241.07158" y="443.50748"/>
      <point x="238.77927" y="446.79303"/>
      <point x="238.77927" y="511.79303" type="curve" smooth="yes"/>
      <point x="238.77927" y="575.79303"/>
      <point x="241.07077" y="578.77722"/>
      <point x="320.07077" y="578.77722" type="curve" smooth="yes"/>
      <point x="399.07077" y="578.77722"/>
      <point x="402.01343" y="575.79236"/>
      <point x="402.01343" y="511.79236" type="curve" smooth="yes"/>
    </contour>
  </outline>
</glyph>
<glyph name="nine" format="2">
  <advance width="640"/>
  <unicode hex="0039"/>
  <outline>
    <contour>
      <point x="100.8998" y="-8.3118"/>
      <point x="216.86232" y="-42.34595"/>
      <point x="274.86232" y="-42.34595" type="curve" smooth="yes"/>
      <point x="464.86234" y="-42.34595"/>
      <point x="603.77527" y="125.72453"/>
      <point x="603.77527" y="364.72452" type="curve" smooth="yes"/>
      <point x="603.77527" y="586.72455"/>
      <point x="471.43167" y="757.31671"/>
      <point x="296.43167" y="757.31671" type="curve" smooth="yes"/>
      <point x="159.43169" y="757.31671"/>
      <point x="22.27733" y="616.63245"/>
      <point x="22.27733" y="479.63248" type="curve" smooth="yes"/>
      <point x="22.27733" y="348.63248"/>
      <point x="144.61857" y="216.49794"/>
      <point x="265.61856" y="216.49794" type="curve" smooth="yes"/>
      <point x="346.83453" y="216.49794"/>
      <point x="389.07617" y="243.71005"/>
      <point x="417.20535" y="315.4942" type="curve"/>
      <point x="410.6691" y="180.65506"/>
      <point x="363.29446" y="130.33702"/>
      <point x="256.04367" y="130.33702" type="curve" smooth="yes"/>
      <point x="216.04367" y="130.33702"/>
      <point x="174.91286" y="139.95564"/>
      <point x="129.91285" y="166.95564" type="curve" smooth="yes"/>
      <point x="65.91285" y="204.95564"/>
      <point x="-4.1002" y="62.68819"/>
      <point x="47.8998" y="27.6882" type="curve" smooth="yes"/>
    </contour>
    <contour>
      <point x="384.67944" y="407.92618"/>
      <point x="374" y="396.09702"/>
      <point x="302" y="396.09702" type="curve" smooth="yes"/>
      <point x="230" y="396.09702"/>
      <point x="219.32054" y="407.92618"/>
      <point x="219.32054" y="484.92618" type="curve" smooth="yes"/>
      <point x="219.32054" y="561.92621"/>
      <point x="230" y="573.07208"/>
      <point x="302" y="573.07208" type="curve" smooth="yes"/>
      <point x="374" y="573.07208"/>
      <point x="384.67944" y="561.92621"/>
      <point x="384.67944" y="484.92618" type="curve" smooth="yes"/>
    </contour>
  </outline>
</glyph>
<glyph name="colon" format="2">
  <advance width="288"/>
  <unicode hex="003A"/>
  <outline>
    <contour>
      <point x="30.13266" y="26.26936"/>
      <point x="99.13332" y="-44.7313"/>
      <point x="145.13332" y="-44.7313" type="curve" smooth="yes"/>
      <point x="191.13333" y="-44.7313"/>
      <point x="258.59888" y="26.26757"/>
      <point x="258.59888" y="70.26757" type="curve" smooth="yes"/>
      <point x="258.59888" y="113.26757"/>
      <point x="191.13153" y="182.20158"/>
      <point x="145.13152" y="182.20158" type="curve" smooth="yes"/>
      <point x="99.13152" y="182.20158"/>
      <point x="30.13266" y="113.26936"/>
      <point x="30.13266" y="70.26936" type="curve" smooth="yes"/>
    </contour>
    <contour>
      <point x="30.13357" y="377"/>
      <point x="99.13243" y="306.53445"/>
      <point x="145.13243" y="306.53445" type="curve" smooth="yes"/>
      <point x="191.13243" y="306.53445"/>
      <point x="258.59798" y="377"/>
      <point x="258.59798" y="420" type="curve" smooth="yes"/>
      <point x="258.59798" y="464"/>
      <point x="191.13243" y="533.46558"/>
      <point x="145.13243" y="533.46558" type="curve" smooth="yes"/>
      <point x="99.13243" y="533.46558"/>
      <point x="30.13357" y="464"/>
      <point x="30.13357" y="420" type="curve" smooth="yes"/>
    </contour>
  </outline>
</glyph>
<glyph name="less" format="2">
  <advance width="640"/>
  <unicode hex="003C"/>
  <outline>
    <contour>
      <point x="533.6192" y="16.00435" type="line" smooth="yes"/>
      <point x="590.6192" y="-7.99565"/>
      <point x="641.00879" y="127.25259"/>
      <point x="586.00879" y="150.25259" type="curve" smooth="yes"/>
      <point x="271.27109" y="282.3558" type="line"/>
      <point x="265.18542" y="284.91011"/>
      <point x="265.18542" y="289.08989"/>
      <point x="271.27109" y="291.6442" type="curve" smooth="yes"/>
      <point x="585.90607" y="423.70428" type="line" smooth="yes"/>
      <point x="640.90607" y="446.70428"/>
      <point x="590.70581" y="583.09882"/>
      <point x="533.70581" y="559.09882" type="curve" smooth="yes"/>
      <point x="99.83671" y="374.70444" type="line" smooth="yes"/>
      <point x="68.83671" y="361.70444"/>
      <point x="37.69677" y="318.24887"/>
      <point x="37.69677" y="288.24887" type="curve" smooth="yes"/>
      <point x="37.69677" y="257.24887"/>
      <point x="68.65308" y="212.35504"/>
      <point x="99.65308" y="199.35504" type="curve" smooth="yes"/>
    </contour>
  </outline>
</glyph>
<glyph name="equal" format="2">
  <advance width="640"/>
  <unicode hex="003D"/>
  <outline>
    <contour>
      <point x="27.94952" y="359"/>
      <point x="73.58588" y="315"/>
      <point x="101.58588" y="315" type="curve" smooth="yes"/>
      <point x="538.41412" y="315" type="line" smooth="yes"/>
      <point x="567.41412" y="315"/>
      <point x="612.05048" y="359"/>
      <point x="612.05048" y="387" type="curve" smooth="yes"/>
      <point x="612.05048" y="415"/>
      <point x="567.41412" y="459"/>
      <point x="538.41412" y="459" type="curve" smooth="yes"/>
      <point x="101.58588" y="459" type="line" smooth="yes"/>
      <point x="73.58588" y="459"/>
      <point x="27.94952" y="415"/>
      <point x="27.94952" y="387" type="curve" smooth="yes"/>
    </contour>
    <contour>
      <point x="27.71285" y="160.23141"/>
      <point x="73.58588" y="116"/>
      <point x="101.58588" y="116" type="curve" smooth="yes"/>
      <point x="538.41412" y="116" type="line" smooth="yes"/>
      <point x="567.41412" y="116"/>
      <point x="612.28717" y="159.23141"/>
      <point x="612.28717" y="188.23141" type="curve" smooth="yes"/>
      <point x="612.28717" y="216.23141"/>
      <point x="567.22699" y="259"/>
      <point x="538.22699" y="259" type="curve" smooth="yes"/>
      <point x="101.773" y="259" type="line" smooth="yes"/>
      <point x="73.773" y="259"/>
      <point x="27.71285" y="216.23141"/>
      <point x="27.71285" y="188.23141" type="curve" smooth="yes"/>
    </contour>
  </outline>
</glyph>
<glyph name="greater" format="2">
  <advance width="640"/>
  <unicode hex="003E"/>
  <outline>
    <contour>
      <point x="-0.00877" y="127.25259"/>
      <point x="50.38078" y="-7.99565"/>
      <point x="107.38078" y="16.00435" type="curve" smooth="yes"/>
      <point x="541.34692" y="199.35504" type="line" smooth="yes"/>
      <point x="572.34692" y="212.35504"/>
      <point x="603.30322" y="257.24887"/>
      <point x="603.30322" y="288.24887" type="curve" smooth="yes"/>
      <point x="603.30322" y="318.24887"/>
      <point x="572.16327" y="361.70444"/>
      <point x="541.16327" y="374.70444" type="curve" smooth="yes"/>
      <point x="107.29422" y="559.09882" type="line" smooth="yes"/>
      <point x="50.29422" y="583.09882"/>
      <point x="0.09393" y="446.70428"/>
      <point x="55.09393" y="423.70428" type="curve" smooth="yes"/>
      <point x="369.72892" y="291.6442" type="line"/>
      <point x="375.8146" y="289.08989"/>
      <point x="375.8146" y="284.91011"/>
      <point x="369.72892" y="282.3558" type="curve" smooth="yes"/>
      <point x="54.99123" y="150.25259" type="line" smooth="yes"/>
    </contour>
  </outline>
</glyph>
<glyph name="question" format="2">
  <advance width="499"/>
  <unicode hex="003F"/>
  <outline>
    <contour>
      <point x="126.13266" y="26.26936"/>
      <point x="195.13333" y="-44.7313"/>
      <point x="241.13333" y="-44.7313" type="curve" smooth="yes"/>
      <point x="287.13333" y="-44.7313"/>
      <point x="354.59888" y="26.26757"/>
      <point x="354.59888" y="70.26757" type="curve" smooth="yes"/>
      <point x="354.59888" y="105.28945"/>
      <point x="309.84448" y="157.51463"/>
      <point x="268.38469" y="175.68851" type="curve"/>
      <point x="286.38727" y="186.9079"/>
      <point x="302.89874" y="204.85223"/>
      <point x="304.18716" y="217.09224" type="curve" smooth="yes"/>
      <point x="310.18716" y="264.09222"/>
      <point x="332.21198" y="304.90445"/>
      <point x="395.21198" y="361.90445" type="curve" smooth="yes"/>
      <point x="464.21198" y="424.90445"/>
      <point x="499.80038" y="494.46133"/>
      <point x="499.80038" y="556.46136" type="curve" smooth="yes"/>
      <point x="499.80038" y="655.46136"/>
      <point x="385.02884" y="745.88348"/>
      <point x="259.02884" y="745.88348" type="curve" smooth="yes"/>
      <point x="196.02884" y="745.88348"/>
      <point x="72.33704" y="712.40546"/>
      <point x="18.33704" y="676.40546" type="curve" smooth="yes"/>
      <point x="-50.66296" y="630.40546"/>
      <point x="19.7788" y="491.7254"/>
      <point x="92.77879" y="533.7254" type="curve" smooth="yes"/>
      <point x="136.77879" y="558.7254"/>
      <point x="186.14459" y="576.15027"/>
      <point x="239.14459" y="576.15027" type="curve" smooth="yes"/>
      <point x="297.14459" y="576.15027"/>
      <point x="301.58511" y="571.96246"/>
      <point x="301.58511" y="527.96246" type="curve" smooth="yes"/>
      <point x="301.58511" y="490.96246"/>
      <point x="296.69507" y="482.00504"/>
      <point x="254.69508" y="435.00504" type="curve" smooth="yes"/>
      <point x="198.69508" y="372.00504"/>
      <point x="170.16563" y="306.08823"/>
      <point x="170.16563" y="245.08823" type="curve" smooth="yes"/>
      <point x="170.16563" y="225.06136"/>
      <point x="192.84897" y="192.8891"/>
      <point x="214.91489" y="176.19058" type="curve"/>
      <point x="172.76486" y="158.49556"/>
      <point x="126.13266" y="105.61945"/>
      <point x="126.13266" y="70.26936" type="curve" smooth="yes"/>
    </contour>
  </outline>
</glyph>
<glyph name="at" format="2">
  <advance width="990"/>
  <unicode hex="0040"/>
  <outline>
    <contour>
      <point x="34" y="268" type="curve" smooth="yes"/>
      <point x="34" y="7"/>
      <point x="241" y="-196"/>
      <point x="498" y="-196" type="curve" smooth="yes"/>
      <point x="606" y="-196"/>
      <point x="747" y="-153"/>
      <point x="808" y="-109" type="curve" smooth="yes"/>
      <point x="855" y="-75"/>
      <point x="783" y="40"/>
      <point x="734" y="6" type="curve" smooth="yes"/>
      <point x="676" y="-34"/>
      <point x="602" y="-57"/>
      <point x="514" y="-57" type="curve" smooth="yes"/>
      <point x="303" y="-57"/>
      <point x="200" y="46"/>
      <point x="200" y="268" type="curve" smooth="yes"/>
      <point x="200" y="493"/>
      <point x="305" y="599"/>
      <point x="523" y="599" type="curve" smooth="yes"/>
      <point x="718" y="599"/>
      <point x="803" y="521"/>
      <point x="803" y="336" type="curve" smooth="yes"/>
      <point x="803" y="211"/>
      <point x="777" y="202"/>
      <point x="732" y="188" type="curve" smooth="yes"/>
      <point x="719" y="184"/>
      <point x="702" y="176"/>
      <point x="701" y="178" type="curve"/>
      <point x="699" y="180"/>
      <point x="701" y="215"/>
      <point x="706" y="239" type="curve" smooth="yes"/>
      <point x="746" y="449" type="line" smooth="yes"/>
      <point x="752" y="482"/>
      <point x="710" y="532"/>
      <point x="679" y="532" type="curve" smooth="yes"/>
      <point x="655" y="532"/>
      <point x="612" y="501"/>
      <point x="599" y="474" type="curve"/>
      <point x="580" y="514"/>
      <point x="548" y="535"/>
      <point x="492" y="535" type="curve" smooth="yes"/>
      <point x="368" y="535"/>
      <point x="247" y="391"/>
      <point x="247" y="245" type="curve" smooth="yes"/>
      <point x="247" y="129"/>
      <point x="339" y="23"/>
      <point x="446" y="23" type="curve" smooth="yes"/>
      <point x="503" y="23"/>
      <point x="560" y="54"/>
      <point x="597" y="112" type="curve"/>
      <point x="612" y="57"/>
      <point x="663" y="20"/>
      <point x="729" y="20" type="curve" smooth="yes"/>
      <point x="845" y="20"/>
      <point x="953" y="173"/>
      <point x="953" y="346" type="curve" smooth="yes"/>
      <point x="953" y="571"/>
      <point x="759" y="754"/>
      <point x="523" y="754" type="curve" smooth="yes"/>
      <point x="255" y="754"/>
      <point x="34" y="536"/>
    </contour>
    <contour>
      <point x="565" y="289" type="curve" smooth="yes"/>
      <point x="565" y="218"/>
      <point x="564" y="181"/>
      <point x="495" y="181" type="curve" smooth="yes"/>
      <point x="432" y="181"/>
      <point x="425" y="205"/>
      <point x="425" y="289" type="curve" smooth="yes"/>
      <point x="425" y="360"/>
      <point x="444" y="385"/>
      <point x="495" y="385" type="curve" smooth="yes"/>
      <point x="554" y="385"/>
      <point x="565" y="367"/>
    </contour>
  </outline>
</glyph>
<glyph name="A" format="2">
  <advance width="784"/>
  <unicode hex="0041"/>
  <anchor x="373" y="0" name="bottom"/>
  <anchor x="704" y="0" name="ogonek"/>
  <anchor x="373" y="705" name="top"/>
  <outline>
    <contour>
      <point x="2.46374" y="26.18934"/>
      <point x="49.6395" y="-50.26807"/>
      <point x="96.6395" y="-50.26807" type="curve" smooth="yes"/>
      <point x="130.6395" y="-50.26807"/>
      <point x="177.09128" y="-9.27034"/>
      <point x="194.09128" y="29.72966" type="curve" smooth="yes"/>
      <point x="234.02633" y="123.95142" type="line"/>
      <point x="236.60189" y="130.02814"/>
      <point x="244.10917" y="135"/>
      <point x="250.70917" y="135" type="curve" smooth="yes"/>
      <point x="533.63519" y="135" type="line"/>
      <point x="540.23519" y="135"/>
      <point x="547.77028" y="130.04002"/>
      <point x="550.37984" y="123.97783" type="curve" smooth="yes"/>
      <point x="591.13922" y="29.29066" type="line" smooth="yes"/>
      <point x="607.13922" y="-7.70934"/>
      <point x="656.52942" y="-50.0257"/>
      <point x="693.52942" y="-50.0257" type="curve" smooth="yes"/>
      <point x="738.52942" y="-50.0257"/>
      <point x="783.34912" y="25.65285"/>
      <point x="762.34912" y="72.65285" type="curve" smooth="yes"/>
      <point x="488.50229" y="677.18262" type="line" smooth="yes"/>
      <point x="471.50229" y="715.18262"/>
      <point x="424.11279" y="747.74475"/>
      <point x="393.11279" y="747.74475" type="curve" smooth="yes"/>
      <point x="361.11279" y="747.74475"/>
      <point x="313.5206" y="715.25854"/>
      <point x="296.5206" y="677.25854" type="curve" smooth="yes"/>
      <point x="23.46373" y="72.18934" type="line" smooth="yes"/>
    </contour>
    <contour>
      <point x="387.43751" y="485.27983" type="line"/>
      <point x="389.99542" y="491.36399"/>
      <point x="394.19377" y="491.36934"/>
      <point x="396.76718" y="485.29172" type="curve" smooth="yes"/>
      <point x="473.50906" y="304.05023" type="line"/>
      <point x="476.08247" y="297.9726"/>
      <point x="472.78799" y="293"/>
      <point x="466.18799" y="293" type="curve" smooth="yes"/>
      <point x="318.59915" y="293" type="line"/>
      <point x="311.99915" y="293"/>
      <point x="308.69199" y="297.97796"/>
      <point x="311.24989" y="304.06212" type="curve" smooth="yes"/>
    </contour>
  </outline>
</glyph>
<glyph name="B" format="2">
  <advance width="728"/>
  <unicode hex="0042"/>
  <anchor x="345" y="0" name="bottom"/>
  <anchor x="345" y="705" name="top"/>
  <outline>
    <contour>
      <point x="69" y="12.40202"/>
      <point x="109.40202" y="-28"/>
      <point x="153.40202" y="-28" type="curve" smooth="yes"/>
      <point x="426.02002" y="-28" type="line" smooth="yes"/>
      <point x="576.02002" y="-28"/>
      <point x="694.625" y="67.4799"/>
      <point x="694.625" y="192.4799" type="curve" smooth="yes"/>
      <point x="694.625" y="278.58453"/>
      <point x="643.90771" y="342.66971"/>
      <point x="563.57684" y="364.69012" type="curve"/>
      <point x="631.45465" y="390.71747"/>
      <point x="675.9845" y="452.02658"/>
      <point x="675.9845" y="527.77039" type="curve" smooth="yes"/>
      <point x="675.9845" y="641.77039"/>
      <point x="562.68121" y="733"/>
      <point x="414.68118" y="733" type="curve" smooth="yes"/>
      <point x="153.40202" y="733" type="line" smooth="yes"/>
      <point x="109.40202" y="733"/>
      <point x="69" y="692.59796"/>
      <point x="69" y="648.59796" type="curve" smooth="yes"/>
      <point x="69" y="56.40202" type="line" smooth="yes"/>
    </contour>
    <contour>
      <point x="260" y="125" type="line"/>
      <point x="253.4" y="125"/>
      <point x="248" y="130.4"/>
      <point x="248" y="137" type="curve" smooth="yes"/>
      <point x="248" y="269" type="line"/>
      <point x="248" y="275.6"/>
      <point x="253.4" y="281"/>
      <point x="260" y="281" type="curve" smooth="yes"/>
      <point x="390.14911" y="281" type="line" smooth="yes"/>
      <point x="480.14911" y="281"/>
      <point x="487.28119" y="275"/>
      <point x="487.28119" y="203" type="curve" smooth="yes"/>
      <point x="487.28119" y="132"/>
      <point x="480.14911" y="125"/>
      <point x="390.14911" y="125" type="curve" smooth="yes"/>
    </contour>
    <contour>
      <point x="260" y="434" type="line"/>
      <point x="253.4" y="434"/>
      <point x="248" y="439.4"/>
      <point x="248" y="446" type="curve" smooth="yes"/>
      <point x="248" y="568" type="line"/>
      <point x="248" y="574.6"/>
      <point x="253.4" y="580"/>
      <point x="260" y="580" type="curve" smooth="yes"/>
      <point x="373.45932" y="580" type="line" smooth="yes"/>
      <point x="461.45932" y="580"/>
      <point x="468.14249" y="574"/>
      <point x="468.14249" y="507" type="curve" smooth="yes"/>
      <point x="468.14249" y="440"/>
      <point x="461.45932" y="434"/>
      <point x="373.45932" y="434" type="curve" smooth="yes"/>
    </contour>
  </outline>
</glyph>
<glyph name="C" format="2">
  <advance width="720"/>
  <unicode hex="0043"/>
  <anchor x="391" y="0" name="bottom"/>
  <anchor x="392" y="705" name="top"/>
  <outline>
    <contour>
      <point x="35.02505" y="131.02687"/>
      <point x="196.57835" y="-41.57099"/>
      <point x="416.57834" y="-41.57099" type="curve" smooth="yes"/>
      <point x="492.57834" y="-41.57099"/>
      <point x="622.65759" y="-5.54813"/>
      <point x="676.65759" y="33.45187" type="curve" smooth="yes"/>
      <point x="737.65759" y="77.45187"/>
      <point x="658.61243" y="219.38742"/>
      <point x="586.61243" y="175.38742" type="curve" smooth="yes"/>
      <point x="542.61243" y="148.38742"/>
      <point x="489.53226" y="135.55896"/>
      <point x="438.53226" y="135.55896" type="curve" smooth="yes"/>
      <point x="295.53226" y="135.55896"/>
      <point x="247.3217" y="193.96275"/>
      <point x="247.3217" y="352.96274" type="curve" smooth="yes"/>
      <point x="247.3217" y="511.96274"/>
      <point x="295.46539" y="569.41772"/>
      <point x="438.46539" y="569.41772" type="curve" smooth="yes"/>
      <point x="487.46539" y="569.41772"/>
      <point x="540.40112" y="557.34943"/>
      <point x="582.40112" y="530.34943" type="curve" smooth="yes"/>
      <point x="655.40112" y="483.34946"/>
      <point x="738.59851" y="633.54846"/>
      <point x="668.59851" y="678.54846" type="curve" smooth="yes"/>
      <point x="615.59851" y="712.54846"/>
      <point x="489.36121" y="746.31372"/>
      <point x="416.36121" y="746.31372" type="curve" smooth="yes"/>
      <point x="196.36122" y="746.31372"/>
      <point x="35.02505" y="574.02686"/>
      <point x="35.02505" y="353.02686" type="curve" smooth="yes"/>
    </contour>
  </outline>
</glyph>
<glyph name="D" format="2">
  <advance width="794"/>
  <unicode hex="0044"/>
  <anchor x="375" y="0" name="bottom"/>
  <anchor x="190" y="358" name="center"/>
  <anchor x="375" y="705" name="top"/>
  <outline>
    <contour>
      <point x="65" y="12"/>
      <point x="105" y="-28"/>
      <point x="149" y="-28" type="curve" smooth="yes"/>
      <point x="366" y="-28" type="line" smooth="yes"/>
      <point x="602" y="-28"/>
      <point x="766" y="127"/>
      <point x="766" y="353" type="curve" smooth="yes"/>
      <point x="766" y="579"/>
      <point x="602" y="733"/>
      <point x="366" y="733" type="curve" smooth="yes"/>
      <point x="149" y="733" type="line" smooth="yes"/>
      <point x="105" y="733"/>
      <point x="65" y="693"/>
      <point x="65" y="649" type="curve" smooth="yes"/>
      <point x="65" y="56" type="line" smooth="yes"/>
    </contour>
    <contour>
      <point x="261" y="134" type="line"/>
      <point x="254" y="134"/>
      <point x="249" y="139"/>
      <point x="249" y="146" type="curve" smooth="yes"/>
      <point x="249" y="559" type="line"/>
      <point x="249" y="566"/>
      <point x="254" y="571"/>
      <point x="261" y="571" type="curve" smooth="yes"/>
      <point x="335" y="571" type="line" smooth="yes"/>
      <point x="498" y="571"/>
      <point x="552" y="518"/>
      <point x="552" y="353" type="curve" smooth="yes"/>
      <point x="552" y="188"/>
      <point x="499" y="134"/>
      <point x="335" y="134" type="curve" smooth="yes"/>
    </contour>
  </outline>
</glyph>
<glyph name="E" format="2">
  <advance width="637"/>
  <unicode hex="0045"/>
  <anchor x="328" y="0" name="bottom"/>
  <anchor x="498" y="0" name="ogonek"/>
  <anchor x="328" y="705" name="top"/>
  <anchor x="23" y="705" name="topleft"/>
  <outline>
    <contour>
      <point x="69" y="12.40202"/>
      <point x="109.40202" y="-28"/>
      <point x="153.40202" y="-28" type="curve" smooth="yes"/>
      <point x="533.43909" y="-28" type="line" smooth="yes"/>
      <point x="566.43909" y="-28"/>
      <point x="613.9881" y="18"/>
      <point x="613.9881" y="51" type="curve" smooth="yes"/>
      <point x="613.9881" y="84"/>
      <point x="566.43909" y="130"/>
      <point x="533.43909" y="130" type="curve" smooth="yes"/>
      <point x="260" y="130" type="line"/>
      <point x="253.4" y="130"/>
      <point x="248" y="135.4"/>
      <point x="248" y="142" type="curve" smooth="yes"/>
      <point x="248" y="267" type="line"/>
      <point x="248" y="273.6"/>
      <point x="253.4" y="279"/>
      <point x="260" y="279" type="curve" smooth="yes"/>
      <point x="511.43906" y="279" type="line" smooth="yes"/>
      <point x="545.43909" y="279"/>
      <point x="591.9881" y="325"/>
      <point x="591.9881" y="358" type="curve" smooth="yes"/>
      <point x="591.9881" y="391"/>
      <point x="545.43909" y="437"/>
      <point x="511.43906" y="437" type="curve" smooth="yes"/>
      <point x="260" y="437" type="line"/>
      <point x="253.4" y="437"/>
      <point x="248" y="442.4"/>
      <point x="248" y="449" type="curve" smooth="yes"/>
      <point x="248" y="563" type="line"/>
      <point x="248" y="569.6"/>
      <point x="253.4" y="575"/>
      <point x="260" y="575" type="curve" smooth="yes"/>
      <point x="533.59796" y="575" type="line" smooth="yes"/>
      <point x="566.59796" y="575"/>
      <point x="613.98999" y="622.39203"/>
      <point x="613.98999" y="655.39203" type="curve" smooth="yes"/>
      <point x="613.98999" y="687.39203"/>
      <point x="566.27771" y="733"/>
      <point x="533.27771" y="733" type="curve" smooth="yes"/>
      <point x="153.40202" y="733" type="line" smooth="yes"/>
      <point x="109.40202" y="733"/>
      <point x="69" y="692.59796"/>
      <point x="69" y="648.59796" type="curve" smooth="yes"/>
      <point x="69" y="56.40202" type="line" smooth="yes"/>
    </contour>
  </outline>
</glyph>
<glyph name="F" format="2">
  <advance width="602"/>
  <unicode hex="0046"/>
  <anchor x="300" y="0" name="bottom"/>
  <anchor x="303" y="705" name="top"/>
  <outline>
    <contour>
      <point x="69" y="4.64606"/>
      <point x="121.63739" y="-48.85913"/>
      <point x="163.63739" y="-48.85913" type="curve" smooth="yes"/>
      <point x="204.63739" y="-48.85913"/>
      <point x="253" y="5.15147"/>
      <point x="253" y="49.15147" type="curve" smooth="yes"/>
      <point x="253" y="262" type="line"/>
      <point x="253" y="268.6"/>
      <point x="258.4" y="274"/>
      <point x="265" y="274" type="curve" smooth="yes"/>
      <point x="504.59799" y="274" type="line" smooth="yes"/>
      <point x="537.59796" y="274"/>
      <point x="584.98999" y="321.39203"/>
      <point x="584.98999" y="354.39203" type="curve" smooth="yes"/>
      <point x="584.98999" y="386.39203"/>
      <point x="537.27771" y="432"/>
      <point x="504.27771" y="432" type="curve" smooth="yes"/>
      <point x="265" y="432" type="line"/>
      <point x="258.4" y="432"/>
      <point x="253" y="437.4"/>
      <point x="253" y="444" type="curve" smooth="yes"/>
      <point x="253" y="563" type="line"/>
      <point x="253" y="569.6"/>
      <point x="258.4" y="575"/>
      <point x="265" y="575" type="curve" smooth="yes"/>
      <point x="525.59799" y="575" type="line" smooth="yes"/>
      <point x="559.59796" y="575"/>
      <point x="605.98999" y="622.39203"/>
      <point x="605.98999" y="655.39203" type="curve" smooth="yes"/>
      <point x="605.98999" y="687.39203"/>
      <point x="559.27771" y="733"/>
      <point x="525.27771" y="733" type="curve" smooth="yes"/>
      <point x="153.40202" y="733" type="line" smooth="yes"/>
      <point x="109.40202" y="733"/>
      <point x="69" y="692.59796"/>
      <point x="69" y="648.59796" type="curve" smooth="yes"/>
      <point x="69" y="48.64606" type="line" smooth="yes"/>
    </contour>
  </outline>
</glyph>
<glyph name="G" format="2">
  <advance width="776"/>
  <unicode hex="0047"/>
  <anchor x="408" y="0" name="bottom"/>
  <anchor x="401" y="705" name="top"/>
  <outline>
    <contour>
      <point x="34.4566" y="129.89084"/>
      <point x="192.49998" y="-40.06955"/>
      <point x="426.49997" y="-40.06955" type="curve" smooth="yes"/>
      <point x="499.49997" y="-40.06955"/>
      <point x="607.29309" y="-20.41535"/>
      <point x="666.29309" y="1.58465" type="curve" smooth="yes"/>
      <point x="691.29309" y="10.58465"/>
      <point x="713" y="49.13212"/>
      <point x="713" y="78.13212" type="curve" smooth="yes"/>
      <point x="713" y="340.59799" type="line" smooth="yes"/>
      <point x="713" y="373.59799"/>
      <point x="677.59796" y="409"/>
      <point x="644.59796" y="409" type="curve" smooth="yes"/>
      <point x="457.22131" y="409" type="line" smooth="yes"/>
      <point x="423.22131" y="409"/>
      <point x="374.48337" y="364.21762"/>
      <point x="374.48337" y="334.21762" type="curve" smooth="yes"/>
      <point x="374.48337" y="304.21762"/>
      <point x="423.05246" y="258"/>
      <point x="457.05246" y="258" type="curve" smooth="yes"/>
      <point x="538" y="258" type="line"/>
      <point x="544.6" y="258"/>
      <point x="550" y="252.6"/>
      <point x="550" y="246" type="curve" smooth="yes"/>
      <point x="550" y="157.48758" type="line"/>
      <point x="550" y="150.88758"/>
      <point x="544.66673" y="144.6413"/>
      <point x="538.14828" y="143.60697" type="curve" smooth="yes"/>
      <point x="505.32306" y="131.69662"/>
      <point x="496.92258" y="129.98839"/>
      <point x="452.32321" y="129.98839" type="curve" smooth="yes"/>
      <point x="297.32321" y="129.98839"/>
      <point x="245.97765" y="187.32486"/>
      <point x="245.97765" y="351.32486" type="curve" smooth="yes"/>
      <point x="245.97765" y="513.32489"/>
      <point x="295.46527" y="571.67236"/>
      <point x="444.46527" y="571.67236" type="curve" smooth="yes"/>
      <point x="508.46527" y="571.67236"/>
      <point x="561.60339" y="557.61261"/>
      <point x="612.60339" y="528.61261" type="curve" smooth="yes"/>
      <point x="677.60339" y="491.61258"/>
      <point x="754.51184" y="637.54535"/>
      <point x="696.51184" y="673.54535" type="curve" smooth="yes"/>
      <point x="629.51184" y="715.54535"/>
      <point x="501.57516" y="746.26801"/>
      <point x="426.57516" y="746.26801" type="curve" smooth="yes"/>
      <point x="199.57518" y="746.26801"/>
      <point x="34.4566" y="573.89087"/>
      <point x="34.4566" y="350.89084" type="curve" smooth="yes"/>
    </contour>
  </outline>
</glyph>
<glyph name="H" format="2">
  <advance width="813"/>
  <unicode hex="0048"/>
  <anchor x="387" y="0" name="bottom"/>
  <anchor x="387" y="561" name="center"/>
  <anchor x="386" y="705" name="top"/>
  <anchor x="23" y="705" name="topleft"/>
  <outline>
    <contour>
      <point x="69" y="4.65354"/>
      <point x="120" y="-48.22146"/>
      <point x="161" y="-48.22146" type="curve" smooth="yes"/>
      <point x="203" y="-48.22146"/>
      <point x="253" y="4.65354"/>
      <point x="253" y="46.65354" type="curve" smooth="yes"/>
      <point x="253" y="264" type="line"/>
      <point x="253" y="270.6"/>
      <point x="258.4" y="276"/>
      <point x="265" y="276" type="curve" smooth="yes"/>
      <point x="548" y="276" type="line"/>
      <point x="554.6" y="276"/>
      <point x="560" y="270.6"/>
      <point x="560" y="264" type="curve" smooth="yes"/>
      <point x="560" y="46.65354" type="line" smooth="yes"/>
      <point x="560" y="4.65354"/>
      <point x="611" y="-48.22146"/>
      <point x="652" y="-48.22146" type="curve" smooth="yes"/>
      <point x="693" y="-48.22146"/>
      <point x="744" y="4.65354"/>
      <point x="744" y="46.65354" type="curve" smooth="yes"/>
      <point x="744" y="658.34644" type="line" smooth="yes"/>
      <point x="744" y="701.34644"/>
      <point x="693" y="753.22144"/>
      <point x="652" y="753.22144" type="curve" smooth="yes"/>
      <point x="611" y="753.22144"/>
      <point x="560" y="701.34644"/>
      <point x="560" y="658.34644" type="curve" smooth="yes"/>
      <point x="560" y="451" type="line"/>
      <point x="560" y="444.4"/>
      <point x="554.6" y="439"/>
      <point x="548" y="439" type="curve" smooth="yes"/>
      <point x="265" y="439" type="line"/>
      <point x="258.4" y="439"/>
      <point x="253" y="444.4"/>
      <point x="253" y="451" type="curve" smooth="yes"/>
      <point x="253" y="658.34644" type="line" smooth="yes"/>
      <point x="253" y="701.34644"/>
      <point x="202" y="753.22144"/>
      <point x="161" y="753.22144" type="curve" smooth="yes"/>
      <point x="120" y="753.22144"/>
      <point x="69" y="701.34644"/>
      <point x="69" y="658.34644" type="curve" smooth="yes"/>
      <point x="69" y="46.65354" type="line" smooth="yes"/>
    </contour>
  </outline>
</glyph>
<glyph name="I" format="2">
  <advance width="322"/>
  <unicode hex="0049"/>
  <anchor x="141" y="0" name="bottom"/>
  <anchor x="178" y="0" name="ogonek"/>
  <anchor x="141" y="705" name="top"/>
  <anchor x="23" y="705" name="topleft"/>
  <outline>
    <contour>
      <point x="69" y="4.65354"/>
      <point x="120" y="-48.22146"/>
      <point x="161" y="-48.22146" type="curve" smooth="yes"/>
      <point x="203" y="-48.22146"/>
      <point x="253" y="4.65354"/>
      <point x="253" y="46.65354" type="curve" smooth="yes"/>
      <point x="253" y="658.34644" type="line" smooth="yes"/>
      <point x="253" y="701.34644"/>
      <point x="202" y="753.22144"/>
      <point x="161" y="753.22144" type="curve" smooth="yes"/>
      <point x="120" y="753.22144"/>
      <point x="69" y="701.34644"/>
      <point x="69" y="658.34644" type="curve" smooth="yes"/>
      <point x="69" y="46.65354" type="line" smooth="yes"/>
    </contour>
  </outline>
</glyph>
<glyph name="J" format="2">
  <advance width="394"/>
  <unicode hex="004A"/>
  <anchor x="214" y="0" name="bottom"/>
  <anchor x="213" y="705" name="top"/>
  <outline>
    <contour>
      <point x="-33.41017" y="14.48203"/>
      <point x="17.66656" y="-37.65625"/>
      <point x="55.66656" y="-35.65625" type="curve" smooth="yes"/>
      <point x="112.51084" y="-32.31247" type="line" smooth="yes"/>
      <point x="242.51083" y="-24.31247"/>
      <point x="326" y="61.64606"/>
      <point x="326" y="187.64606" type="curve" smooth="yes"/>
      <point x="326" y="659.47101" type="line" smooth="yes"/>
      <point x="326" y="701.47101"/>
      <point x="275" y="752.90851"/>
      <point x="234" y="752.90851" type="curve" smooth="yes"/>
      <point x="193" y="752.90851"/>
      <point x="142" y="701.47101"/>
      <point x="142" y="659.47101" type="curve" smooth="yes"/>
      <point x="142" y="208.81682" type="line" smooth="yes"/>
      <point x="142" y="147.81682"/>
      <point x="126.86642" y="131.18658"/>
      <point x="67.86642" y="127.18658" type="curve" smooth="yes"/>
      <point x="37.95669" y="125.1926" type="line" smooth="yes"/>
      <point x="7.95669" y="123.1926"/>
      <point x="-33.41017" y="72.48203"/>
      <point x="-33.41017" y="47.48203" type="curve" smooth="yes"/>
    </contour>
  </outline>
</glyph>
<glyph name="K" format="2">
  <advance width="705"/>
  <unicode hex="004B"/>
  <anchor x="332" y="0" name="bottom"/>
  <anchor x="332" y="705" name="top"/>
  <anchor x="23" y="705" name="topleft"/>
  <outline>
    <contour>
      <point x="69" y="4.65354"/>
      <point x="120" y="-48.22146"/>
      <point x="161" y="-48.22146" type="curve" smooth="yes"/>
      <point x="203" y="-48.22146"/>
      <point x="253" y="4.65354"/>
      <point x="253" y="46.65354" type="curve" smooth="yes"/>
      <point x="253" y="248.40201" type="line"/>
      <point x="253" y="255.00201"/>
      <point x="256.81838" y="256.58363"/>
      <point x="261.48528" y="251.91673" type="curve" smooth="yes"/>
      <point x="505.08179" y="8.32022" type="line" smooth="yes"/>
      <point x="530.08179" y="-16.67978"/>
      <point x="577.16718" y="-48.05936"/>
      <point x="609.16718" y="-48.05936" type="curve" smooth="yes"/>
      <point x="664.16718" y="-48.05936"/>
      <point x="701.37738" y="51.01569"/>
      <point x="660.37738" y="92.01569" type="curve" smooth="yes"/>
      <point x="399.37271" y="357.29913" type="line"/>
      <point x="394.7439" y="362.00383"/>
      <point x="394.79474" y="369.65173"/>
      <point x="399.48568" y="374.29447" type="curve" smooth="yes"/>
      <point x="646.49481" y="618.76587" type="line" smooth="yes"/>
      <point x="680.49481" y="651.76587"/>
      <point x="654.72919" y="751.34741"/>
      <point x="597.72919" y="751.34741" type="curve" smooth="yes"/>
      <point x="570.72919" y="751.34741"/>
      <point x="518.63358" y="725.24359"/>
      <point x="497.63358" y="704.24359" type="curve" smooth="yes"/>
      <point x="261.47051" y="467.25766" type="line"/>
      <point x="256.81173" y="462.58264"/>
      <point x="253" y="464.15763"/>
      <point x="253" y="470.75763" type="curve" smooth="yes"/>
      <point x="253" y="659.47101" type="line" smooth="yes"/>
      <point x="253" y="701.47101"/>
      <point x="202" y="752.90851"/>
      <point x="161" y="752.90851" type="curve" smooth="yes"/>
      <point x="120" y="752.90851"/>
      <point x="69" y="701.47101"/>
      <point x="69" y="659.47101" type="curve" smooth="yes"/>
      <point x="69" y="46.65354" type="line" smooth="yes"/>
    </contour>
  </outline>
</glyph>
<glyph name="L" format="2">
  <advance width="602"/>
  <unicode hex="004C"/>
  <anchor x="310" y="0" name="bottom"/>
  <anchor x="187" y="387" name="center"/>
  <anchor x="425" y="394" name="dot"/>
  <anchor x="141" y="705" name="top"/>
  <anchor x="311" y="705" name="topright"/>
  <outline>
    <contour>
      <point x="69" y="12.52703"/>
      <point x="108.27662" y="-28"/>
      <point x="150.27661" y="-28" type="curve" smooth="yes"/>
      <point x="526.4505" y="-28" type="line" smooth="yes"/>
      <point x="562.4505" y="-28"/>
      <point x="611.14703" y="20.1841"/>
      <point x="611.14703" y="55.1841" type="curve" smooth="yes"/>
      <point x="611.14703" y="89.1841"/>
      <point x="562.3009" y="137"/>
      <point x="526.3009" y="137" type="curve" smooth="yes"/>
      <point x="265" y="137" type="line"/>
      <point x="258.4" y="137"/>
      <point x="253" y="142.4"/>
      <point x="253" y="149" type="curve" smooth="yes"/>
      <point x="253" y="654.47101" type="line" smooth="yes"/>
      <point x="253" y="696.47101"/>
      <point x="202" y="747.90851"/>
      <point x="161" y="747.90851" type="curve" smooth="yes"/>
      <point x="120" y="747.90851"/>
      <point x="69" y="696.47101"/>
      <point x="69" y="654.47101" type="curve" smooth="yes"/>
      <point x="69" y="54.52703" type="line" smooth="yes"/>
    </contour>
  </outline>
</glyph>
<glyph name="M" format="2">
  <advance width="908"/>
  <unicode hex="004D"/>
  <anchor x="435" y="0" name="bottom"/>
  <anchor x="435" y="705" name="top"/>
  <outline>
    <contour>
      <point x="71" y="2.67903"/>
      <point x="120" y="-48.28649"/>
      <point x="157" y="-48.28649" type="curve" smooth="yes"/>
      <point x="195" y="-48.28649"/>
      <point x="243" y="2.67903"/>
      <point x="243" y="40.67903" type="curve" smooth="yes"/>
      <point x="236.2035" y="379.18842" type="line"/>
      <point x="236.07101" y="385.78709"/>
      <point x="238.46623" y="386.40145"/>
      <point x="241.5262" y="380.55367" type="curve" smooth="yes"/>
      <point x="381.94934" y="112.19666" type="line" smooth="yes"/>
      <point x="393.94934" y="90.19666"/>
      <point x="429.14667" y="65.74451"/>
      <point x="455.14667" y="65.74451" type="curve" smooth="yes"/>
      <point x="480.14667" y="65.74451"/>
      <point x="514.15045" y="89.33518"/>
      <point x="527.15045" y="112.33518" type="curve" smooth="yes"/>
      <point x="667.62526" y="382.85383" type="line"/>
      <point x="670.66687" y="388.71119"/>
      <point x="673.04596" y="388.10468"/>
      <point x="672.91214" y="381.50604" type="curve" smooth="yes"/>
      <point x="666" y="40.67903" type="line" smooth="yes"/>
      <point x="666" y="2.67903"/>
      <point x="714" y="-48.28649"/>
      <point x="752" y="-48.28649" type="curve" smooth="yes"/>
      <point x="790" y="-48.28649"/>
      <point x="838" y="2.67903"/>
      <point x="838" y="40.67903" type="curve" smooth="yes"/>
      <point x="838" y="664.32098" type="line" smooth="yes"/>
      <point x="838" y="703.32098"/>
      <point x="793.13525" y="749.00867"/>
      <point x="756.13525" y="749.00867" type="curve" smooth="yes"/>
      <point x="723.13525" y="749.00867"/>
      <point x="681.77856" y="720.62433"/>
      <point x="665.77856" y="690.62433" type="curve" smooth="yes"/>
      <point x="461.70572" y="313.04826" type="line"/>
      <point x="458.56757" y="307.24205"/>
      <point x="453.43243" y="307.24205"/>
      <point x="450.29428" y="313.04826" type="curve" smooth="yes"/>
      <point x="246.17216" y="690.71545" type="line" smooth="yes"/>
      <point x="230.17216" y="720.71545"/>
      <point x="188.08319" y="748.68115"/>
      <point x="155.08319" y="748.68115" type="curve" smooth="yes"/>
      <point x="117.0832" y="748.68115"/>
      <point x="71" y="703.59796"/>
      <point x="71" y="664.59796" type="curve" smooth="yes"/>
      <point x="71" y="40.67903" type="line" smooth="yes"/>
    </contour>
  </outline>
</glyph>
<glyph name="N" format="2">
  <advance width="788"/>
  <unicode hex="004E"/>
  <anchor x="374" y="0" name="bottom"/>
  <anchor x="374" y="705" name="top"/>
  <outline>
    <contour>
      <point x="69" y="2.66998"/>
      <point x="118.16977" y="-48.43879"/>
      <point x="157.16977" y="-48.43879" type="curve" smooth="yes"/>
      <point x="195.16977" y="-48.43879"/>
      <point x="244" y="2.80654"/>
      <point x="244" y="42.80654" type="curve" smooth="yes"/>
      <point x="243.06423" y="402.94264" type="line"/>
      <point x="243.04708" y="409.54261"/>
      <point x="246.31573" y="410.65494"/>
      <point x="250.32789" y="405.41446" type="curve" smooth="yes"/>
      <point x="554.19739" y="8.51639" type="line" smooth="yes"/>
      <point x="575.19739" y="-18.48361"/>
      <point x="614.03796" y="-43.78574"/>
      <point x="645.03796" y="-43.78574" type="curve" smooth="yes"/>
      <point x="677.03796" y="-43.78574"/>
      <point x="719" y="4.55507"/>
      <point x="719" y="41.55507" type="curve" smooth="yes"/>
      <point x="719" y="663.32556" type="line" smooth="yes"/>
      <point x="719" y="702.32556"/>
      <point x="670.16846" y="753.10059"/>
      <point x="632.16846" y="753.10059" type="curve" smooth="yes"/>
      <point x="593.16846" y="753.10059"/>
      <point x="544" y="702.46265"/>
      <point x="544" y="663.46265" type="curve" smooth="yes"/>
      <point x="544.88705" y="304.25298" type="line"/>
      <point x="544.90335" y="297.653"/>
      <point x="541.62819" y="296.53622"/>
      <point x="537.60892" y="301.77124" type="curve" smooth="yes"/>
      <point x="233.92535" y="697.31281" type="line" smooth="yes"/>
      <point x="212.92535" y="724.31281"/>
      <point x="177.3013" y="749.00781"/>
      <point x="147.3013" y="749.00781" type="curve" smooth="yes"/>
      <point x="113.3013" y="749.00781"/>
      <point x="69" y="700.52057"/>
      <point x="69" y="659.52057" type="curve" smooth="yes"/>
      <point x="69" y="42.66998" type="line" smooth="yes"/>
    </contour>
  </outline>
</glyph>
<glyph name="O" format="2">
  <advance width="823"/>
  <unicode hex="004F"/>
  <anchor x="392" y="-10" name="Qtail"/>
  <anchor x="392" y="0" name="bottom"/>
  <anchor x="393" y="353" name="center"/>
  <anchor x="452" y="0" name="ogonek"/>
  <anchor x="392" y="705" name="top"/>
  <anchor x="26" y="705" name="topleft"/>
  <anchor x="461" y="705" name="topright"/>
  <outline>
    <contour>
      <point x="35.66404" y="133.02638"/>
      <point x="208.02817" y="-51.05379"/>
      <point x="413.02817" y="-51.05379" type="curve" smooth="yes"/>
      <point x="618.02814" y="-51.05379"/>
      <point x="790.33606" y="133.07913"/>
      <point x="790.33606" y="354.07913" type="curve" smooth="yes"/>
      <point x="790.33606" y="574.07916"/>
      <point x="617.97174" y="755.93317"/>
      <point x="412.97174" y="755.93317" type="curve" smooth="yes"/>
      <point x="206.97176" y="755.93317"/>
      <point x="35.66404" y="574.02637"/>
      <point x="35.66404" y="353.02637" type="curve" smooth="yes"/>
    </contour>
    <contour>
      <point x="581.93372" y="193.96506"/>
      <point x="542" y="144.4761"/>
      <point x="413" y="144.4761" type="curve" smooth="yes"/>
      <point x="284" y="144.4761"/>
      <point x="244.06627" y="193.96506"/>
      <point x="244.06627" y="352.96506" type="curve" smooth="yes"/>
      <point x="244.06627" y="512.96503"/>
      <point x="284" y="560.62994"/>
      <point x="413" y="560.62994" type="curve" smooth="yes"/>
      <point x="543" y="560.62994"/>
      <point x="581.93372" y="512.96503"/>
      <point x="581.93372" y="352.96506" type="curve" smooth="yes"/>
    </contour>
  </outline>
</glyph>
<glyph name="P" format="2">
  <advance width="692"/>
  <unicode hex="0050"/>
  <anchor x="332" y="0" name="bottom"/>
  <anchor x="332" y="705" name="top"/>
  <outline>
    <contour>
      <point x="69" y="4.65354"/>
      <point x="120" y="-48.22146"/>
      <point x="161" y="-48.22146" type="curve" smooth="yes"/>
      <point x="203" y="-48.22146"/>
      <point x="253" y="4.65354"/>
      <point x="253" y="46.65354" type="curve" smooth="yes"/>
      <point x="253" y="224" type="line"/>
      <point x="253" y="230.6"/>
      <point x="258.4" y="236"/>
      <point x="265" y="236" type="curve" smooth="yes"/>
      <point x="413.86133" y="236" type="line" smooth="yes"/>
      <point x="568.86133" y="236"/>
      <point x="686.57336" y="346.04694"/>
      <point x="686.57336" y="485.04694" type="curve" smooth="yes"/>
      <point x="686.57336" y="624.04694"/>
      <point x="568.82501" y="733"/>
      <point x="413.82498" y="733" type="curve" smooth="yes"/>
      <point x="150.40202" y="733" type="line" smooth="yes"/>
      <point x="108.40202" y="733"/>
      <point x="69" y="693.59796"/>
      <point x="69" y="651.59796" type="curve" smooth="yes"/>
      <point x="69" y="46.65354" type="line" smooth="yes"/>
    </contour>
    <contour>
      <point x="265" y="393" type="line"/>
      <point x="258.4" y="393"/>
      <point x="253" y="398.4"/>
      <point x="253" y="405" type="curve" smooth="yes"/>
      <point x="253" y="564" type="line"/>
      <point x="253" y="570.6"/>
      <point x="258.4" y="576"/>
      <point x="265" y="576" type="curve" smooth="yes"/>
      <point x="372.59473" y="576" type="line" smooth="yes"/>
      <point x="463.59473" y="576"/>
      <point x="478.22684" y="563.91144"/>
      <point x="478.22684" y="484.91144" type="curve" smooth="yes"/>
      <point x="478.22684" y="405.91144"/>
      <point x="463.52869" y="393"/>
      <point x="372.52869" y="393" type="curve" smooth="yes"/>
    </contour>
  </outline>
</glyph>
<glyph name="R" format="2">
  <advance width="726"/>
  <unicode hex="0052"/>
  <anchor x="349" y="0" name="bottom"/>
  <anchor x="348" y="705" name="top"/>
  <outline>
    <contour>
      <point x="69" y="4.65354"/>
      <point x="120" y="-48.22146"/>
      <point x="161" y="-48.22146" type="curve" smooth="yes"/>
      <point x="203" y="-48.22146"/>
      <point x="253" y="4.65354"/>
      <point x="253" y="46.65354" type="curve" smooth="yes"/>
      <point x="253" y="242" type="line"/>
      <point x="253" y="248.6"/>
      <point x="258.4" y="254"/>
      <point x="265" y="254" type="curve" smooth="yes"/>
      <point x="312.89005" y="254" type="line" smooth="yes"/>
      <point x="362.89005" y="254"/>
      <point x="380.35178" y="249.34933"/>
      <point x="404.35178" y="204.34933" type="curve" smooth="yes"/>
      <point x="504.85873" y="19.25735" type="line" smooth="yes"/>
      <point x="521.85873" y="-12.74264"/>
      <point x="574.69177" y="-47.96091"/>
      <point x="610.69177" y="-47.96091" type="curve" smooth="yes"/>
      <point x="664.69177" y="-47.96091"/>
      <point x="699.70703" y="35.20166"/>
      <point x="676.70703" y="78.20167" type="curve" smooth="yes"/>
      <point x="592.42108" y="234.41168" type="line" smooth="yes"/>
      <point x="569.95935" y="275.71234"/>
      <point x="558.4281" y="286.29843"/>
      <point x="524.61426" y="296.95074" type="curve"/>
      <point x="626.47278" y="320.93567"/>
      <point x="683.53448" y="392.48636"/>
      <point x="683.53448" y="497.55017" type="curve" smooth="yes"/>
      <point x="683.53448" y="630.55017"/>
      <point x="568.49249" y="733"/>
      <point x="413.49249" y="733" type="curve" smooth="yes"/>
      <point x="150.40202" y="733" type="line" smooth="yes"/>
      <point x="108.40202" y="733"/>
      <point x="69" y="693.59796"/>
      <point x="69" y="651.59796" type="curve" smooth="yes"/>
      <point x="69" y="46.65354" type="line" smooth="yes"/>
    </contour>
    <contour>
      <point x="265" y="405" type="line"/>
      <point x="258.4" y="405"/>
      <point x="253" y="410.4"/>
      <point x="253" y="417" type="curve" smooth="yes"/>
      <point x="253" y="564" type="line"/>
      <point x="253" y="570.6"/>
      <point x="258.4" y="576"/>
      <point x="265" y="576" type="curve" smooth="yes"/>
      <point x="371.10983" y="576" type="line" smooth="yes"/>
      <point x="463.10983" y="576"/>
      <point x="476.53827" y="565.90417"/>
      <point x="476.53827" y="490.90417" type="curve" smooth="yes"/>
      <point x="476.53827" y="414.90417"/>
      <point x="463.04193" y="405"/>
      <point x="371.04193" y="405" type="curve" smooth="yes"/>
    </contour>
  </outline>
</glyph>
<glyph name="S" format="2">
  <advance width="671"/>
  <unicode hex="0053"/>
  <anchor x="323" y="0" name="bottom"/>
  <anchor x="325" y="705" name="top"/>
  <outline>
    <contour>
      <point x="121.45979" y="-9.01067"/>
      <point x="257.28532" y="-40.41952"/>
      <point x="346.28531" y="-40.41952" type="curve" smooth="yes"/>
      <point x="516.28531" y="-40.41952"/>
      <point x="661.12634" y="72.67506"/>
      <point x="661.12634" y="199.67505" type="curve" smooth="yes"/>
      <point x="661.12634" y="299.67505"/>
      <point x="567.52966" y="385.76169"/>
      <point x="435.52966" y="413.76169" type="curve" smooth="yes"/>
      <point x="325.79758" y="436.91617" type="line" smooth="yes"/>
      <point x="281.3924" y="446.14322"/>
      <point x="263.77386" y="449.73694"/>
      <point x="256.81471" y="460.33203" type="curve" smooth="yes"/>
      <point x="251.70647" y="468.10916"/>
      <point x="252.34151" y="479.65863"/>
      <point x="252.34151" y="499.97748" type="curve" smooth="yes"/>
      <point x="252.34151" y="562.97748"/>
      <point x="267.77374" y="576.71478"/>
      <point x="359.77374" y="576.71478" type="curve" smooth="yes"/>
      <point x="417.77374" y="576.71478"/>
      <point x="473.97296" y="563.92645"/>
      <point x="523.97296" y="535.92645" type="curve" smooth="yes"/>
      <point x="593.97296" y="496.92645"/>
      <point x="663.57489" y="635.88959"/>
      <point x="609.57489" y="672.88959" type="curve" smooth="yes"/>
      <point x="552.57489" y="711.88959"/>
      <point x="428.79248" y="745.80975"/>
      <point x="348.79248" y="745.80975" type="curve" smooth="yes"/>
      <point x="185.7925" y="745.80975"/>
      <point x="38.30392" y="630.677"/>
      <point x="38.30392" y="499.677" type="curve" smooth="yes"/>
      <point x="38.30392" y="395.677"/>
      <point x="126.9053" y="305.34155"/>
      <point x="253.9053" y="278.34155" type="curve" smooth="yes"/>
      <point x="365.91666" y="254.92099" type="line" smooth="yes"/>
      <point x="414.35419" y="244.87906"/>
      <point x="432.2186" y="241.99655"/>
      <point x="438.72784" y="231.83803" type="curve" smooth="yes"/>
      <point x="443.2381" y="224.79918"/>
      <point x="442.2966" y="214.26701"/>
      <point x="442.2966" y="195.43929" type="curve" smooth="yes"/>
      <point x="442.2966" y="139.43929"/>
      <point x="440.26849" y="128.10373"/>
      <point x="335.26849" y="128.10373" type="curve" smooth="yes"/>
      <point x="263.26851" y="128.10373"/>
      <point x="186.29747" y="145.90247"/>
      <point x="128.29746" y="180.90247" type="curve" smooth="yes"/>
      <point x="63.29747" y="219.90247"/>
      <point x="-1.5402" y="69.98933"/>
      <point x="59.4598" y="30.98932" type="curve" smooth="yes"/>
    </contour>
  </outline>
</glyph>
<glyph name="T" format="2">
  <advance width="681"/>
  <unicode hex="0054"/>
  <anchor x="331" y="0" name="bottom"/>
  <anchor x="331" y="358" name="center"/>
  <anchor x="331" y="705" name="top"/>
  <outline>
    <contour>
      <point x="259" y="5"/>
      <point x="310" y="-48"/>
      <point x="351" y="-48" type="curve" smooth="yes"/>
      <point x="393" y="-48"/>
      <point x="443" y="5"/>
      <point x="443" y="47" type="curve" smooth="yes"/>
      <point x="443" y="558" type="line"/>
      <point x="443" y="565"/>
      <point x="448" y="570"/>
      <point x="455" y="570" type="curve" smooth="yes"/>
      <point x="621" y="570" type="line" smooth="yes"/>
      <point x="656" y="570"/>
      <point x="705" y="618"/>
      <point x="705" y="652" type="curve" smooth="yes"/>
      <point x="705" y="686"/>
      <point x="656" y="733"/>
      <point x="621" y="733" type="curve" smooth="yes"/>
      <point x="81" y="733" type="line" smooth="yes"/>
      <point x="46" y="733"/>
      <point x="-3" y="686"/>
      <point x="-3" y="652" type="curve" smooth="yes"/>
      <point x="-3" y="618"/>
      <point x="46" y="570"/>
      <point x="81" y="570" type="curve" smooth="yes"/>
      <point x="247" y="570" type="line"/>
      <point x="254" y="570"/>
      <point x="259" y="565"/>
      <point x="259" y="558" type="curve" smooth="yes"/>
      <point x="259" y="47" type="line" smooth="yes"/>
    </contour>
  </outline>
</glyph>
<glyph name="U" format="2">
  <advance width="778"/>
  <unicode hex="0055"/>
  <anchor x="370" y="0" name="bottom"/>
  <anchor x="427" y="0" name="ogonek"/>
  <anchor x="370" y="705" name="top"/>
  <anchor x="573" y="705" name="topright"/>
  <outline>
    <contour>
      <point x="64" y="80.42948"/>
      <point x="196.06688" y="-49.73159"/>
      <point x="390.06689" y="-49.73159" type="curve" smooth="yes"/>
      <point x="584.06689" y="-49.73159"/>
      <point x="714" y="80.48463"/>
      <point x="714" y="277.48462" type="curve" smooth="yes"/>
      <point x="714" y="659.34253" type="line" smooth="yes"/>
      <point x="714" y="701.34253"/>
      <point x="663.15771" y="753.06873"/>
      <point x="623.15771" y="753.06873" type="curve" smooth="yes"/>
      <point x="582.15771" y="753.06873"/>
      <point x="531" y="701.47101"/>
      <point x="531" y="659.47101" type="curve" smooth="yes"/>
      <point x="531" y="300.65082" type="line" smooth="yes"/>
      <point x="531" y="173.65082"/>
      <point x="500.93835" y="142.06081"/>
      <point x="389.93835" y="142.06081" type="curve" smooth="yes"/>
      <point x="278.93835" y="142.06081"/>
      <point x="248" y="173.69781"/>
      <point x="248" y="300.69781" type="curve" smooth="yes"/>
      <point x="248" y="659.47101" type="line" smooth="yes"/>
      <point x="248" y="701.47101"/>
      <point x="197" y="752.90851"/>
      <point x="156" y="752.90851" type="curve" smooth="yes"/>
      <point x="115" y="752.90851"/>
      <point x="64" y="701.47101"/>
      <point x="64" y="659.47101" type="curve" smooth="yes"/>
      <point x="64" y="277.42947" type="line" smooth="yes"/>
    </contour>
  </outline>
</glyph>
<glyph name="V" format="2">
  <advance width="753"/>
  <unicode hex="0056"/>
  <anchor x="357" y="0" name="bottom"/>
  <anchor x="356" y="705" name="top"/>
  <outline>
    <contour>
      <point x="296.64417" y="-10.62596"/>
      <point x="341.10962" y="-42.01325"/>
      <point x="377.10962" y="-42.01325" type="curve" smooth="yes"/>
      <point x="414.10962" y="-42.01325"/>
      <point x="456.39545" y="-10.537"/>
      <point x="471.39545" y="23.463" type="curve" smooth="yes"/>
      <point x="741.315" y="629.48932" type="line" smooth="yes"/>
      <point x="763.315" y="678.48932"/>
      <point x="714.00323" y="753.99982"/>
      <point x="671.00323" y="753.99982" type="curve" smooth="yes"/>
      <point x="635.00323" y="753.99982"/>
      <point x="585.33075" y="714.177"/>
      <point x="571.33075" y="682.177" type="curve" smooth="yes"/>
      <point x="384.08908" y="245.80867" type="line"/>
      <point x="381.48655" y="239.74346"/>
      <point x="377.21697" y="239.73877"/>
      <point x="374.60113" y="245.79825" type="curve" smooth="yes"/>
      <point x="186.69972" y="681.06354" type="line" smooth="yes"/>
      <point x="172.69972" y="714.06354"/>
      <point x="126.2339" y="753.46484"/>
      <point x="88.2339" y="753.46484" type="curve" smooth="yes"/>
      <point x="43.23391" y="753.46484"/>
      <point x="-10.62897" y="680.19421"/>
      <point x="11.37103" y="630.19421" type="curve" smooth="yes"/>
      <point x="281.64417" y="23.37404" type="line" smooth="yes"/>
    </contour>
  </outline>
</glyph>
<glyph name="W" format="2">
  <advance width="1153"/>
  <unicode hex="0057"/>
  <anchor x="557" y="0" name="bottom"/>
  <anchor x="557" y="705" name="top"/>
  <outline>
    <contour>
      <point x="264.35638" y="-8.1239"/>
      <point x="309.08832" y="-43.43139"/>
      <point x="345.08832" y="-43.43139" type="curve" smooth="yes"/>
      <point x="381.08832" y="-43.43139"/>
      <point x="423.6637" y="-8.05646"/>
      <point x="436.6637" y="27.94354" type="curve" smooth="yes"/>
      <point x="573.31821" y="414.0604" type="line"/>
      <point x="575.52024" y="420.28222"/>
      <point x="579.10852" y="420.27692"/>
      <point x="581.29217" y="414.04863" type="curve" smooth="yes"/>
      <point x="716.29089" y="28.99961" type="line" smooth="yes"/>
      <point x="729.29089" y="-8.00039"/>
      <point x="772.83966" y="-43.42984"/>
      <point x="808.83966" y="-43.42984" type="curve" smooth="yes"/>
      <point x="844.83966" y="-43.42984"/>
      <point x="888.60327" y="-8.17665"/>
      <point x="901.60327" y="27.82335" type="curve" smooth="yes"/>
      <point x="1120.11108" y="640.88794" type="line" smooth="yes"/>
      <point x="1135.11108" y="683.88794"/>
      <point x="1087.28418" y="753.88483"/>
      <point x="1044.28418" y="753.88483" type="curve" smooth="yes"/>
      <point x="1009.28418" y="753.88483"/>
      <point x="961.15143" y="712.77863"/>
      <point x="949.15143" y="677.77863" type="curve" smooth="yes"/>
      <point x="811.40721" y="273.46853" type="line"/>
      <point x="809.27879" y="267.22115"/>
      <point x="805.79868" y="267.22209"/>
      <point x="803.67365" y="273.47062" type="curve" smooth="yes"/>
      <point x="667.05908" y="675.17657" type="line" smooth="yes"/>
      <point x="654.05908" y="712.17657"/>
      <point x="613.45709" y="749.73315"/>
      <point x="581.45709" y="749.73315" type="curve" smooth="yes"/>
      <point x="549.45709" y="749.73315"/>
      <point x="506.17233" y="712.62238"/>
      <point x="493.17233" y="676.62238" type="curve" smooth="yes"/>
      <point x="354.01618" y="280.30816" type="line"/>
      <point x="351.82962" y="274.08088"/>
      <point x="348.32303" y="274.1054"/>
      <point x="346.22374" y="280.36264" type="curve" smooth="yes"/>
      <point x="212.87216" y="677.83807" type="line" smooth="yes"/>
      <point x="200.87216" y="713.83807"/>
      <point x="153.80476" y="752.73969"/>
      <point x="117.80476" y="752.73969" type="curve" smooth="yes"/>
      <point x="67.80476" y="752.73969"/>
      <point x="19.60222" y="684.80298"/>
      <point x="34.60222" y="641.80298" type="curve" smooth="yes"/>
      <point x="251.35638" y="28.8761" type="line" smooth="yes"/>
    </contour>
  </outline>
</glyph>
<glyph name="X" format="2">
  <advance width="712"/>
  <unicode hex="0058"/>
  <anchor x="337" y="0" name="bottom"/>
  <anchor x="336" y="705" name="top"/>
  <outline>
    <contour>
      <point x="10.05622" y="40.75698"/>
      <point x="60.00193" y="-47.7032"/>
      <point x="110.00193" y="-47.7032" type="curve" smooth="yes"/>
      <point x="137.00193" y="-47.7032"/>
      <point x="186.40576" y="-16.92437"/>
      <point x="208.40576" y="13.07563" type="curve" smooth="yes"/>
      <point x="349.0619" y="206.57087" type="line"/>
      <point x="352.94261" y="211.90941"/>
      <point x="359.30383" y="211.9174"/>
      <point x="363.19794" y="206.58862" type="curve" smooth="yes"/>
      <point x="504.56836" y="13.13438" type="line" smooth="yes"/>
      <point x="526.56836" y="-16.86562"/>
      <point x="575.90527" y="-47.88278"/>
      <point x="601.90527" y="-47.88278" type="curve" smooth="yes"/>
      <point x="652.90527" y="-47.88278"/>
      <point x="701.92499" y="40.7206"/>
      <point x="669.92499" y="83.7206" type="curve" smooth="yes"/>
      <point x="471.67959" y="348.91726" type="line"/>
      <point x="467.72791" y="354.2035"/>
      <point x="467.72523" y="362.8557"/>
      <point x="471.67363" y="368.14438" type="curve" smooth="yes"/>
      <point x="659.66107" y="619.94409" type="line" smooth="yes"/>
      <point x="693.66107" y="664.94409"/>
      <point x="643.72595" y="752.76587"/>
      <point x="594.72595" y="752.76587" type="curve" smooth="yes"/>
      <point x="566.72595" y="752.76587"/>
      <point x="516.6438" y="722.02515"/>
      <point x="495.6438" y="693.02515" type="curve" smooth="yes"/>
      <point x="363.40275" y="509.80847" type="line"/>
      <point x="359.54009" y="504.45685"/>
      <point x="353.2078" y="504.44847"/>
      <point x="349.33099" y="509.78985" type="curve" smooth="yes"/>
      <point x="216.37941" y="692.96753" type="line" smooth="yes"/>
      <point x="195.37941" y="721.96753"/>
      <point x="145.36296" y="752.94775"/>
      <point x="118.36296" y="752.94775" type="curve" smooth="yes"/>
      <point x="69.36296" y="752.94775"/>
      <point x="20.33893" y="663.94409"/>
      <point x="53.33893" y="619.94409" type="curve" smooth="yes"/>
      <point x="241.25402" y="368.2413" type="line"/>
      <point x="245.20241" y="362.95262"/>
      <point x="245.19066" y="354.30722"/>
      <point x="241.22789" y="349.0293" type="curve" smooth="yes"/>
      <point x="42.05622" y="83.75698" type="line" smooth="yes"/>
    </contour>
  </outline>
</glyph>
<glyph name="Y" format="2">
  <advance width="658"/>
  <unicode hex="0059"/>
  <anchor x="310" y="0" name="bottom"/>
  <anchor x="309" y="705" name="top"/>
  <anchor x="17" y="705" name="topleft"/>
  <outline>
    <contour>
      <point x="237" y="4.77582"/>
      <point x="288" y="-48.53668"/>
      <point x="329" y="-48.53668" type="curve" smooth="yes"/>
      <point x="371" y="-48.53668"/>
      <point x="421" y="4.77582"/>
      <point x="421" y="47.77582" type="curve" smooth="yes"/>
      <point x="421" y="301.87048" type="line"/>
      <point x="421" y="308.47048"/>
      <point x="424.11767" y="318.27958"/>
      <point x="427.92816" y="323.66847" type="curve" smooth="yes"/>
      <point x="638.19495" y="621.03326" type="line" smooth="yes"/>
      <point x="668.19495" y="664.03326"/>
      <point x="629.33893" y="753.13544"/>
      <point x="577.33893" y="753.13544" type="curve" smooth="yes"/>
      <point x="548.33893" y="753.13544"/>
      <point x="498.53534" y="721.95972"/>
      <point x="477.53534" y="692.95972" type="curve" smooth="yes"/>
      <point x="338.04104" y="496.11774" type="line"/>
      <point x="334.22495" y="490.73282"/>
      <point x="327.99202" y="490.741"/>
      <point x="324.19008" y="496.13593" type="curve" smooth="yes"/>
      <point x="185.49751" y="692.93994" type="line" smooth="yes"/>
      <point x="165.49751" y="720.93994"/>
      <point x="114.19778" y="752.20886"/>
      <point x="87.19778" y="752.20886" type="curve" smooth="yes"/>
      <point x="33.19778" y="752.20886"/>
      <point x="-7.86349" y="658.90265"/>
      <point x="18.13651" y="622.90265" type="curve" smooth="yes"/>
      <point x="230.04699" y="324.82111" type="line"/>
      <point x="233.87115" y="319.44191"/>
      <point x="237" y="309.64074"/>
      <point x="237" y="303.04074" type="curve" smooth="yes"/>
      <point x="237" y="47.77582" type="line" smooth="yes"/>
    </contour>
  </outline>
</glyph>
<glyph name="Z" format="2">
  <advance width="652"/>
  <unicode hex="005A"/>
  <anchor x="321" y="0" name="bottom"/>
  <anchor x="320" y="705" name="top"/>
  <outline>
    <contour>
      <point x="18" y="65"/>
      <point x="47" y="-28"/>
      <point x="113" y="-28" type="curve" smooth="yes"/>
      <point x="573" y="-28" type="line" smooth="yes"/>
      <point x="610" y="-28"/>
      <point x="660" y="19"/>
      <point x="660" y="54" type="curve" smooth="yes"/>
      <point x="660" y="89"/>
      <point x="610" y="135"/>
      <point x="573" y="135" type="curve" smooth="yes"/>
      <point x="291" y="135" type="line"/>
      <point x="284" y="135"/>
      <point x="282" y="139"/>
      <point x="286" y="145" type="curve" smooth="yes"/>
      <point x="607" y="579" type="line" smooth="yes"/>
      <point x="653" y="641"/>
      <point x="623" y="733"/>
      <point x="557" y="733" type="curve" smooth="yes"/>
      <point x="112" y="733" type="line" smooth="yes"/>
      <point x="75" y="733"/>
      <point x="25" y="686"/>
      <point x="25" y="652" type="curve" smooth="yes"/>
      <point x="25" y="617"/>
      <point x="75" y="570"/>
      <point x="112" y="570" type="curve" smooth="yes"/>
      <point x="378" y="570" type="line"/>
      <point x="385" y="570"/>
      <point x="387" y="566"/>
      <point x="383" y="560" type="curve" smooth="yes"/>
      <point x="63" y="126" type="line" smooth="yes"/>
    </contour>
  </outline>
</glyph>
<glyph name="bracketleft" format="2">
  <advance width="394"/>
  <unicode hex="005B"/>
  <outline>
    <contour>
      <point x="98" y="-169.7545"/>
      <point x="137.55792" y="-208"/>
      <point x="167.55792" y="-208" type="curve" smooth="yes"/>
      <point x="333.42572" y="-208" type="line" smooth="yes"/>
      <point x="363.42572" y="-208"/>
      <point x="410.02145" y="-160"/>
      <point x="410.02145" y="-133" type="curve" smooth="yes"/>
      <point x="410.02145" y="-106"/>
      <point x="363.42572" y="-58"/>
      <point x="333.42572" y="-58" type="curve" smooth="yes"/>
      <point x="291" y="-58" type="line"/>
      <point x="284.4" y="-58"/>
      <point x="279" y="-52.6"/>
      <point x="279" y="-46" type="curve" smooth="yes"/>
      <point x="279" y="571" type="line"/>
      <point x="279" y="577.6"/>
      <point x="284.4" y="583"/>
      <point x="291" y="583" type="curve" smooth="yes"/>
      <point x="333.42572" y="583" type="line" smooth="yes"/>
      <point x="363.42572" y="583"/>
      <point x="410.02145" y="631"/>
      <point x="410.02145" y="658" type="curve" smooth="yes"/>
      <point x="410.02145" y="685"/>
      <point x="363.42572" y="733"/>
      <point x="333.42572" y="733" type="curve" smooth="yes"/>
      <point x="167.55792" y="733" type="line" smooth="yes"/>
      <point x="137.55792" y="733"/>
      <point x="98" y="694.75452"/>
      <point x="98" y="664.75452" type="curve" smooth="yes"/>
      <point x="98" y="-139.7545" type="line" smooth="yes"/>
    </contour>
  </outline>
</glyph>
<glyph name="backslash" format="2">
  <advance width="353"/>
  <unicode hex="005C"/>
  <outline>
    <contour>
      <point x="226.8185" y="-63.91141" type="line" smooth="yes"/>
      <point x="246.8185" y="-126.91141"/>
      <point x="395.3447" y="-84.39801"/>
      <point x="374.3447" y="-18.39801" type="curve" smooth="yes"/>
      <point x="126.25298" y="751.65283" type="line" smooth="yes"/>
      <point x="105.25298" y="815.65283"/>
      <point x="-41.41866" y="772.66553"/>
      <point x="-21.41866" y="707.66553" type="curve" smooth="yes"/>
    </contour>
  </outline>
</glyph>
<glyph name="bracketright" format="2">
  <advance width="394"/>
  <unicode hex="005D"/>
  <outline>
    <contour>
      <point x="-16.02145" y="-160"/>
      <point x="30.57429" y="-208"/>
      <point x="60.57429" y="-208" type="curve" smooth="yes"/>
      <point x="226.44208" y="-208" type="line" smooth="yes"/>
      <point x="256.44208" y="-208"/>
      <point x="296" y="-169.7545"/>
      <point x="296" y="-139.7545" type="curve" smooth="yes"/>
      <point x="296" y="664.75452" type="line" smooth="yes"/>
      <point x="296" y="694.75452"/>
      <point x="256.44208" y="733"/>
      <point x="226.44208" y="733" type="curve" smooth="yes"/>
      <point x="60.57429" y="733" type="line" smooth="yes"/>
      <point x="30.57429" y="733"/>
      <point x="-16.02145" y="685"/>
      <point x="-16.02145" y="658" type="curve" smooth="yes"/>
      <point x="-16.02145" y="631"/>
      <point x="30.57429" y="583"/>
      <point x="60.57429" y="583" type="curve" smooth="yes"/>
      <point x="103" y="583" type="line"/>
      <point x="109.6" y="583"/>
      <point x="115" y="577.6"/>
      <point x="115" y="571" type="curve" smooth="yes"/>
      <point x="115" y="-46" type="line"/>
      <point x="115" y="-52.6"/>
      <point x="109.6" y="-58"/>
      <point x="103" y="-58" type="curve" smooth="yes"/>
      <point x="60.57429" y="-58" type="line" smooth="yes"/>
      <point x="30.57429" y="-58"/>
      <point x="-16.02145" y="-106"/>
      <point x="-16.02145" y="-133" type="curve" smooth="yes"/>
    </contour>
  </outline>
</glyph>
<glyph name="asciicircum" format="2">
  <advance width="640"/>
  <unicode hex="005E"/>
  <outline>
    <contour>
      <point x="42.45118" y="157.36491"/>
      <point x="80.26741" y="90.54979"/>
      <point x="120.26741" y="90.54979" type="curve" smooth="yes"/>
      <point x="143.26741" y="90.54979"/>
      <point x="185.07179" y="123.64695"/>
      <point x="197.07179" y="152.64696" type="curve" smooth="yes"/>
      <point x="315.68027" y="434.09079" type="line"/>
      <point x="318.24339" y="440.17276"/>
      <point x="322.42751" y="440.16853"/>
      <point x="324.97831" y="434.08138" type="curve" smooth="yes"/>
      <point x="442.90479" y="152.66589" type="line" smooth="yes"/>
      <point x="454.90479" y="123.66589"/>
      <point x="497.7326" y="90.54979"/>
      <point x="519.7326" y="90.54979" type="curve" smooth="yes"/>
      <point x="560.7326" y="90.54979"/>
      <point x="598.54883" y="156.36491"/>
      <point x="583.54883" y="190.36491" type="curve" smooth="yes"/>
      <point x="403.51407" y="613.60449" type="line" smooth="yes"/>
      <point x="391.51407" y="641.60449"/>
      <point x="350" y="669.73694"/>
      <point x="320" y="669.73694" type="curve" smooth="yes"/>
      <point x="291" y="669.73694"/>
      <point x="248.48593" y="642.60449"/>
      <point x="236.48593" y="613.60449" type="curve" smooth="yes"/>
      <point x="56.45118" y="190.36491" type="line" smooth="yes"/>
    </contour>
  </outline>
</glyph>
<glyph name="underscore" format="2">
  <advance width="540"/>
  <unicode hex="005F"/>
  <outline>
    <contour>
      <point x="-8.9401" y="-59.27238"/>
      <point x="38.03571" y="-103"/>
      <point x="61.03571" y="-103" type="curve" smooth="yes"/>
      <point x="480.16876" y="-103" type="line" smooth="yes"/>
      <point x="502.16876" y="-103"/>
      <point x="548.39862" y="-59.26913"/>
      <point x="548.39862" y="-38.26913" type="curve" smooth="yes"/>
      <point x="548.39862" y="-17.26913"/>
      <point x="502.38556" y="28"/>
      <point x="480.38556" y="28" type="curve" smooth="yes"/>
      <point x="60.82029" y="28" type="line" smooth="yes"/>
      <point x="37.8203" y="28"/>
      <point x="-8.9401" y="-17.27238"/>
      <point x="-8.9401" y="-38.27238" type="curve" smooth="yes"/>
    </contour>
  </outline>
</glyph>
<glyph name="a" format="2">
  <advance width="615"/>
  <unicode hex="0061"/>
  <anchor x="303" y="0" name="bottom"/>
  <anchor x="478" y="0" name="ogonek"/>
  <anchor x="307" y="484" name="top"/>
  <outline>
    <contour>
      <point x="41" y="63"/>
      <point x="165" y="-45"/>
      <point x="271" y="-45" type="curve" smooth="yes"/>
      <point x="340" y="-45"/>
      <point x="363" y="-35"/>
      <point x="388" y="26" type="curve" smooth="yes"/>
      <point x="396" y="48" type="line" smooth="yes"/>
      <point x="408" y="80"/>
      <point x="376" y="77"/>
      <point x="393" y="34" type="curve" smooth="yes"/>
      <point x="399" y="15"/>
      <point x="439" y="-53"/>
      <point x="477" y="-53" type="curve" smooth="yes"/>
      <point x="514" y="-53"/>
      <point x="561" y="4"/>
      <point x="561" y="45" type="curve" smooth="yes"/>
      <point x="561" y="308" type="line" smooth="yes"/>
      <point x="561" y="447"/>
      <point x="474" y="529"/>
      <point x="331" y="529" type="curve" smooth="yes"/>
      <point x="284" y="529"/>
      <point x="181" y="510"/>
      <point x="120" y="485" type="curve" smooth="yes"/>
      <point x="58" y="460"/>
      <point x="102" y="311"/>
      <point x="166" y="341" type="curve" smooth="yes"/>
      <point x="215" y="364"/>
      <point x="270" y="374"/>
      <point x="309" y="374" type="curve" smooth="yes"/>
      <point x="371" y="374"/>
      <point x="384" y="368"/>
      <point x="386" y="318" type="curve"/>
      <point x="372" y="318" type="line" smooth="yes"/>
      <point x="160" y="318"/>
      <point x="41" y="258"/>
      <point x="41" y="151" type="curve" smooth="yes"/>
    </contour>
    <contour>
      <point x="391" y="120"/>
      <point x="390" y="103"/>
      <point x="321" y="103" type="curve" smooth="yes"/>
      <point x="258" y="103"/>
      <point x="251" y="114"/>
      <point x="251" y="152" type="curve" smooth="yes"/>
      <point x="251" y="184"/>
      <point x="270" y="195"/>
      <point x="321" y="195" type="curve" smooth="yes"/>
      <point x="380" y="195"/>
      <point x="391" y="187"/>
      <point x="391" y="152" type="curve" smooth="yes"/>
    </contour>
  </outline>
</glyph>
<glyph name="b" format="2">
  <advance width="638"/>
  <unicode hex="0062"/>
  <anchor x="305" y="0" name="bottom"/>
  <anchor x="311" y="705" name="top"/>
  <outline>
    <contour>
      <point x="145" y="-48" type="curve" smooth="yes"/>
      <point x="179" y="-48"/>
      <point x="219" y="-9"/>
      <point x="229" y="28" type="curve"/>
      <point x="245" y="-16"/>
      <point x="309" y="-46"/>
      <point x="372" y="-46" type="curve" smooth="yes"/>
      <point x="500" y="-46"/>
      <point x="617" y="88"/>
      <point x="617" y="245" type="curve" smooth="yes"/>
      <point x="617" y="402"/>
      <point x="501" y="534"/>
      <point x="372" y="534" type="curve" smooth="yes"/>
      <point x="303" y="534"/>
      <point x="265" y="513"/>
      <point x="236" y="463" type="curve"/>
      <point x="236" y="662" type="line" smooth="yes"/>
      <point x="236" y="703"/>
      <point x="185" y="753"/>
      <point x="145" y="753" type="curve" smooth="yes"/>
      <point x="105" y="753"/>
      <point x="55" y="702"/>
      <point x="55" y="661" type="curve" smooth="yes"/>
      <point x="55" y="45" type="line" smooth="yes"/>
      <point x="55" y="4"/>
      <point x="105" y="-48"/>
    </contour>
    <contour>
      <point x="330" y="131" type="curve" smooth="yes"/>
      <point x="255" y="131"/>
      <point x="241" y="139"/>
      <point x="241" y="245" type="curve" smooth="yes"/>
      <point x="241" y="351"/>
      <point x="255" y="358"/>
      <point x="330" y="358" type="curve" smooth="yes"/>
      <point x="404" y="358"/>
      <point x="419" y="351"/>
      <point x="419" y="245" type="curve" smooth="yes"/>
      <point x="419" y="139"/>
      <point x="404" y="131"/>
    </contour>
  </outline>
</glyph>
<glyph name="c" format="2">
  <advance width="512"/>
  <unicode hex="0063"/>
  <anchor x="284" y="0" name="bottom"/>
  <anchor x="284" y="484" name="top"/>
  <outline>
    <contour>
      <point x="18.51807" y="90.19392"/>
      <point x="147.53294" y="-41.3113"/>
      <point x="302.53293" y="-41.3113" type="curve" smooth="yes"/>
      <point x="346.53293" y="-41.3113"/>
      <point x="446.69736" y="-17.2381"/>
      <point x="490.69736" y="9.7619" type="curve" smooth="yes"/>
      <point x="540.69733" y="40.76189"/>
      <point x="483.13824" y="176.336"/>
      <point x="426.13824" y="145.336" type="curve" smooth="yes"/>
      <point x="395.13824" y="128.336"/>
      <point x="359.65021" y="118.79443"/>
      <point x="331.65021" y="118.79443" type="curve" smooth="yes"/>
      <point x="244.65022" y="118.79443"/>
      <point x="222.99454" y="146.82571"/>
      <point x="222.99454" y="245.82571" type="curve" smooth="yes"/>
      <point x="222.99454" y="345.82571"/>
      <point x="244.33777" y="370.10178"/>
      <point x="331.33777" y="370.10178" type="curve" smooth="yes"/>
      <point x="359.33777" y="370.10178"/>
      <point x="395.16193" y="359.69247"/>
      <point x="425.16193" y="342.69247" type="curve" smooth="yes"/>
      <point x="480.16193" y="311.69247"/>
      <point x="548.98889" y="444.90759"/>
      <point x="495.98889" y="477.90759" type="curve" smooth="yes"/>
      <point x="450.98889" y="505.90759"/>
      <point x="346.70319" y="530.2558"/>
      <point x="302.70319" y="530.2558" type="curve" smooth="yes"/>
      <point x="147.70319" y="530.2558"/>
      <point x="18.51807" y="403.19391"/>
      <point x="18.51807" y="247.19392" type="curve" smooth="yes"/>
    </contour>
  </outline>
</glyph>
<glyph name="d" format="2">
  <advance width="640"/>
  <unicode hex="0064"/>
  <anchor x="302" y="0" name="bottom"/>
  <anchor x="296" y="246" name="center"/>
  <anchor x="423" y="588" name="stroke"/>
  <anchor x="301" y="705" name="top"/>
  <anchor x="576" y="705" name="topright"/>
  <outline>
    <contour>
      <point x="21" y="88"/>
      <point x="138" y="-46"/>
      <point x="266" y="-46" type="curve" smooth="yes"/>
      <point x="375" y="-46"/>
      <point x="404" y="-1"/>
      <point x="411" y="32" type="curve" smooth="yes"/>
      <point x="411" y="32" type="line"/>
      <point x="418" y="47"/>
      <point x="406" y="63"/>
      <point x="409" y="35" type="curve" smooth="yes"/>
      <point x="413" y="1"/>
      <point x="460" y="-48"/>
      <point x="493" y="-48" type="curve" smooth="yes"/>
      <point x="533" y="-48"/>
      <point x="583" y="4"/>
      <point x="583" y="45" type="curve" smooth="yes"/>
      <point x="583" y="662" type="line" smooth="yes"/>
      <point x="583" y="703"/>
      <point x="532" y="753"/>
      <point x="492" y="753" type="curve" smooth="yes"/>
      <point x="452" y="753"/>
      <point x="402" y="702"/>
      <point x="402" y="661" type="curve" smooth="yes"/>
      <point x="402" y="474" type="line"/>
      <point x="402" y="467"/>
      <point x="408" y="471"/>
      <point x="402" y="474" type="curve" smooth="yes"/>
      <point x="385" y="519"/>
      <point x="322" y="534"/>
      <point x="252" y="534" type="curve" smooth="yes"/>
      <point x="123" y="534"/>
      <point x="21" y="402"/>
      <point x="21" y="245" type="curve" smooth="yes"/>
    </contour>
    <contour>
      <point x="397" y="139"/>
      <point x="382" y="131"/>
      <point x="308" y="131" type="curve" smooth="yes"/>
      <point x="233" y="131"/>
      <point x="219" y="139"/>
      <point x="219" y="245" type="curve" smooth="yes"/>
      <point x="219" y="351"/>
      <point x="233" y="358"/>
      <point x="308" y="358" type="curve" smooth="yes"/>
      <point x="382" y="358"/>
      <point x="397" y="351"/>
      <point x="397" y="245" type="curve" smooth="yes"/>
    </contour>
  </outline>
</glyph>
<glyph name="e" format="2">
  <advance width="578"/>
  <unicode hex="0065"/>
  <anchor x="280" y="0" name="bottom"/>
  <anchor x="367" y="0" name="ogonek"/>
  <anchor x="280" y="484" name="top"/>
  <outline>
    <contour>
      <point x="14" y="243" type="curve" smooth="yes"/>
      <point x="14" y="87"/>
      <point x="148" y="-41"/>
      <point x="314" y="-41" type="curve" smooth="yes"/>
      <point x="366" y="-41"/>
      <point x="481" y="-14"/>
      <point x="528" y="15" type="curve" smooth="yes"/>
      <point x="588" y="52"/>
      <point x="528" y="185"/>
      <point x="459" y="146" type="curve" smooth="yes"/>
      <point x="420" y="124"/>
      <point x="365" y="116"/>
      <point x="331" y="116" type="curve" smooth="yes"/>
      <point x="286" y="116"/>
      <point x="268" y="112"/>
      <point x="260" y="119" type="curve" smooth="yes"/>
      <point x="252" y="126"/>
      <point x="253" y="144"/>
      <point x="248" y="188" type="curve"/>
      <point x="486" y="188" type="line" smooth="yes"/>
      <point x="517" y="188"/>
      <point x="565" y="225"/>
      <point x="565" y="249" type="curve" smooth="yes"/>
      <point x="565" y="401"/>
      <point x="439" y="540"/>
      <point x="300" y="540" type="curve" smooth="yes"/>
      <point x="157" y="540"/>
      <point x="14" y="394"/>
    </contour>
    <contour>
      <point x="356" y="347" type="curve" smooth="yes"/>
      <point x="356" y="322"/>
      <point x="355" y="309"/>
      <point x="300" y="309" type="curve" smooth="yes"/>
      <point x="251" y="309"/>
      <point x="246" y="317"/>
      <point x="246" y="347" type="curve" smooth="yes"/>
      <point x="246" y="373"/>
      <point x="260" y="381"/>
      <point x="300" y="381" type="curve" smooth="yes"/>
      <point x="347" y="381"/>
      <point x="356" y="375"/>
    </contour>
  </outline>
</glyph>
<glyph name="f" format="2">
  <advance width="404"/>
  <unicode hex="0066"/>
  <anchor x="161" y="0" name="bottom"/>
  <anchor x="161" y="705" name="top"/>
  <outline>
    <contour>
      <point x="90" y="4"/>
      <point x="141" y="-48"/>
      <point x="181" y="-48" type="curve" smooth="yes"/>
      <point x="222" y="-48"/>
      <point x="271" y="4"/>
      <point x="271" y="45" type="curve" smooth="yes"/>
      <point x="271" y="355" type="line" smooth="yes"/>
      <point x="271" y="362"/>
      <point x="276" y="367"/>
      <point x="283" y="367" type="curve" smooth="yes"/>
      <point x="339" y="367" type="line" smooth="yes"/>
      <point x="371" y="367"/>
      <point x="419" y="412"/>
      <point x="419" y="442" type="curve" smooth="yes"/>
      <point x="419" y="472"/>
      <point x="371" y="517"/>
      <point x="339" y="517" type="curve" smooth="yes"/>
      <point x="292" y="517" type="line" smooth="yes"/>
      <point x="286" y="517"/>
      <point x="282" y="521"/>
      <point x="282" y="525" type="curve" smooth="yes"/>
      <point x="282" y="570"/>
      <point x="288" y="582"/>
      <point x="364" y="588" type="curve" smooth="yes"/>
      <point x="398" y="590" type="line" smooth="yes"/>
      <point x="449" y="594"/>
      <point x="446" y="744"/>
      <point x="378" y="738" type="curve" smooth="yes"/>
      <point x="307" y="732" type="line" smooth="yes"/>
      <point x="176" y="720"/>
      <point x="91" y="665"/>
      <point x="91" y="528" type="curve" smooth="yes"/>
      <point x="91" y="522" type="line" smooth="yes"/>
      <point x="91" y="517"/>
      <point x="84" y="517"/>
      <point x="76" y="517" type="curve" smooth="yes"/>
      <point x="61" y="517" type="line" smooth="yes"/>
      <point x="29" y="517"/>
      <point x="-19" y="472"/>
      <point x="-19" y="442" type="curve" smooth="yes"/>
      <point x="-19" y="412"/>
      <point x="29" y="367"/>
      <point x="61" y="367" type="curve" smooth="yes"/>
      <point x="78" y="367" type="line" smooth="yes"/>
      <point x="85" y="367"/>
      <point x="90" y="362"/>
      <point x="90" y="355" type="curve" smooth="yes"/>
      <point x="90" y="45" type="line" smooth="yes"/>
    </contour>
  </outline>
</glyph>
<glyph name="g" format="2">
  <advance width="659"/>
  <unicode hex="0067"/>
  <anchor x="311" y="484" name="top"/>
  <outline>
    <contour>
      <point x="142" y="-198"/>
      <point x="258" y="-220"/>
      <point x="330" y="-220" type="curve" smooth="yes"/>
      <point x="490" y="-220"/>
      <point x="595" y="-122"/>
      <point x="595" y="37" type="curve" smooth="yes"/>
      <point x="595" y="445" type="line" smooth="yes"/>
      <point x="595" y="486"/>
      <point x="545" y="537"/>
      <point x="505" y="537" type="curve" smooth="yes"/>
      <point x="466" y="537"/>
      <point x="414" y="490"/>
      <point x="414" y="449" type="curve"/>
      <point x="436" y="486"/>
      <point x="329" y="534"/>
      <point x="278" y="534" type="curve" smooth="yes"/>
      <point x="146" y="534"/>
      <point x="28" y="402"/>
      <point x="28" y="256" type="curve" smooth="yes"/>
      <point x="28" y="110"/>
      <point x="146" y="-23"/>
      <point x="278" y="-23" type="curve" smooth="yes"/>
      <point x="349" y="-23"/>
      <point x="389" y="-1"/>
      <point x="417" y="54" type="curve"/>
      <point x="417" y="46" type="line" smooth="yes"/>
      <point x="417" y="-40"/>
      <point x="392" y="-64"/>
      <point x="303" y="-64" type="curve" smooth="yes"/>
      <point x="265" y="-64"/>
      <point x="202" y="-56"/>
      <point x="143" y="-27" type="curve" smooth="yes"/>
      <point x="92" y="-2"/>
      <point x="24" y="-138"/>
      <point x="87" y="-170" type="curve" smooth="yes"/>
    </contour>
    <contour>
      <point x="407" y="164"/>
      <point x="395" y="150"/>
      <point x="318" y="150" type="curve" smooth="yes"/>
      <point x="241" y="150"/>
      <point x="229" y="164"/>
      <point x="229" y="256" type="curve" smooth="yes"/>
      <point x="229" y="348"/>
      <point x="241" y="361"/>
      <point x="318" y="361" type="curve" smooth="yes"/>
      <point x="395" y="361"/>
      <point x="407" y="348"/>
      <point x="407" y="256" type="curve" smooth="yes"/>
    </contour>
  </outline>
</glyph>
<glyph name="h" format="2">
  <advance width="583"/>
  <unicode hex="0068"/>
  <anchor x="252" y="0" name="bottom"/>
  <anchor x="252" y="248" name="center"/>
  <anchor x="261" y="352" name="dot"/>
  <anchor x="136" y="588" name="stroke"/>
  <anchor x="252" y="705" name="top"/>
  <anchor x="178" y="705" name="topright"/>
  <outline>
    <contour>
      <point x="15" y="4"/>
      <point x="65" y="-48"/>
      <point x="105" y="-48" type="curve" smooth="yes"/>
      <point x="146" y="-48"/>
      <point x="196" y="4"/>
      <point x="196" y="45" type="curve" smooth="yes"/>
      <point x="196" y="264" type="line" smooth="yes"/>
      <point x="196" y="340"/>
      <point x="213" y="359"/>
      <point x="286" y="359" type="curve" smooth="yes"/>
      <point x="346" y="359"/>
      <point x="348" y="358"/>
      <point x="348" y="282" type="curve" smooth="yes"/>
      <point x="348" y="45" type="line" smooth="yes"/>
      <point x="348" y="4"/>
      <point x="399" y="-48"/>
      <point x="439" y="-48" type="curve" smooth="yes"/>
      <point x="479" y="-48"/>
      <point x="529" y="4"/>
      <point x="529" y="45" type="curve" smooth="yes"/>
      <point x="529" y="308" type="line" smooth="yes"/>
      <point x="529" y="443"/>
      <point x="452" y="534"/>
      <point x="335" y="534" type="curve" smooth="yes"/>
      <point x="267" y="534"/>
      <point x="229" y="516"/>
      <point x="196" y="464" type="curve"/>
      <point x="196" y="662" type="line" smooth="yes"/>
      <point x="196" y="703"/>
      <point x="145" y="753"/>
      <point x="105" y="753" type="curve" smooth="yes"/>
      <point x="65" y="753"/>
      <point x="15" y="702"/>
      <point x="15" y="661" type="curve" smooth="yes"/>
      <point x="15" y="45" type="line" smooth="yes"/>
    </contour>
  </outline>
</glyph>
<glyph name="i" format="2">
  <advance width="319"/>
  <unicode hex="0069"/>
  <anchor x="151" y="0" name="bottom"/>
  <anchor x="188" y="0" name="ogonek"/>
  <outline>
    <contour>
      <point x="81" y="7"/>
      <point x="131" y="-48"/>
      <point x="171" y="-48" type="curve" smooth="yes"/>
      <point x="212" y="-48"/>
      <point x="262" y="7"/>
      <point x="262" y="50" type="curve" smooth="yes"/>
      <point x="262" y="439" type="line" smooth="yes"/>
      <point x="262" y="483"/>
      <point x="211" y="537"/>
      <point x="171" y="537" type="curve" smooth="yes"/>
      <point x="131" y="537"/>
      <point x="81" y="483"/>
      <point x="81" y="439" type="curve" smooth="yes"/>
      <point x="81" y="50" type="line" smooth="yes"/>
    </contour>
    <contour>
      <point x="55" y="613"/>
      <point x="124" y="551"/>
      <point x="171" y="551" type="curve" smooth="yes"/>
      <point x="219" y="551"/>
      <point x="287" y="613"/>
      <point x="287" y="655" type="curve" smooth="yes"/>
      <point x="287" y="698"/>
      <point x="219" y="759"/>
      <point x="171" y="759" type="curve" smooth="yes"/>
      <point x="124" y="759"/>
      <point x="55" y="698"/>
      <point x="55" y="655" type="curve" smooth="yes"/>
    </contour>
  </outline>
</glyph>
<glyph name="l" format="2">
  <advance width="348"/>
  <unicode hex="006C"/>
  <anchor x="181" y="0" name="bottom"/>
  <anchor x="126" y="357" name="center"/>
  <anchor x="311" y="352" name="dot"/>
  <anchor x="116" y="705" name="top"/>
  <anchor x="219" y="705" name="topright"/>
  <outline>
    <contour>
      <point x="46" y="43"/>
      <point x="118" y="-39"/>
      <point x="229" y="-39" type="curve" smooth="yes"/>
      <point x="243" y="-39"/>
      <point x="285" y="-36"/>
      <point x="299" y="-34" type="curve" smooth="yes"/>
      <point x="330" y="-30"/>
      <point x="360" y="12"/>
      <point x="360" y="46" type="curve" smooth="yes"/>
      <point x="360" y="84"/>
      <point x="338" y="126"/>
      <point x="319" y="124" type="curve" smooth="yes"/>
      <point x="310" y="123"/>
      <point x="297" y="122"/>
      <point x="286" y="122" type="curve" smooth="yes"/>
      <point x="238" y="122"/>
      <point x="227" y="132"/>
      <point x="227" y="193" type="curve" smooth="yes"/>
      <point x="227" y="662" type="line" smooth="yes"/>
      <point x="227" y="703"/>
      <point x="176" y="753"/>
      <point x="136" y="753" type="curve" smooth="yes"/>
      <point x="96" y="753"/>
      <point x="46" y="702"/>
      <point x="46" y="661" type="curve" smooth="yes"/>
      <point x="46" y="166" type="line" smooth="yes"/>
    </contour>
  </outline>
</glyph>
<glyph name="m" format="2">
  <advance width="917"/>
  <unicode hex="006D"/>
  <anchor x="440" y="0" name="bottom"/>
  <anchor x="440" y="484" name="top"/>
  <outline>
    <contour>
      <point x="59" y="3.6615"/>
      <point x="108.83974" y="-48.07629"/>
      <point x="148.83974" y="-48.07629" type="curve" smooth="yes"/>
      <point x="189.83974" y="-48.07629"/>
      <point x="240" y="3.53096"/>
      <point x="240" y="44.53096" type="curve" smooth="yes"/>
      <point x="240" y="261.10461" type="line" smooth="yes"/>
      <point x="240" y="342.10461"/>
      <point x="250.04224" y="355.25214"/>
      <point x="316.04224" y="355.25214" type="curve" smooth="yes"/>
      <point x="342.00363" y="355.25214"/>
      <point x="355.30203" y="355.97964"/>
      <point x="362.08685" y="349.68567" type="curve" smooth="yes"/>
      <point x="370.19861" y="342.16077"/>
      <point x="369" y="324.59943"/>
      <point x="369" y="283.75916" type="curve" smooth="yes"/>
      <point x="369" y="44.53096" type="line" smooth="yes"/>
      <point x="369" y="3.53096"/>
      <point x="420.16025" y="-48.07629"/>
      <point x="460.16025" y="-48.07629" type="curve" smooth="yes"/>
      <point x="500.16025" y="-48.07629"/>
      <point x="550" y="3.6615"/>
      <point x="550" y="44.6615" type="curve" smooth="yes"/>
      <point x="550" y="261.10461" type="line" smooth="yes"/>
      <point x="550" y="342.10461"/>
      <point x="561.18152" y="355.42462"/>
      <point x="626.18152" y="355.42462" type="curve" smooth="yes"/>
      <point x="652.69489" y="355.42462"/>
      <point x="666.21454" y="356.10208"/>
      <point x="673.07959" y="349.67337" type="curve" smooth="yes"/>
      <point x="681.23236" y="342.03879"/>
      <point x="680" y="324.38211"/>
      <point x="680" y="283.66666" type="curve" smooth="yes"/>
      <point x="680" y="44.6615" type="line" smooth="yes"/>
      <point x="680" y="3.6615"/>
      <point x="729.83972" y="-48.07629"/>
      <point x="769.83972" y="-48.07629" type="curve" smooth="yes"/>
      <point x="809.83972" y="-48.07629"/>
      <point x="861" y="3.53096"/>
      <point x="861" y="44.53096" type="curve" smooth="yes"/>
      <point x="861" y="308.0206" type="line" smooth="yes"/>
      <point x="861" y="444.0206"/>
      <point x="785.49988" y="535.21167"/>
      <point x="674.49988" y="535.21167" type="curve" smooth="yes"/>
      <point x="601.79272" y="535.21167"/>
      <point x="536" y="496"/>
      <point x="505" y="436" type="curve"/>
      <point x="482" y="501"/>
      <point x="432.69537" y="531.77087"/>
      <point x="361.21884" y="531.77087" type="curve" smooth="yes"/>
      <point x="292.79428" y="531.77087"/>
      <point x="256" y="476"/>
      <point x="226" y="423" type="curve"/>
      <point x="231" y="394"/>
      <point x="233" y="410"/>
      <point x="240" y="426" type="curve" smooth="yes"/>
      <point x="252" y="455"/>
      <point x="209" y="537"/>
      <point x="148" y="537" type="curve" smooth="yes"/>
      <point x="109" y="537"/>
      <point x="59" y="486.33432"/>
      <point x="59" y="445.33432" type="curve" smooth="yes"/>
      <point x="59" y="44.6615" type="line" smooth="yes"/>
    </contour>
  </outline>
</glyph>
<glyph name="n" format="2">
  <advance width="588"/>
  <unicode hex="006E"/>
  <anchor x="257" y="0" name="bottom"/>
  <anchor x="257" y="484" name="top"/>
  <outline>
    <contour>
      <point x="20" y="4"/>
      <point x="70" y="-48"/>
      <point x="110" y="-48" type="curve" smooth="yes"/>
      <point x="151" y="-48"/>
      <point x="201" y="4"/>
      <point x="201" y="45" type="curve" smooth="yes"/>
      <point x="201" y="264" type="line" smooth="yes"/>
      <point x="201" y="340"/>
      <point x="218" y="359"/>
      <point x="291" y="359" type="curve" smooth="yes"/>
      <point x="351" y="359"/>
      <point x="353" y="358"/>
      <point x="353" y="282" type="curve" smooth="yes"/>
      <point x="353" y="45" type="line" smooth="yes"/>
      <point x="353" y="4"/>
      <point x="404" y="-48"/>
      <point x="444" y="-48" type="curve" smooth="yes"/>
      <point x="484" y="-48"/>
      <point x="534" y="4"/>
      <point x="534" y="45" type="curve" smooth="yes"/>
      <point x="534" y="308" type="line" smooth="yes"/>
      <point x="534" y="444"/>
      <point x="457" y="534"/>
      <point x="340" y="534" type="curve" smooth="yes"/>
      <point x="269" y="534"/>
      <point x="227" y="504"/>
      <point x="194" y="449" type="curve"/>
      <point x="194" y="449" type="line"/>
      <point x="196" y="489"/>
      <point x="148" y="537"/>
      <point x="109" y="537" type="curve" smooth="yes"/>
      <point x="70" y="537"/>
      <point x="20" y="486"/>
      <point x="20" y="445" type="curve" smooth="yes"/>
      <point x="20" y="45" type="line" smooth="yes"/>
    </contour>
  </outline>
</glyph>
<glyph name="o" format="2">
  <advance width="616"/>
  <unicode hex="006F"/>
  <anchor x="288" y="0" name="bottom"/>
  <anchor x="288" y="245" name="center"/>
  <anchor x="347" y="0" name="ogonek"/>
  <anchor x="288" y="484" name="top"/>
  <anchor x="347" y="484" name="topright"/>
  <outline>
    <contour>
      <point x="18.75052" y="88.03855"/>
      <point x="156" y="-49.99592"/>
      <point x="308" y="-49.99592" type="curve" smooth="yes"/>
      <point x="459" y="-49.99592"/>
      <point x="597.24945" y="88.03855"/>
      <point x="597.24945" y="245.03854" type="curve" smooth="yes"/>
      <point x="597.24945" y="401.03854"/>
      <point x="459" y="538.91602"/>
      <point x="308" y="538.91602" type="curve" smooth="yes"/>
      <point x="156" y="538.91602"/>
      <point x="18.75052" y="401.03854"/>
      <point x="18.75052" y="245.03854" type="curve" smooth="yes"/>
    </contour>
    <contour>
      <point x="396.53381" y="138.94612"/>
      <point x="382" y="130.70894"/>
      <point x="308" y="130.70894" type="curve" smooth="yes"/>
      <point x="233" y="130.70894"/>
      <point x="219.46617" y="138.94612"/>
      <point x="219.46617" y="244.94612" type="curve" smooth="yes"/>
      <point x="219.46617" y="350.94614"/>
      <point x="233" y="358.46933"/>
      <point x="308" y="358.46933" type="curve" smooth="yes"/>
      <point x="382" y="358.46933"/>
      <point x="396.53381" y="350.94614"/>
      <point x="396.53381" y="244.94612" type="curve" smooth="yes"/>
    </contour>
  </outline>
</glyph>
<glyph name="p" format="2">
  <advance width="640"/>
  <unicode hex="0070"/>
  <anchor x="299" y="0" name="bottom"/>
  <anchor x="299" y="484" name="top"/>
  <outline>
    <contour>
      <point x="57" y="-177"/>
      <point x="107" y="-228"/>
      <point x="147" y="-228" type="curve" smooth="yes"/>
      <point x="187" y="-228"/>
      <point x="238" y="-178"/>
      <point x="238" y="-137" type="curve" smooth="yes"/>
      <point x="238" y="14" type="line" smooth="yes"/>
      <point x="238" y="21"/>
      <point x="234" y="20"/>
      <point x="238" y="14" type="curve" smooth="yes"/>
      <point x="265" y="-24"/>
      <point x="305" y="-41"/>
      <point x="374" y="-45" type="curve" smooth="yes"/>
      <point x="503" y="-53"/>
      <point x="619" y="88"/>
      <point x="619" y="245" type="curve" smooth="yes"/>
      <point x="619" y="402"/>
      <point x="502" y="534"/>
      <point x="374" y="534" type="curve" smooth="yes"/>
      <point x="302" y="534"/>
      <point x="243" y="498"/>
      <point x="229" y="440" type="curve"/>
      <point x="229" y="430" type="line" smooth="yes"/>
      <point x="229" y="419"/>
      <point x="236" y="445"/>
      <point x="234" y="447" type="curve"/>
      <point x="238" y="484"/>
      <point x="186" y="537"/>
      <point x="146" y="537" type="curve" smooth="yes"/>
      <point x="107" y="537"/>
      <point x="57" y="486"/>
      <point x="57" y="445" type="curve" smooth="yes"/>
      <point x="57" y="-136" type="line" smooth="yes"/>
    </contour>
    <contour>
      <point x="421" y="139"/>
      <point x="406" y="131"/>
      <point x="332" y="131" type="curve" smooth="yes"/>
      <point x="257" y="131"/>
      <point x="243" y="139"/>
      <point x="243" y="245" type="curve" smooth="yes"/>
      <point x="243" y="351"/>
      <point x="257" y="358"/>
      <point x="332" y="358" type="curve" smooth="yes"/>
      <point x="406" y="358"/>
      <point x="421" y="351"/>
      <point x="421" y="245" type="curve" smooth="yes"/>
    </contour>
  </outline>
</glyph>
<glyph name="q" format="2">
  <advance width="640"/>
  <unicode hex="0071"/>
  <anchor x="301" y="0" name="bottom"/>
  <anchor x="301" y="484" name="top"/>
  <outline>
    <contour>
      <point x="402" y="-177"/>
      <point x="452" y="-228"/>
      <point x="492" y="-228" type="curve" smooth="yes"/>
      <point x="532" y="-228"/>
      <point x="583" y="-178"/>
      <point x="583" y="-137" type="curve" smooth="yes"/>
      <point x="583" y="445" type="line" smooth="yes"/>
      <point x="583" y="486"/>
      <point x="533" y="537"/>
      <point x="493" y="537" type="curve" smooth="yes"/>
      <point x="453" y="537"/>
      <point x="403" y="486"/>
      <point x="403" y="445" type="curve"/>
      <point x="408" y="440" type="line"/>
      <point x="410" y="440"/>
      <point x="413" y="443"/>
      <point x="410" y="445" type="curve"/>
      <point x="387" y="495"/>
      <point x="337" y="534"/>
      <point x="266" y="534" type="curve" smooth="yes"/>
      <point x="138" y="534"/>
      <point x="21" y="402"/>
      <point x="21" y="245" type="curve" smooth="yes"/>
      <point x="21" y="88"/>
      <point x="137" y="-45"/>
      <point x="266" y="-45" type="curve" smooth="yes"/>
      <point x="336" y="-45"/>
      <point x="374" y="-24"/>
      <point x="402" y="28" type="curve"/>
      <point x="402" y="-136" type="line" smooth="yes"/>
    </contour>
    <contour>
      <point x="397" y="139"/>
      <point x="382" y="131"/>
      <point x="308" y="131" type="curve" smooth="yes"/>
      <point x="233" y="131"/>
      <point x="219" y="139"/>
      <point x="219" y="245" type="curve" smooth="yes"/>
      <point x="219" y="351"/>
      <point x="233" y="358"/>
      <point x="308" y="358" type="curve" smooth="yes"/>
      <point x="382" y="358"/>
      <point x="397" y="351"/>
      <point x="397" y="245" type="curve" smooth="yes"/>
    </contour>
  </outline>
</glyph>
<glyph name="r" format="2">
  <advance width="430"/>
  <unicode hex="0072"/>
  <anchor x="126" y="0" name="bottom"/>
  <anchor x="225" y="484" name="top"/>
  <outline>
    <contour>
      <point x="55" y="3"/>
      <point x="105" y="-48"/>
      <point x="147" y="-48" type="curve" smooth="yes"/>
      <point x="188" y="-48"/>
      <point x="238" y="4"/>
      <point x="238" y="45" type="curve" smooth="yes"/>
      <point x="238" y="252" type="line" smooth="yes"/>
      <point x="238" y="307"/>
      <point x="234" y="332"/>
      <point x="245" y="344" type="curve" smooth="yes"/>
      <point x="256" y="357"/>
      <point x="283" y="356"/>
      <point x="346" y="362" type="curve" smooth="yes"/>
      <point x="369" y="364" type="line" smooth="yes"/>
      <point x="405" y="368"/>
      <point x="448" y="417"/>
      <point x="445" y="451" type="curve" smooth="yes"/>
      <point x="442" y="486"/>
      <point x="391" y="538"/>
      <point x="363" y="535" type="curve" smooth="yes"/>
      <point x="285" y="528"/>
      <point x="252" y="510"/>
      <point x="228" y="451" type="curve"/>
      <point x="222" y="440" type="line"/>
      <point x="222" y="438"/>
      <point x="236" y="446"/>
      <point x="236" y="448" type="curve"/>
      <point x="228" y="488"/>
      <point x="183" y="537"/>
      <point x="144" y="537" type="curve" smooth="yes"/>
      <point x="105" y="537"/>
      <point x="55" y="486"/>
      <point x="55" y="445" type="curve" smooth="yes"/>
      <point x="55" y="44" type="line" smooth="yes"/>
    </contour>
  </outline>
</glyph>
<glyph name="s" format="2">
  <advance width="528"/>
  <unicode hex="0073"/>
  <anchor x="244" y="0" name="bottom"/>
  <anchor x="253" y="484" name="top"/>
  <outline>
    <contour>
      <point x="98" y="-19"/>
      <point x="212" y="-40"/>
      <point x="270" y="-40" type="curve" smooth="yes"/>
      <point x="396" y="-40"/>
      <point x="516" y="45"/>
      <point x="516" y="143" type="curve" smooth="yes"/>
      <point x="516" y="215"/>
      <point x="441" y="288"/>
      <point x="355" y="302" type="curve" smooth="yes"/>
      <point x="255" y="318" type="line" smooth="yes"/>
      <point x="245" y="320"/>
      <point x="237" y="322"/>
      <point x="227" y="327" type="curve" smooth="yes"/>
      <point x="217" y="332"/>
      <point x="216" y="345"/>
      <point x="218" y="355" type="curve" smooth="yes"/>
      <point x="220" y="365"/>
      <point x="227" y="375"/>
      <point x="235" y="378" type="curve" smooth="yes"/>
      <point x="245" y="382"/>
      <point x="270" y="383"/>
      <point x="285" y="381" type="curve" smooth="yes"/>
      <point x="319" y="376"/>
      <point x="366" y="369"/>
      <point x="408" y="348" type="curve" smooth="yes"/>
      <point x="464" y="320"/>
      <point x="528" y="451"/>
      <point x="478" y="479" type="curve" smooth="yes"/>
      <point x="430" y="506"/>
      <point x="332" y="529"/>
      <point x="273" y="529" type="curve" smooth="yes"/>
      <point x="150" y="529"/>
      <point x="29" y="441"/>
      <point x="29" y="346" type="curve" smooth="yes"/>
      <point x="29" y="275"/>
      <point x="101" y="200"/>
      <point x="184" y="185" type="curve" smooth="yes"/>
      <point x="285" y="167" type="line" smooth="yes"/>
      <point x="300" y="164"/>
      <point x="306" y="165"/>
      <point x="316" y="159" type="curve" smooth="yes"/>
      <point x="328" y="152"/>
      <point x="329" y="141"/>
      <point x="327" y="130" type="curve" smooth="yes"/>
      <point x="325" y="121"/>
      <point x="319" y="111"/>
      <point x="310" y="109" type="curve" smooth="yes"/>
      <point x="291" y="105"/>
      <point x="280" y="107"/>
      <point x="260" y="108" type="curve" smooth="yes"/>
      <point x="215" y="110"/>
      <point x="157" y="120"/>
      <point x="104" y="145" type="curve" smooth="yes"/>
      <point x="49" y="171"/>
      <point x="-7" y="42"/>
      <point x="48" y="10" type="curve" smooth="yes"/>
    </contour>
  </outline>
</glyph>
<glyph name="t" format="2">
  <advance width="437"/>
  <unicode hex="0074"/>
  <anchor x="243" y="0" name="bottom"/>
  <anchor x="193" y="261" name="center"/>
  <anchor x="171" y="635" name="top"/>
  <anchor x="288" y="705" name="topright"/>
  <outline>
    <contour>
      <point x="100" y="44"/>
      <point x="181" y="-40"/>
      <point x="312" y="-40" type="curve" smooth="yes"/>
      <point x="333" y="-40"/>
      <point x="394" y="-31"/>
      <point x="411" y="-25" type="curve" smooth="yes"/>
      <point x="434" y="-17"/>
      <point x="456" y="33"/>
      <point x="456" y="60" type="curve" smooth="yes"/>
      <point x="456" y="94"/>
      <point x="425" y="131"/>
      <point x="409" y="130" type="curve" smooth="yes"/>
      <point x="395" y="129"/>
      <point x="375" y="123"/>
      <point x="353" y="123" type="curve" smooth="yes"/>
      <point x="290" y="123"/>
      <point x="281" y="136"/>
      <point x="281" y="200" type="curve" smooth="yes"/>
      <point x="281" y="355" type="line"/>
      <point x="281" y="362"/>
      <point x="286" y="367"/>
      <point x="293" y="367" type="curve" smooth="yes"/>
      <point x="370" y="367" type="line" smooth="yes"/>
      <point x="402" y="367"/>
      <point x="450" y="412"/>
      <point x="450" y="442" type="curve" smooth="yes"/>
      <point x="450" y="472"/>
      <point x="402" y="517"/>
      <point x="370" y="517" type="curve" smooth="yes"/>
      <point x="293" y="517" type="line"/>
      <point x="286" y="517"/>
      <point x="281" y="522"/>
      <point x="281" y="529" type="curve" smooth="yes"/>
      <point x="281" y="591" type="line" smooth="yes"/>
      <point x="281" y="632"/>
      <point x="231" y="683"/>
      <point x="191" y="683" type="curve" smooth="yes"/>
      <point x="151" y="683"/>
      <point x="100" y="633"/>
      <point x="100" y="592" type="curve" smooth="yes"/>
      <point x="100" y="529" type="line"/>
      <point x="100" y="522"/>
      <point x="95" y="517"/>
      <point x="88" y="517" type="curve" smooth="yes"/>
      <point x="65" y="517" type="line" smooth="yes"/>
      <point x="33" y="517"/>
      <point x="-15" y="472"/>
      <point x="-15" y="442" type="curve" smooth="yes"/>
      <point x="-15" y="412"/>
      <point x="33" y="367"/>
      <point x="65" y="367" type="curve" smooth="yes"/>
      <point x="88" y="367" type="line"/>
      <point x="95" y="367"/>
      <point x="100" y="362"/>
      <point x="100" y="355" type="curve" smooth="yes"/>
      <point x="100" y="170" type="line" smooth="yes"/>
    </contour>
  </outline>
</glyph>
<glyph name="u" format="2">
  <advance width="605"/>
  <unicode hex="0075"/>
  <anchor x="275" y="0" name="bottom"/>
  <anchor x="465" y="0" name="ogonek"/>
  <anchor x="275" y="485" name="top"/>
  <anchor x="407" y="484" name="topright"/>
  <outline>
    <contour>
      <point x="40" y="47"/>
      <point x="120" y="-45"/>
      <point x="242" y="-45" type="curve" smooth="yes"/>
      <point x="308" y="-45"/>
      <point x="344" y="-14"/>
      <point x="375" y="39" type="curve"/>
      <point x="383" y="57" type="line"/>
      <point x="383" y="61"/>
      <point x="372" y="44"/>
      <point x="374" y="39" type="curve" smooth="yes"/>
      <point x="387" y="6"/>
      <point x="404" y="-49"/>
      <point x="459" y="-49" type="curve" smooth="yes"/>
      <point x="499" y="-48"/>
      <point x="548" y="4"/>
      <point x="548" y="45" type="curve" smooth="yes"/>
      <point x="548" y="446" type="line" smooth="yes"/>
      <point x="548" y="487"/>
      <point x="497" y="537"/>
      <point x="457" y="537" type="curve" smooth="yes"/>
      <point x="417" y="537"/>
      <point x="367" y="486"/>
      <point x="367" y="445" type="curve" smooth="yes"/>
      <point x="367" y="225" type="line" smooth="yes"/>
      <point x="367" y="149"/>
      <point x="366" y="130"/>
      <point x="299" y="130" type="curve" smooth="yes"/>
      <point x="239" y="130"/>
      <point x="221" y="131"/>
      <point x="221" y="199" type="curve" smooth="yes"/>
      <point x="221" y="446" type="line" smooth="yes"/>
      <point x="221" y="487"/>
      <point x="170" y="537"/>
      <point x="130" y="537" type="curve" smooth="yes"/>
      <point x="90" y="537"/>
      <point x="40" y="486"/>
      <point x="40" y="445" type="curve" smooth="yes"/>
      <point x="40" y="181" type="line" smooth="yes"/>
    </contour>
  </outline>
</glyph>
<glyph name="v" format="2">
  <advance width="567"/>
  <unicode hex="0076"/>
  <anchor x="265" y="0" name="bottom"/>
  <anchor x="265" y="484" name="top"/>
  <outline>
    <contour>
      <point x="202.36656" y="-9.23032"/>
      <point x="249" y="-42.44075"/>
      <point x="283" y="-42.44075" type="curve" smooth="yes"/>
      <point x="318" y="-42.44075"/>
      <point x="364.56186" y="-9.28158"/>
      <point x="379.56186" y="26.71843" type="curve" smooth="yes"/>
      <point x="550.10992" y="416.24182" type="line" smooth="yes"/>
      <point x="569.10992" y="459.24182"/>
      <point x="527.22821" y="539.02136"/>
      <point x="484.22821" y="539.02136" type="curve" smooth="yes"/>
      <point x="450.22821" y="539.02136"/>
      <point x="402.02109" y="502.74216"/>
      <point x="387.02109" y="465.74216" type="curve" smooth="yes"/>
      <point x="291.10112" y="232.49794" type="line"/>
      <point x="288.5909" y="226.39394"/>
      <point x="284.529" y="226.41251"/>
      <point x="282.07469" y="232.5392" type="curve" smooth="yes"/>
      <point x="189.27161" y="464.20319" type="line" smooth="yes"/>
      <point x="174.27161" y="502.20319"/>
      <point x="127.44004" y="538.26093"/>
      <point x="97.44004" y="538.26093" type="curve" smooth="yes"/>
      <point x="42.44004" y="538.26093"/>
      <point x="-0.65043" y="460.69592"/>
      <point x="18.34957" y="416.69592" type="curve" smooth="yes"/>
      <point x="186.36656" y="26.76968" type="line" smooth="yes"/>
    </contour>
  </outline>
</glyph>
<glyph name="w" format="2">
  <advance width="893"/>
  <unicode hex="0077"/>
  <anchor x="427" y="0" name="bottom"/>
  <anchor x="427" y="484" name="top"/>
  <outline>
    <contour>
      <point x="192.93364" y="-9.8799"/>
      <point x="240.1571" y="-42.65241"/>
      <point x="274.1571" y="-42.65241" type="curve" smooth="yes"/>
      <point x="308.1571" y="-42.65241"/>
      <point x="356.35144" y="-8.5788"/>
      <point x="369.35144" y="27.4212" type="curve" smooth="yes"/>
      <point x="441.89143" y="223.50582" type="line"/>
      <point x="444.18137" y="229.69583"/>
      <point x="447.96219" y="229.7084"/>
      <point x="450.29325" y="223.53376" type="curve" smooth="yes"/>
      <point x="524.77902" y="26.23178" type="line" smooth="yes"/>
      <point x="537.77899" y="-8.76822"/>
      <point x="586" y="-42.53894"/>
      <point x="620" y="-42.53894" type="curve" smooth="yes"/>
      <point x="653" y="-42.53894"/>
      <point x="701.09528" y="-8.85901"/>
      <point x="715.09528" y="26.14099" type="curve" smooth="yes"/>
      <point x="866.79993" y="415.93768" type="line" smooth="yes"/>
      <point x="883.79993" y="458.93768"/>
      <point x="847.82062" y="539.47736"/>
      <point x="799.82062" y="539.47736" type="curve" smooth="yes"/>
      <point x="773.82062" y="539.47736"/>
      <point x="720.41882" y="503.09595"/>
      <point x="707.41882" y="467.09595" type="curve" smooth="yes"/>
      <point x="623.71717" y="236.57339" type="line"/>
      <point x="621.46463" y="230.36968"/>
      <point x="617.78939" y="230.37357"/>
      <point x="615.54998" y="236.58203" type="curve" smooth="yes"/>
      <point x="530.45416" y="472.49817" type="line" smooth="yes"/>
      <point x="520.45416" y="500.49817"/>
      <point x="479" y="531.78021"/>
      <point x="450" y="531.78021" type="curve" smooth="yes"/>
      <point x="421" y="531.78021"/>
      <point x="380.60956" y="501.54514"/>
      <point x="369.60956" y="472.54514" type="curve" smooth="yes"/>
      <point x="283.7961" y="238.44601" type="line"/>
      <point x="281.52455" y="232.24923"/>
      <point x="277.82183" y="232.25447"/>
      <point x="275.56782" y="238.45765" type="curve" smooth="yes"/>
      <point x="193.73412" y="463.6694" type="line" smooth="yes"/>
      <point x="179.73412" y="502.6694"/>
      <point x="132.50726" y="538.85846"/>
      <point x="103.50726" y="538.85846" type="curve" smooth="yes"/>
      <point x="53.50726" y="538.85846"/>
      <point x="7.72932" y="464.05527"/>
      <point x="25.72932" y="417.05527" type="curve" smooth="yes"/>
      <point x="178.93364" y="26.1201" type="line" smooth="yes"/>
    </contour>
  </outline>
</glyph>
<glyph name="x" format="2">
  <advance width="586"/>
  <unicode hex="0078"/>
  <anchor x="274" y="0" name="bottom"/>
  <anchor x="274" y="484" name="top"/>
  <outline>
    <contour>
      <point x="16.87708" y="42.82735"/>
      <point x="59.35824" y="-43.62583"/>
      <point x="104.35824" y="-43.62583" type="curve" smooth="yes"/>
      <point x="135.35824" y="-43.62583"/>
      <point x="185.13072" y="-16.23959"/>
      <point x="203.13072" y="5.76041" type="curve" smooth="yes"/>
      <point x="285.74699" y="110.79194" type="line"/>
      <point x="289.8274" y="115.97945"/>
      <point x="296.52036" y="115.99202"/>
      <point x="300.62023" y="110.81987" type="curve" smooth="yes"/>
      <point x="383.91864" y="5.73573" type="line" smooth="yes"/>
      <point x="401.91864" y="-17.26427"/>
      <point x="453.37463" y="-43.49227"/>
      <point x="482.37463" y="-43.49227" type="curve" smooth="yes"/>
      <point x="528.37463" y="-43.49227"/>
      <point x="571.27582" y="43.76895"/>
      <point x="536.27582" y="86.76895" type="curve" smooth="yes"/>
      <point x="408.64066" y="242.76749" type="line"/>
      <point x="404.46129" y="247.87561"/>
      <point x="404.45637" y="256.23837"/>
      <point x="408.62971" y="261.35141" type="curve" smooth="yes"/>
      <point x="524.98526" y="403.90622" type="line" smooth="yes"/>
      <point x="560.98529" y="447.90622"/>
      <point x="519.02045" y="535.81519"/>
      <point x="474.02045" y="535.81519" type="curve" smooth="yes"/>
      <point x="444.02045" y="535.81519"/>
      <point x="392.86218" y="509.23605"/>
      <point x="374.86218" y="486.23605" type="curve" smooth="yes"/>
      <point x="301.59663" y="392.98898" type="line"/>
      <point x="297.51901" y="387.79928"/>
      <point x="290.86366" y="387.81268"/>
      <point x="286.80698" y="393.01877" type="curve" smooth="yes"/>
      <point x="214.1366" y="486.27911" type="line" smooth="yes"/>
      <point x="196.1366" y="509.27911"/>
      <point x="145.29036" y="535.45709"/>
      <point x="114.29036" y="535.45709" type="curve" smooth="yes"/>
      <point x="69.29036" y="535.45709"/>
      <point x="25.86505" y="449.14276"/>
      <point x="61.86505" y="405.14276" type="curve" smooth="yes"/>
      <point x="178.43625" y="261.72952" type="line"/>
      <point x="182.59919" y="256.60801"/>
      <point x="182.60636" y="248.22153"/>
      <point x="178.45217" y="243.09291" type="curve" smooth="yes"/>
      <point x="51.87708" y="86.82735" type="line" smooth="yes"/>
    </contour>
  </outline>
</glyph>
<glyph name="y" format="2">
  <advance width="566"/>
  <unicode hex="0079"/>
  <anchor x="410" y="0" name="bottom"/>
  <anchor x="264" y="484" name="top"/>
  <outline>
    <contour>
      <point x="112.66988" y="-150.38101"/>
      <point x="154.88193" y="-228.97638"/>
      <point x="199.88193" y="-228.97638" type="curve" smooth="yes"/>
      <point x="231.88193" y="-228.97638"/>
      <point x="281.56268" y="-195.27974"/>
      <point x="298.56268" y="-158.27974" type="curve" smooth="yes"/>
      <point x="550.10992" y="416.24182" type="line" smooth="yes"/>
      <point x="569.10992" y="459.24182"/>
      <point x="527.34219" y="538.80902"/>
      <point x="484.34219" y="538.80902" type="curve" smooth="yes"/>
      <point x="450.34219" y="538.80902"/>
      <point x="401.03235" y="502.82141"/>
      <point x="386.03235" y="465.82141" type="curve" smooth="yes"/>
      <point x="290.92532" y="232.87809" type="line"/>
      <point x="288.43057" y="226.76775"/>
      <point x="284.38133" y="226.78113"/>
      <point x="281.92702" y="232.90783" type="curve" smooth="yes"/>
      <point x="189.27161" y="464.20319" type="line" smooth="yes"/>
      <point x="174.27161" y="502.20319"/>
      <point x="127.64335" y="538.09692"/>
      <point x="97.64335" y="538.09692" type="curve" smooth="yes"/>
      <point x="42.64335" y="538.09692"/>
      <point x="-1.72248" y="460.8176"/>
      <point x="17.27752" y="416.8176" type="curve" smooth="yes"/>
      <point x="184.16456" y="30.77672" type="line"/>
      <point x="186.78352" y="24.71858"/>
      <point x="186.70898" y="14.83815"/>
      <point x="183.99891" y="8.82022" type="curve" smooth="yes"/>
      <point x="131.66988" y="-107.381" type="line" smooth="yes"/>
    </contour>
  </outline>
</glyph>
<glyph name="z" format="2">
  <advance width="519"/>
  <unicode hex="007A"/>
  <anchor x="248" y="0" name="bottom"/>
  <anchor x="248" y="484" name="top"/>
  <outline>
    <contour>
      <point x="33" y="77"/>
      <point x="-3" y="-28"/>
      <point x="99" y="-28" type="curve" smooth="yes"/>
      <point x="444" y="-28" type="line" smooth="yes"/>
      <point x="475" y="-28"/>
      <point x="521" y="17"/>
      <point x="521" y="47" type="curve" smooth="yes"/>
      <point x="521" y="77"/>
      <point x="475" y="122"/>
      <point x="444" y="122" type="curve" smooth="yes"/>
      <point x="280" y="122" type="line" smooth="yes"/>
      <point x="273" y="122"/>
      <point x="271" y="126"/>
      <point x="275" y="131" type="curve" smooth="yes"/>
      <point x="471" y="377" type="line" smooth="yes"/>
      <point x="521" y="436"/>
      <point x="503" y="517"/>
      <point x="429" y="517" type="curve" smooth="yes"/>
      <point x="103" y="517" type="line" smooth="yes"/>
      <point x="72" y="517"/>
      <point x="26" y="472"/>
      <point x="26" y="442" type="curve" smooth="yes"/>
      <point x="26" y="412"/>
      <point x="72" y="367"/>
      <point x="103" y="367" type="curve" smooth="yes"/>
      <point x="256" y="367" type="line" smooth="yes"/>
      <point x="263" y="367"/>
      <point x="265" y="363"/>
      <point x="260" y="358" type="curve"/>
      <point x="68" y="116" type="line"/>
    </contour>
  </outline>
</glyph>
<glyph name="braceleft" format="2">
  <advance width="431"/>
  <unicode hex="007B"/>
  <outline>
    <contour>
      <point x="135" y="-147.59798"/>
      <point x="195.40202" y="-208"/>
      <point x="272.40202" y="-208" type="curve" smooth="yes"/>
      <point x="365.77869" y="-208" type="line" smooth="yes"/>
      <point x="395.77869" y="-208"/>
      <point x="446.91446" y="-161.66574"/>
      <point x="446.91446" y="-134.66574" type="curve" smooth="yes"/>
      <point x="446.91446" y="-107.66574"/>
      <point x="402.14227" y="-58"/>
      <point x="375.14227" y="-58" type="curve" smooth="yes"/>
      <point x="340.38635" y="-58" type="line" smooth="yes"/>
      <point x="327.25443" y="-58"/>
      <point x="321.12772" y="-58.5145"/>
      <point x="318.2984" y="-55.70654" type="curve" smooth="yes"/>
      <point x="315.31049" y="-52.74116"/>
      <point x="316" y="-46.07035"/>
      <point x="316" y="-31.17501" type="curve" smooth="yes"/>
      <point x="316" y="158.81017" type="line" smooth="yes"/>
      <point x="316" y="213.71173"/>
      <point x="288.38815" y="252.03033"/>
      <point x="243.86687" y="262.08664" type="curve"/>
      <point x="288.38815" y="272.32248"/>
      <point x="316" y="311.34998"/>
      <point x="316" y="366.25156" type="curve" smooth="yes"/>
      <point x="316" y="556.17499" type="line" smooth="yes"/>
      <point x="316" y="571.07031"/>
      <point x="315.31049" y="577.74115"/>
      <point x="318.2984" y="580.70654" type="curve" smooth="yes"/>
      <point x="321.12772" y="583.51453"/>
      <point x="327.25443" y="583"/>
      <point x="340.38635" y="583" type="curve" smooth="yes"/>
      <point x="375.14227" y="583" type="line" smooth="yes"/>
      <point x="402.14227" y="583"/>
      <point x="446.91446" y="632.66577"/>
      <point x="446.91446" y="659.66577" type="curve" smooth="yes"/>
      <point x="446.91446" y="686.66577"/>
      <point x="395.77869" y="733"/>
      <point x="365.77869" y="733" type="curve" smooth="yes"/>
      <point x="272.40202" y="733" type="line" smooth="yes"/>
      <point x="195.40202" y="733"/>
      <point x="135" y="672.59796"/>
      <point x="135" y="595.59796" type="curve" smooth="yes"/>
      <point x="135" y="400.27463" type="line" smooth="yes"/>
      <point x="135" y="346.27463"/>
      <point x="124.67755" y="331.14816"/>
      <point x="74.67756" y="329.14816" type="curve" smooth="yes"/>
      <point x="48.67756" y="328.14816"/>
      <point x="18.33519" y="289.18637"/>
      <point x="18.33519" y="263.18637" type="curve" smooth="yes"/>
      <point x="18.33519" y="236.18637"/>
      <point x="48.5855" y="196.96039"/>
      <point x="74.5855" y="195.96039" type="curve" smooth="yes"/>
      <point x="124.5855" y="193.96039"/>
      <point x="135" y="178.72537"/>
      <point x="135" y="124.72537" type="curve" smooth="yes"/>
      <point x="135" y="-70.59798" type="line" smooth="yes"/>
    </contour>
  </outline>
</glyph>
<glyph name="bar" format="2">
  <advance width="328"/>
  <unicode hex="007C"/>
  <outline>
    <contour>
      <point x="74" y="-178.46698"/>
      <point x="123.84097" y="-228.757"/>
      <point x="163.84097" y="-228.757" type="curve" smooth="yes"/>
      <point x="204.84097" y="-228.757"/>
      <point x="255" y="-178.59798"/>
      <point x="255" y="-137.59798" type="curve" smooth="yes"/>
      <point x="255" y="661.59796" type="line" smooth="yes"/>
      <point x="255" y="702.59796"/>
      <point x="203.84097" y="752.75702"/>
      <point x="163.84097" y="752.75702" type="curve" smooth="yes"/>
      <point x="123.84097" y="752.75702"/>
      <point x="74" y="702.46698"/>
      <point x="74" y="661.46698" type="curve" smooth="yes"/>
      <point x="74" y="-137.46698" type="line" smooth="yes"/>
    </contour>
  </outline>
</glyph>
<glyph name="braceright" format="2">
  <advance width="431"/>
  <unicode hex="007D"/>
  <outline>
    <contour>
      <point x="-15.91446" y="-161.66574"/>
      <point x="35.22131" y="-208"/>
      <point x="65.22131" y="-208" type="curve" smooth="yes"/>
      <point x="158.59798" y="-208" type="line" smooth="yes"/>
      <point x="235.59798" y="-208"/>
      <point x="296" y="-147.59798"/>
      <point x="296" y="-70.59798" type="curve" smooth="yes"/>
      <point x="296" y="124.72537" type="line" smooth="yes"/>
      <point x="296" y="178.72537"/>
      <point x="306.32245" y="193.85184"/>
      <point x="356.32245" y="195.85184" type="curve" smooth="yes"/>
      <point x="382.32245" y="196.85184"/>
      <point x="412.66483" y="235.81363"/>
      <point x="412.66483" y="261.81363" type="curve" smooth="yes"/>
      <point x="412.66483" y="288.81363"/>
      <point x="382.41449" y="328.03961"/>
      <point x="356.41449" y="329.03961" type="curve" smooth="yes"/>
      <point x="306.41449" y="331.03961"/>
      <point x="296" y="346.27463"/>
      <point x="296" y="400.27463" type="curve" smooth="yes"/>
      <point x="296" y="595.59796" type="line" smooth="yes"/>
      <point x="296" y="672.59796"/>
      <point x="235.59798" y="733"/>
      <point x="158.59798" y="733" type="curve" smooth="yes"/>
      <point x="65.22131" y="733" type="line" smooth="yes"/>
      <point x="35.22131" y="733"/>
      <point x="-15.91446" y="686.66577"/>
      <point x="-15.91446" y="659.66577" type="curve" smooth="yes"/>
      <point x="-15.91446" y="632.66577"/>
      <point x="28.85773" y="583"/>
      <point x="55.85773" y="583" type="curve" smooth="yes"/>
      <point x="90.61364" y="583" type="line" smooth="yes"/>
      <point x="103.74555" y="583"/>
      <point x="109.87227" y="583.51453"/>
      <point x="112.70159" y="580.70654" type="curve" smooth="yes"/>
      <point x="115.68953" y="577.74115"/>
      <point x="115" y="571.07031"/>
      <point x="115" y="556.17499" type="curve" smooth="yes"/>
      <point x="115" y="366.18982" type="line" smooth="yes"/>
      <point x="115" y="311.28824"/>
      <point x="142.61184" y="272.96964"/>
      <point x="187.13313" y="262.91336" type="curve"/>
      <point x="142.61184" y="252.67754"/>
      <point x="115" y="213.64999"/>
      <point x="115" y="158.74843" type="curve" smooth="yes"/>
      <point x="115" y="-31.17501" type="line" smooth="yes"/>
      <point x="115" y="-46.07035"/>
      <point x="115.68953" y="-52.74116"/>
      <point x="112.7016" y="-55.70654" type="curve" smooth="yes"/>
      <point x="109.87228" y="-58.5145"/>
      <point x="103.74556" y="-58"/>
      <point x="90.61364" y="-58" type="curve" smooth="yes"/>
      <point x="55.85773" y="-58" type="line" smooth="yes"/>
      <point x="28.85773" y="-58"/>
      <point x="-15.91446" y="-107.66574"/>
      <point x="-15.91446" y="-134.66574" type="curve" smooth="yes"/>
    </contour>
  </outline>
</glyph>
<glyph name="asciitilde" format="2">
  <advance width="640"/>
  <unicode hex="007E"/>
  <outline>
    <contour>
      <point x="352.7861" y="193.55276"/>
      <point x="399.51395" y="178.41893"/>
      <point x="432.51395" y="178.41893" type="curve" smooth="yes"/>
      <point x="480.51395" y="178.41893"/>
      <point x="571.52295" y="231.77974"/>
      <point x="600.52295" y="279.77975" type="curve" smooth="yes"/>
      <point x="628.52295" y="325.77975"/>
      <point x="519.26102" y="406.01862"/>
      <point x="489.26102" y="361.01862" type="curve" smooth="yes"/>
      <point x="469.26102" y="331.01862"/>
      <point x="443.02704" y="323.7388"/>
      <point x="420.02704" y="323.7388" type="curve" smooth="yes"/>
      <point x="398.02704" y="323.7388"/>
      <point x="381.23651" y="332.4458"/>
      <point x="337.23651" y="355.4458" type="curve" smooth="yes"/>
      <point x="287.23651" y="381.4458"/>
      <point x="239.31479" y="396.53217"/>
      <point x="207.31479" y="396.53217" type="curve" smooth="yes"/>
      <point x="159.31479" y="396.53217"/>
      <point x="69.61232" y="343.12149"/>
      <point x="40.61232" y="295.12149" type="curve" smooth="yes"/>
      <point x="12.61232" y="249.12149"/>
      <point x="121.84187" y="168.90625"/>
      <point x="151.84187" y="213.90625" type="curve" smooth="yes"/>
      <point x="171.84187" y="243.90625"/>
      <point x="197.21446" y="251.29752"/>
      <point x="220.21446" y="251.29752" type="curve" smooth="yes"/>
      <point x="240.21446" y="251.29752"/>
      <point x="252.7861" y="247.55276"/>
      <point x="302.7861" y="220.55276" type="curve" smooth="yes"/>
    </contour>
  </outline>
</glyph>
<glyph name="exclamdown" format="2">
  <advance width="288"/>
  <unicode hex="00A1"/>
  <outline>
    <contour>
      <point x="40.07471" y="-164.49434"/>
      <point x="96.4518" y="-230.95158"/>
      <point x="145.4518" y="-230.95158" type="curve" smooth="yes"/>
      <point x="193.4518" y="-230.95158"/>
      <point x="246.83505" y="-164.22076"/>
      <point x="242.83505" y="-115.22076" type="curve" smooth="yes"/>
      <point x="213.15363" y="252.61676" type="line" smooth="yes"/>
      <point x="211.85907" y="272.03506"/>
      <point x="193.84642" y="298.23392"/>
      <point x="174.79201" y="314.29993" type="curve"/>
      <point x="215.55751" y="333.78766"/>
      <point x="258.59798" y="385.65482"/>
      <point x="258.59798" y="420" type="curve" smooth="yes"/>
      <point x="258.59798" y="464"/>
      <point x="191.13243" y="533.46558"/>
      <point x="145.13243" y="533.46558" type="curve" smooth="yes"/>
      <point x="99.13243" y="533.46558"/>
      <point x="30.13357" y="464"/>
      <point x="30.13357" y="420" type="curve" smooth="yes"/>
      <point x="30.13357" y="385.70758"/>
      <point x="74.01711" y="333.94693"/>
      <point x="115.12183" y="314.38995" type="curve"/>
      <point x="95.87733" y="298.40015"/>
      <point x="77.86427" y="272.29483"/>
      <point x="75.92171" y="252.86926" type="curve" smooth="yes"/>
      <point x="44.07471" y="-115.49434" type="line" smooth="yes"/>
    </contour>
  </outline>
</glyph>
<glyph name="cent" format="2">
  <advance width="640"/>
  <unicode hex="00A2"/>
  <outline>
    <contour>
      <point x="263" y="-112.43592"/>
      <point x="313" y="-162.99593"/>
      <point x="341" y="-162.99593" type="curve" smooth="yes"/>
      <point x="370" y="-162.99593"/>
      <point x="419" y="-112.43592"/>
      <point x="419" y="-83.43592" type="curve" smooth="yes"/>
      <point x="419" y="-37.44444" type="line"/>
      <point x="419" y="-30.84444"/>
      <point x="424.11337" y="-23.70852"/>
      <point x="430.36305" y="-21.58683" type="curve" smooth="yes"/>
      <point x="461.30478" y="-19.68945"/>
      <point x="514.79245" y="-1.44612"/>
      <point x="545.68091" y="17.56215" type="curve" smooth="yes"/>
      <point x="596.68091" y="48.56215"/>
      <point x="545.41681" y="186.99837"/>
      <point x="482.41678" y="151.99837" type="curve" smooth="yes"/>
      <point x="448.41678" y="132.99837"/>
      <point x="407.43503" y="124.42741"/>
      <point x="377.43503" y="124.42741" type="curve" smooth="yes"/>
      <point x="290.43503" y="124.42741"/>
      <point x="267.82408" y="155.74687"/>
      <point x="267.82408" y="246.74687" type="curve" smooth="yes"/>
      <point x="267.82408" y="335.74689"/>
      <point x="291.15479" y="366.60251"/>
      <point x="378.15479" y="366.60251" type="curve" smooth="yes"/>
      <point x="411.15479" y="366.60251"/>
      <point x="453.32016" y="355.23212"/>
      <point x="481.32016" y="339.23212" type="curve" smooth="yes"/>
      <point x="538.32019" y="306.23212"/>
      <point x="602.41791" y="439.46198"/>
      <point x="551.41791" y="471.46198" type="curve" smooth="yes"/>
      <point x="518.42984" y="492.38126"/>
      <point x="462.01865" y="509.50708"/>
      <point x="419" y="513.84796" type="curve"/>
      <point x="419" y="577.43591" type="line" smooth="yes"/>
      <point x="419" y="606.43591"/>
      <point x="370" y="656.99591"/>
      <point x="341" y="656.99591" type="curve" smooth="yes"/>
      <point x="313" y="656.99591"/>
      <point x="263" y="606.43591"/>
      <point x="263" y="577.43591" type="curve" smooth="yes"/>
      <point x="263" y="528" type="line"/>
      <point x="263" y="521"/>
      <point x="263" y="508"/>
      <point x="256" y="507" type="curve" smooth="yes"/>
      <point x="148" y="486"/>
      <point x="66.6085" y="366.58893"/>
      <point x="66.6085" y="245.14166" type="curve" smooth="yes"/>
      <point x="66.6085" y="117.95103"/>
      <point x="146.97694" y="14.45512"/>
      <point x="263" y="-11.00336" type="curve"/>
      <point x="263" y="-83.43592" type="line" smooth="yes"/>
    </contour>
  </outline>
</glyph>
<glyph name="sterling" format="2">
  <advance width="640"/>
  <unicode hex="00A3"/>
  <outline>
    <contour>
      <point x="16.21256" y="23.18946"/>
      <point x="67.40202" y="-28"/>
      <point x="97.40202" y="-28" type="curve" smooth="yes"/>
      <point x="547.59796" y="-28" type="line" smooth="yes"/>
      <point x="577.59796" y="-28"/>
      <point x="628.78741" y="23.18946"/>
      <point x="628.78741" y="53.18946" type="curve" smooth="yes"/>
      <point x="628.78741" y="83.18946"/>
      <point x="577.44208" y="133"/>
      <point x="547.44208" y="133" type="curve" smooth="yes"/>
      <point x="316" y="133" type="line"/>
      <point x="309.4" y="133"/>
      <point x="304" y="138.4"/>
      <point x="304" y="145" type="curve" smooth="yes"/>
      <point x="304" y="270" type="line"/>
      <point x="304" y="276.6"/>
      <point x="309.4" y="282"/>
      <point x="316" y="282" type="curve" smooth="yes"/>
      <point x="414.06107" y="282" type="line" smooth="yes"/>
      <point x="440.06107" y="282"/>
      <point x="490.97015" y="328"/>
      <point x="490.97015" y="354" type="curve" smooth="yes"/>
      <point x="490.97015" y="380"/>
      <point x="440.06107" y="426"/>
      <point x="414.06107" y="426" type="curve" smooth="yes"/>
      <point x="316" y="426" type="line"/>
      <point x="309.4" y="426"/>
      <point x="304" y="431.4"/>
      <point x="304" y="438" type="curve" smooth="yes"/>
      <point x="304" y="490.10806" type="line" smooth="yes"/>
      <point x="304" y="561.10809"/>
      <point x="319.8273" y="580.64319"/>
      <point x="397.8273" y="580.64319" type="curve" smooth="yes"/>
      <point x="440.8273" y="580.64319"/>
      <point x="487.96008" y="569.4624"/>
      <point x="527.96008" y="543.4624" type="curve" smooth="yes"/>
      <point x="588.96008" y="503.4624"/>
      <point x="674.43457" y="632.17413"/>
      <point x="616.43457" y="676.17413" type="curve" smooth="yes"/>
      <point x="572.43457" y="709.17413"/>
      <point x="444.6463" y="746.32495"/>
      <point x="376.6463" y="746.32495" type="curve" smooth="yes"/>
      <point x="217.64629" y="746.32495"/>
      <point x="120" y="641.25342"/>
      <point x="120" y="509.25342" type="curve" smooth="yes"/>
      <point x="120" y="437.69408" type="line"/>
      <point x="120" y="431.26234"/>
      <point x="114.73766" y="426"/>
      <point x="108.30592" y="426" type="curve" smooth="yes"/>
      <point x="90.76479" y="426" type="line" smooth="yes"/>
      <point x="64.76479" y="426"/>
      <point x="15.49207" y="380"/>
      <point x="15.49207" y="354" type="curve" smooth="yes"/>
      <point x="15.49207" y="328"/>
      <point x="64.76479" y="282"/>
      <point x="90.76479" y="282" type="curve" smooth="yes"/>
      <point x="108.30592" y="282" type="line"/>
      <point x="114.73766" y="282"/>
      <point x="120" y="276.73766"/>
      <point x="120" y="270.30592" type="curve" smooth="yes"/>
      <point x="120" y="141.97683" type="line"/>
      <point x="120" y="137.03957"/>
      <point x="115.96043" y="133"/>
      <point x="111.02317" y="133" type="curve" smooth="yes"/>
      <point x="97.55792" y="133" type="line" smooth="yes"/>
      <point x="67.55792" y="133"/>
      <point x="16.21256" y="83.18946"/>
      <point x="16.21256" y="53.18946" type="curve" smooth="yes"/>
    </contour>
  </outline>
</glyph>
<glyph name="currency" format="2">
  <advance width="640"/>
  <unicode hex="00A4"/>
  <outline>
    <contour>
      <point x="26" y="36.30619"/>
      <point x="26" y="-25.5544"/>
      <point x="41" y="-40.5544" type="curve" smooth="yes"/>
      <point x="56" y="-55.5544"/>
      <point x="116.97128" y="-53.77065"/>
      <point x="131.97128" y="-38.77065" type="curve" smooth="yes"/>
      <point x="174.31987" y="4.34791" type="line"/>
      <point x="178.94454" y="9.05667"/>
      <point x="187.85125" y="11.20166"/>
      <point x="194.11256" y="9.11456" type="curve" smooth="yes"/>
      <point x="222.72836" y="-17.09071"/>
      <point x="265.09213" y="-32.5453"/>
      <point x="319.09213" y="-32.5453" type="curve" smooth="yes"/>
      <point x="373.09213" y="-32.5453"/>
      <point x="415.35684" y="-17.17745"/>
      <point x="455.35684" y="13.82255" type="curve"/>
      <point x="505.80545" y="-37.5433" type="line" smooth="yes"/>
      <point x="520.80545" y="-53.5433"/>
      <point x="583" y="-55.11956"/>
      <point x="597" y="-41.11956" type="curve" smooth="yes"/>
      <point x="612" y="-26.11956"/>
      <point x="611" y="36.4531"/>
      <point x="597" y="51.4531" type="curve" smooth="yes"/>
      <point x="553.1999" y="96.03535" type="line"/>
      <point x="548.57448" y="100.74337"/>
      <point x="546.42447" y="109.7421"/>
      <point x="548.4221" y="116.03253" type="curve" smooth="yes"/>
      <point x="574.79004" y="146.59538"/>
      <point x="589.35828" y="189.93802"/>
      <point x="589.35828" y="244.93802" type="curve" smooth="yes"/>
      <point x="589.35828" y="299.93802"/>
      <point x="575.73273" y="342.35013"/>
      <point x="545.73273" y="384.35013" type="curve"/>
      <point x="597" y="436.5495" type="line" smooth="yes"/>
      <point x="613" y="452.5495"/>
      <point x="613" y="516.03668"/>
      <point x="597" y="532.03668" type="curve" smooth="yes"/>
      <point x="582" y="547.03668"/>
      <point x="517.68338" y="544.57062"/>
      <point x="501.68338" y="528.57062" type="curve" smooth="yes"/>
      <point x="461.39365" y="486.76053" type="line"/>
      <point x="456.81395" y="482.00802"/>
      <point x="447.94044" y="479.8164"/>
      <point x="441.67473" y="481.89026" type="curve" smooth="yes"/>
      <point x="413.06693" y="508.1196"/>
      <point x="371.93787" y="522.51447"/>
      <point x="318.93787" y="522.51447" type="curve" smooth="yes"/>
      <point x="265.93787" y="522.51447"/>
      <point x="223.69975" y="507.11984"/>
      <point x="183.69975" y="477.11984" type="curve"/>
      <point x="132.96696" y="528.77502" type="line" smooth="yes"/>
      <point x="116.96696" y="544.77502"/>
      <point x="55" y="545.54364"/>
      <point x="41" y="530.54364" type="curve" smooth="yes"/>
      <point x="26" y="514.54364"/>
      <point x="26" y="454.69382"/>
      <point x="41" y="439.69382" type="curve" smooth="yes"/>
      <point x="83.95491" y="395.1769" type="line"/>
      <point x="88.53775" y="390.42742"/>
      <point x="90.66288" y="381.3916"/>
      <point x="88.67744" y="375.09732" type="curve" smooth="yes"/>
      <point x="62.28734" y="344.54147"/>
      <point x="47.63105" y="300.97156"/>
      <point x="47.63105" y="244.97156" type="curve" smooth="yes"/>
      <point x="47.63105" y="189.97156"/>
      <point x="63.26183" y="145.43208"/>
      <point x="92.26183" y="104.43208" type="curve"/>
      <point x="41" y="51.30619" type="line" smooth="yes"/>
    </contour>
    <contour>
      <point x="418.65594" y="164.06485"/>
      <point x="394.92642" y="138.83124"/>
      <point x="318.92642" y="138.83124" type="curve" smooth="yes"/>
      <point x="240.92642" y="138.83124"/>
      <point x="218.474" y="164.06509"/>
      <point x="218.474" y="245.06509" type="curve" smooth="yes"/>
      <point x="218.474" y="327.06509"/>
      <point x="241.92619" y="352.02139"/>
      <point x="318.92621" y="352.02139" type="curve" smooth="yes"/>
      <point x="394.92621" y="352.02139"/>
      <point x="418.65594" y="327.06485"/>
      <point x="418.65594" y="245.06485" type="curve" smooth="yes"/>
    </contour>
  </outline>
</glyph>
<glyph name="yen" format="2">
  <advance width="640"/>
  <unicode hex="00A5"/>
  <outline>
    <contour>
      <point x="228" y="4.77582"/>
      <point x="279" y="-48.53668"/>
      <point x="320" y="-48.53668" type="curve" smooth="yes"/>
      <point x="362" y="-48.53668"/>
      <point x="412" y="4.77582"/>
      <point x="412" y="47.77582" type="curve" smooth="yes"/>
      <point x="412" y="119" type="line"/>
      <point x="412" y="125.6"/>
      <point x="417.4" y="131"/>
      <point x="424" y="131" type="curve" smooth="yes"/>
      <point x="522.89154" y="131" type="line" smooth="yes"/>
      <point x="553.89154" y="131"/>
      <point x="601.43701" y="175"/>
      <point x="601.43701" y="203" type="curve" smooth="yes"/>
      <point x="601.43701" y="231"/>
      <point x="553.89154" y="275"/>
      <point x="522.89154" y="275" type="curve" smooth="yes"/>
      <point x="416.8" y="275" type="line"/>
      <point x="414.16" y="275"/>
      <point x="412" y="277.16"/>
      <point x="412" y="279.8" type="curve" smooth="yes"/>
      <point x="412" y="282.2" type="line"/>
      <point x="412" y="284.84"/>
      <point x="414.16" y="287"/>
      <point x="416.8" y="287" type="curve" smooth="yes"/>
      <point x="522.89154" y="287" type="line" smooth="yes"/>
      <point x="553.89154" y="287"/>
      <point x="601.43701" y="331"/>
      <point x="601.43701" y="359" type="curve" smooth="yes"/>
      <point x="601.43701" y="387"/>
      <point x="553.89154" y="431"/>
      <point x="522.89154" y="431" type="curve" smooth="yes"/>
      <point x="492.67068" y="431" type="line"/>
      <point x="486.07068" y="431"/>
      <point x="483.74442" y="435.43984"/>
      <point x="487.5012" y="440.86631" type="curve" smooth="yes"/>
      <point x="615.6098" y="625.91211" type="line" smooth="yes"/>
      <point x="643.6098" y="665.91211"/>
      <point x="599.96783" y="752.72052"/>
      <point x="549.96783" y="752.72052" type="curve" smooth="yes"/>
      <point x="522.96783" y="752.72052"/>
      <point x="475.12735" y="722.62878"/>
      <point x="456.12735" y="694.62878" type="curve" smooth="yes"/>
      <point x="326.6927" y="501.99956" type="line"/>
      <point x="323.01171" y="496.52139"/>
      <point x="316.98829" y="496.52139"/>
      <point x="313.3073" y="501.99956" type="curve" smooth="yes"/>
      <point x="183.99127" y="694.45221" type="line" smooth="yes"/>
      <point x="165.99127" y="721.45221"/>
      <point x="119.19224" y="752.50409"/>
      <point x="93.19224" y="752.50409" type="curve" smooth="yes"/>
      <point x="43.19224" y="752.50409"/>
      <point x="-1.03845" y="662.47968"/>
      <point x="22.96155" y="628.47968" type="curve" smooth="yes"/>
      <point x="153.31933" y="440.85489" type="line"/>
      <point x="157.08517" y="435.4347"/>
      <point x="154.76631" y="431"/>
      <point x="148.16631" y="431" type="curve" smooth="yes"/>
      <point x="117.10846" y="431" type="line" smooth="yes"/>
      <point x="86.10846" y="431"/>
      <point x="38.563" y="387"/>
      <point x="38.563" y="359" type="curve" smooth="yes"/>
      <point x="38.563" y="331"/>
      <point x="86.10846" y="287"/>
      <point x="117.10846" y="287" type="curve" smooth="yes"/>
      <point x="223.2" y="287" type="line"/>
      <point x="225.84" y="287"/>
      <point x="228" y="284.84"/>
      <point x="228" y="282.2" type="curve" smooth="yes"/>
      <point x="228" y="279.8" type="line"/>
      <point x="228" y="277.16"/>
      <point x="225.84" y="275"/>
      <point x="223.2" y="275" type="curve" smooth="yes"/>
      <point x="117.10846" y="275" type="line" smooth="yes"/>
      <point x="86.10846" y="275"/>
      <point x="38.563" y="231"/>
      <point x="38.563" y="203" type="curve" smooth="yes"/>
      <point x="38.563" y="175"/>
      <point x="86.10846" y="131"/>
      <point x="117.10846" y="131" type="curve" smooth="yes"/>
      <point x="216" y="131" type="line"/>
      <point x="222.6" y="131"/>
      <point x="228" y="125.6"/>
      <point x="228" y="119" type="curve" smooth="yes"/>
      <point x="228" y="47.77582" type="line" smooth="yes"/>
    </contour>
  </outline>
</glyph>
<glyph name="brokenbar" format="2">
  <advance width="328"/>
  <unicode hex="00A6"/>
  <outline>
    <contour>
      <point x="74" y="-177.46698"/>
      <point x="123.84097" y="-227.757"/>
      <point x="163.84097" y="-227.757" type="curve" smooth="yes"/>
      <point x="204.84097" y="-227.757"/>
      <point x="255" y="-177.59798"/>
      <point x="255" y="-136.59798" type="curve" smooth="yes"/>
      <point x="255" y="109.46904" type="line" smooth="yes"/>
      <point x="255" y="150.46904"/>
      <point x="203.83974" y="202.07629"/>
      <point x="163.83974" y="202.07629" type="curve" smooth="yes"/>
      <point x="123.83974" y="202.07629"/>
      <point x="74" y="150.3385"/>
      <point x="74" y="109.3385" type="curve" smooth="yes"/>
      <point x="74" y="-136.46698" type="line" smooth="yes"/>
    </contour>
    <contour>
      <point x="74" y="374.53302"/>
      <point x="123.84097" y="324.24298"/>
      <point x="163.84097" y="324.24298" type="curve" smooth="yes"/>
      <point x="204.84097" y="324.24298"/>
      <point x="255" y="374.40201"/>
      <point x="255" y="415.40201" type="curve" smooth="yes"/>
      <point x="255" y="661.59796" type="line" smooth="yes"/>
      <point x="255" y="702.59796"/>
      <point x="203.84097" y="752.75702"/>
      <point x="163.84097" y="752.75702" type="curve" smooth="yes"/>
      <point x="123.84097" y="752.75702"/>
      <point x="74" y="702.46698"/>
      <point x="74" y="661.46698" type="curve" smooth="yes"/>
      <point x="74" y="415.53302" type="line" smooth="yes"/>
    </contour>
  </outline>
</glyph>
<glyph name="section" format="2">
  <advance width="610"/>
  <unicode hex="00A7"/>
  <outline>
    <contour>
      <point x="108" y="-197"/>
      <point x="220" y="-220"/>
      <point x="290" y="-220" type="curve" smooth="yes"/>
      <point x="428" y="-220"/>
      <point x="546" y="-130"/>
      <point x="546" y="-15" type="curve" smooth="yes"/>
      <point x="546" y="20"/>
      <point x="535" y="56"/>
      <point x="519" y="77" type="curve"/>
      <point x="561" y="113"/>
      <point x="588" y="167"/>
      <point x="588" y="221" type="curve" smooth="yes"/>
      <point x="588" y="295"/>
      <point x="536" y="367"/>
      <point x="435" y="413" type="curve" smooth="yes"/>
      <point x="309" y="470" type="line" smooth="yes"/>
      <point x="255" y="494"/>
      <point x="255" y="496"/>
      <point x="255" y="528" type="curve" smooth="yes"/>
      <point x="255" y="535" type="line" smooth="yes"/>
      <point x="255" y="591"/>
      <point x="267" y="595"/>
      <point x="331" y="595" type="curve" smooth="yes"/>
      <point x="377" y="595"/>
      <point x="437" y="580"/>
      <point x="477" y="559" type="curve" smooth="yes"/>
      <point x="532" y="530"/>
      <point x="595" y="664"/>
      <point x="544" y="693" type="curve" smooth="yes"/>
      <point x="496" y="720"/>
      <point x="386" y="745"/>
      <point x="317" y="745" type="curve" smooth="yes"/>
      <point x="182" y="745"/>
      <point x="64" y="655"/>
      <point x="64" y="540" type="curve" smooth="yes"/>
      <point x="64" y="505"/>
      <point x="75" y="469"/>
      <point x="91" y="448" type="curve"/>
      <point x="49" y="412"/>
      <point x="22" y="358"/>
      <point x="22" y="304" type="curve" smooth="yes"/>
      <point x="22" y="230"/>
      <point x="74" y="158"/>
      <point x="175" y="112" type="curve" smooth="yes"/>
      <point x="301" y="55" type="line" smooth="yes"/>
      <point x="355" y="31"/>
      <point x="355" y="30"/>
      <point x="354" y="-2" type="curve" smooth="yes"/>
      <point x="354" y="-10" type="line" smooth="yes"/>
      <point x="354" y="-67"/>
      <point x="343" y="-71"/>
      <point x="276" y="-71" type="curve" smooth="yes"/>
      <point x="230" y="-71"/>
      <point x="167" y="-56"/>
      <point x="127" y="-36" type="curve" smooth="yes"/>
      <point x="71" y="-8"/>
      <point x="9" y="-141"/>
      <point x="60" y="-170" type="curve" smooth="yes"/>
    </contour>
    <contour>
      <point x="206" y="277"/>
      <point x="172" y="294"/>
      <point x="186" y="316" type="curve" smooth="yes"/>
      <point x="194" y="328" type="line" smooth="yes"/>
      <point x="201" y="339"/>
      <point x="205" y="338"/>
      <point x="231" y="325" type="curve" smooth="yes"/>
      <point x="322" y="277" type="line" smooth="yes"/>
      <point x="426" y="222"/>
      <point x="433" y="233"/>
      <point x="420" y="204" type="curve" smooth="yes"/>
      <point x="411" y="183"/>
      <point x="400" y="185"/>
      <point x="375" y="197" type="curve" smooth="yes"/>
      <point x="271" y="246" type="line" smooth="yes"/>
    </contour>
  </outline>
</glyph>
